<?xml version="1.0" encoding="UTF-8" standalone="no"?><!DOCTYPE svg PUBLIC "-//W3C//DTD SVG 1.1//EN" "http://www.w3.org/Graphics/SVG/1.1/DTD/svg11.dtd"><svg width="100%" height="100%" viewBox="0 0 988 238" version="1.1" xmlns="http://www.w3.org/2000/svg" xmlns:xlink="http://www.w3.org/1999/xlink" xml:space="preserve" xmlns:serif="http://www.serif.com/" style="fill-rule:evenodd;clip-rule:evenodd;stroke-linejoin:round;stroke-miterlimit:2;"><g><path d="M718.042,70.913c-4.725,15.345 -26.73,25.841 -65.942,31.483l-93.65,13.291l2.371,-7.666c7.75,-25.221 18.796,-42.425 33.033,-51.554c14.229,-9.109 37.409,-13.7 69.525,-13.7c42.242,-0 60.45,9.408 54.663,28.146Zm-519.596,121.254c-15.192,2.375 -36.992,3.566 -65.475,3.566c-49.417,0 -71.034,-9.97 -64.771,-29.925c4.496,-14.312 17.437,-22.925 38.95,-25.82l112.417,-15.101l-21.121,67.28Zm783.8,-180.05c-3.379,-4.921 -7.4,-8.296 -24.171,-9.571c-4.396,-0.338 -18.921,-0.813 -43.358,-0.813c-64.234,0 -107.879,19.484 -130.221,57.959c6.154,-38.705 -31.563,-58.075 -113.258,-58.075c-95.905,-0 -155.792,38.621 -179.638,115.85c-8.871,28.72 -9.771,52.246 -2.804,70.629l-22.634,1.521c-17.687,1.354 -40.954,2.55 -55.224,2.55c-35.088,-0 -56.871,-5.888 -65.296,-17.659c-7.55,-10.571 -6.809,-30.2 2.008,-58.821c14.646,-47.416 50.908,-68.758 108.858,-68.758c30.038,-0.058 59.288,3.158 59.304,3.158l0,-0.012c4.03,-0.254 5.813,-4.442 5.363,-7.917l-0.579,-4.533l-2.054,-15.937c-1.363,-10.471 -9.159,-16.688 -23.396,-18.609c-13.017,-0.879 -22.704,-1.462 -36.959,-1.462c-0.27,-0 -0.529,0.008 -0.787,0.008c-75.75,0.171 -128.533,25.046 -158.371,74.604c10.967,-49.742 -24.054,-74.612 -105.183,-74.612c-45.092,-0 -77.429,1.271 -97.038,3.829c-15.033,1.867 -24.195,8.104 -27.516,18.666l-6.421,20.476c-1.171,3.75 0.637,5.608 5.45,5.608l0.146,-0.025c3.562,-0.45 17.287,-1.796 40.733,-3.675c31.013,-2.479 54.025,-3.729 69.137,-3.729c44.642,-0 63.438,11.183 56.442,33.52c-1.525,4.951 -4.925,8.017 -10.129,9.205c-42.221,6.995 -75.742,12.046 -100.537,15.1c-69.767,8.879 -110.071,30.596 -120.93,65.216c-14.887,47.579 22.425,71.379 111.892,71.379c44.625,0 82.088,-2.616 112.367,-7.699c17.45,-2.93 26.291,-7.4 29.8,-18.638l16.637,-53.038c-1.733,53 35.442,79.688 111.584,79.688c32.97,-0 64.229,-1.083 78.983,-3.65c15.612,-2.704 23.075,-6.096 26.521,-17.879l3.375,-16.717c16.225,25.288 51.82,37.933 106.766,37.933c57.95,0 91.75,-1.625 101.392,-4.858c8.075,-2.566 13.067,-6.737 14.842,-12.537c0.345,-1.034 0.529,-2.13 0.708,-3.321l6.942,-22.521c1.212,-3.908 -0.6,-5.779 -5.359,-5.612l-37.095,1.774c-24.755,1.355 -44.146,2.055 -58.134,2.055c-26.337,-0 -44.404,-1.784 -54.283,-5.379c-14.654,-5.638 -21.625,-16.871 -20.963,-33.784l117.492,-15.062c52.662,-6.73 87.896,-22.938 105.738,-48.625l-39.809,138.645c-0.758,2.617 -0.454,4.726 0.879,6.28c1.488,1.737 4.025,2.57 7.784,2.57l48.621,0c8.495,0 11.529,-4.383 12.587,-8.058l42.979,-149.658c5.654,-19.696 23.771,-29.275 55.371,-29.275c28.521,-0 50.025,0.254 63.775,0.758c0.367,0.025 0.717,0.042 1.067,0.042c2.687,-0 7.537,-0.975 9.946,-7.488l7.554,-20.55c1.429,-3.971 1.146,-7.483 -0.896,-10.466Z" style="fill:#7ac142;fill-rule:nonzero;"/></g></svg>