<?xml version="1.0" encoding="UTF-8" standalone="no"?><!DOCTYPE svg PUBLIC "-//W3C//DTD SVG 1.1//EN" "http://www.w3.org/Graphics/SVG/1.1/DTD/svg11.dtd"><svg width="100%" height="100%" viewBox="0 0 1892 475" version="1.1" xmlns="http://www.w3.org/2000/svg" xmlns:xlink="http://www.w3.org/1999/xlink" xml:space="preserve" xmlns:serif="http://www.serif.com/" style="fill-rule:evenodd;clip-rule:evenodd;stroke-linejoin:round;stroke-miterlimit:2;"><g><path d="M1889.66,27.196l-0,141.108l-17.001,0l0,-123.217l17.001,-17.891Z" style="fill:#231f20;fill-rule:nonzero;"/><path d="M1562.7,27.196l0,141.108l-16.996,0l0,-123.217l16.996,-17.891Z" style="fill:#231f20;fill-rule:nonzero;"/><path d="M1185.9,27.196l-0,141.108l-17,0l-0,-123.217l17,-17.891Z" style="fill:#231f20;fill-rule:nonzero;"/><path d="M643.079,168.304l80.254,0l0,-141.108l-17.021,17.891l0,110.871l-26.941,0l0.079,-41.454l-14.125,10.192l-0.067,31.262l-22.062,0c-0,0 -2.204,-17.145 -13.038,-25.075l-9.466,9.442c-0,0 27.362,26.283 -9.005,52.458c0,0 22.534,-4.983 31.392,-24.479Z" style="fill:#231f20;fill-rule:nonzero;"/><path d="M1517.91,27.196l-0,128.762l-27.517,0l-0,12.346l44.516,0l0,-123.217l-16.999,-17.891Z" style="fill:#231f20;fill-rule:nonzero;"/><path d="M1507.14,26.296l-0,112.833l-17.017,0l-0,-99.329l17.017,-13.504Z" style="fill:#231f20;fill-rule:nonzero;"/><path d="M1371.45,28.542l0,111.025l-16.725,-0l0,-97.746l16.725,-13.279Z" style="fill:#231f20;fill-rule:nonzero;"/><path d="M1382.7,155.958l0,-128.762l16.696,17.891l-0,110.871l16.492,0l-0,-15.333l12.487,-0l0,15.333l10.634,0l-0,-19.525l12.57,-8.433l0,27.958l10.592,0l-0,-35.471l12.492,-8.395l-0,56.212l-120.279,0l-0,-12.346l28.316,0Z" style="fill:#231f20;fill-rule:nonzero;"/><path d="M1771.53,155.958l-0,-128.762l-16.971,17.891l0,123.217l101.984,0l-0,-123.217l-16.992,-17.891l-0,128.762l-11.417,0c0,0 -7.446,-1.637 -8.941,-13.225c-1.521,-11.562 -8.409,-26.137 -35.484,-22.675l0,12.171c0,0 18.933,-6.475 22.238,11.246c-0,-0 1.371,8.429 5.037,12.483l-39.454,0Z" style="fill:#231f20;fill-rule:nonzero;"/><path d="M1617.8,97.083c0,4.305 -3.521,7.821 -7.842,7.821c-4.325,0 -7.833,-3.516 -7.833,-7.821c0,-4.362 3.508,-7.846 7.833,-7.846c4.321,0 7.842,3.484 7.842,7.846Z" style="fill:#231f20;fill-rule:nonzero;"/><path d="M1809.57,185.429c-0,4.283 -3.504,7.834 -7.829,7.834c-4.334,-0 -7.871,-3.551 -7.871,-7.834c-0,-4.358 3.537,-7.862 7.871,-7.862c4.325,-0 7.829,3.504 7.829,7.862Z" style="fill:#231f20;fill-rule:nonzero;"/><path d="M1594.82,97.083c-0,4.305 -3.534,7.821 -7.863,7.821c-4.32,0 -7.841,-3.516 -7.841,-7.821c-0,-4.362 3.521,-7.846 7.841,-7.846c4.329,0 7.863,3.484 7.863,7.846Z" style="fill:#231f20;fill-rule:nonzero;"/><path d="M1245.71,97.075c-0,4.313 -3.5,7.829 -7.83,7.829c-4.366,0 -7.825,-3.516 -7.825,-7.829c0,-4.371 3.459,-7.838 7.825,-7.838c4.33,0 7.83,3.467 7.83,7.838Z" style="fill:#231f20;fill-rule:nonzero;"/><path d="M1222.74,97.075c-0,4.313 -3.521,7.829 -7.851,7.829c-4.304,0 -7.8,-3.516 -7.8,-7.829c0,-4.371 3.496,-7.838 7.8,-7.838c4.33,0 7.851,3.467 7.851,7.838Z" style="fill:#231f20;fill-rule:nonzero;"/><path d="M1288.69,186.987c-0,4.321 -3.504,7.838 -7.817,7.838c-4.325,0 -7.85,-3.517 -7.85,-7.838c0,-4.32 3.525,-7.837 7.85,-7.837c4.313,0 7.817,3.517 7.817,7.837Z" style="fill:#231f20;fill-rule:nonzero;"/><path d="M1265.74,186.987c-0,4.321 -3.546,7.838 -7.855,7.838c-4.358,0 -7.854,-3.517 -7.854,-7.838c0,-4.32 3.496,-7.837 7.854,-7.837c4.309,0 7.855,3.517 7.855,7.837Z" style="fill:#231f20;fill-rule:nonzero;"/><path d="M941.479,186.987c0,4.321 -3.533,7.838 -7.858,7.838c-4.288,0 -7.813,-3.517 -7.813,-7.838c0,-4.32 3.525,-7.837 7.813,-7.837c4.325,0 7.858,3.517 7.858,7.837Z" style="fill:#231f20;fill-rule:nonzero;"/><path d="M918.508,186.987c0,4.321 -3.533,7.838 -7.833,7.838c-4.338,0 -7.871,-3.517 -7.871,-7.838c0,-4.32 3.533,-7.837 7.871,-7.837c4.3,0 7.833,3.517 7.833,7.837Z" style="fill:#231f20;fill-rule:nonzero;"/><path d="M622.996,115.079c-0,4.321 -3.521,7.842 -7.85,7.842c-4.354,-0 -7.838,-3.521 -7.838,-7.842c0,-4.316 3.484,-7.829 7.838,-7.829c4.329,-0 7.85,3.513 7.85,7.829Z" style="fill:#231f20;fill-rule:nonzero;"/><path d="M683.017,186.987c-0,4.321 -3.525,7.838 -7.846,7.838c-4.313,0 -7.829,-3.517 -7.829,-7.838c-0,-4.32 3.516,-7.837 7.829,-7.837c4.321,0 7.846,3.517 7.846,7.837Z" style="fill:#231f20;fill-rule:nonzero;"/><path d="M660.062,186.987c0,4.321 -3.537,7.838 -7.858,7.838c-4.354,0 -7.854,-3.517 -7.854,-7.838c-0,-4.32 3.5,-7.837 7.854,-7.837c4.321,0 7.858,3.517 7.858,7.837Z" style="fill:#231f20;fill-rule:nonzero;"/><path d="M573.325,186.987c0,4.321 -3.487,7.838 -7.871,7.838c-4.287,0 -7.812,-3.517 -7.812,-7.838c-0,-4.32 3.525,-7.837 7.812,-7.837c4.384,0 7.871,3.517 7.871,7.837Z" style="fill:#231f20;fill-rule:nonzero;"/><path d="M550.342,186.987c-0,4.321 -3.521,7.838 -7.846,7.838c-4.35,0 -7.858,-3.517 -7.858,-7.838c-0,-4.32 3.508,-7.837 7.858,-7.837c4.325,0 7.846,3.517 7.846,7.837Z" style="fill:#231f20;fill-rule:nonzero;"/><path d="M901.192,98.263c-0,4.329 -3.459,7.837 -7.809,7.837c-4.35,-0 -7.862,-3.508 -7.862,-7.837c-0,-4.33 3.512,-7.83 7.862,-7.83c4.35,0 7.809,3.5 7.809,7.83Z" style="fill:#231f20;fill-rule:nonzero;"/><path d="M878.229,98.263c0,4.329 -3.512,7.837 -7.812,7.837c-4.342,-0 -7.85,-3.508 -7.85,-7.837c-0,-4.33 3.508,-7.83 7.85,-7.83c4.3,0 7.812,3.5 7.812,7.83Z" style="fill:#231f20;fill-rule:nonzero;"/><path d="M1056.34,155.958l17.551,0c-2.438,-1.354 -3.567,-0.77 -5.355,-6.908c-1.183,-4.2 -1.275,-14.492 -0.541,-18.792c0.871,-5.404 2.275,-8.179 4.658,-10.346c3.208,-3.012 9.296,-5.274 13.629,-5.274l35.546,-0l0,13.962l-26.1,-0c-6.229,0.729 -5.937,0.729 -8.954,2.283c-4.538,2.229 -3.917,6.488 -3.917,11.85c0,6.163 0.309,7.684 3.592,10.059c3.287,2.416 4.054,2.396 9.55,3.166l43.308,0l0,-128.762l16.992,17.891l-0,123.217l-116.967,0l0,-123.217l17.008,-17.891l0,128.762Z" style="fill:#231f20;fill-rule:nonzero;"/><path d="M963.283,155.958c0.084,-3.808 4.625,-9.904 8.559,-11.425c3.725,-1.45 8.775,-4.591 8.775,-4.591l0.079,16.016l-17.413,0Zm-94.95,0c0.067,-3.808 4.613,-9.904 8.538,-11.425c3.721,-1.45 8.758,-4.591 8.758,-4.591l0.063,16.016l-17.359,0Zm139.954,-128.762l0,128.762l-14.495,0l-0.038,-41.754c0,0 -11.408,11.55 -22.237,13.671c-13.934,2.7 -22.225,19.662 -22.438,28.083l-9.892,0l0.167,-39.521l-15.2,10.971l-0.033,28.55l-25.25,0l-0.071,-41.754c0,0 -11.496,11.121 -22.246,13.671c-14.712,3.442 -22.383,19.662 -22.429,28.083l0,12.346l171.196,0l-0,-123.217l-17.034,-17.891Z" style="fill:#231f20;fill-rule:nonzero;"/><path d="M796.204,155.958c0.092,-3.808 4.654,-9.904 8.554,-11.425c3.734,-1.45 8.767,-4.591 8.767,-4.591l0.042,16.016l-17.363,0Zm30.038,-41.991c-0,-0 -11.455,11.55 -22.246,13.671c-13.946,2.691 -22.634,19.67 -22.429,28.287l-27.188,-0l-0.546,0.033l0,-128.762l-17.025,17.891l0,123.217l89.496,0l-0.062,-54.337Z" style="fill:#231f20;fill-rule:nonzero;"/><path d="M548.513,155.958l-0,-128.529l-17.009,17.863l0,123.012l63.575,0l0.088,-53.8l-14.313,9.883l-0.012,31.571l-32.329,0Z" style="fill:#231f20;fill-rule:nonzero;"/><path d="M1310.68,155.958c0.059,-3.808 4.605,-9.904 8.488,-11.425c3.741,-1.45 8.8,-4.591 8.8,-4.591l0.054,16.016l-17.342,0Zm-94.979,0c0.075,-3.808 4.638,-9.904 8.521,-11.425c3.729,-1.45 8.804,-4.591 8.804,-4.591l0.059,16.016l-17.384,0Zm125.442,-41.754c-0,0 -11.463,11.55 -22.279,13.671c-13.917,2.7 -22.246,19.662 -22.442,28.083l-9.854,0l0.142,-39.521l-15.175,10.971l-0,28.55l-25.309,0l-0.075,-41.754c0,0 -11.508,11.121 -22.241,13.671c-14.717,3.442 -22.396,19.662 -22.438,28.083l-0.104,12.346l139.8,0l-0.025,-54.1Z" style="fill:#231f20;fill-rule:nonzero;"/><path d="M1710.12,155.958c0.108,-3.825 4.642,-9.904 8.55,-11.425c3.763,-1.45 8.775,-4.616 8.775,-4.616l0.075,16.041l-17.4,0Zm-122.421,0c0.092,-3.825 4.629,-9.904 8.496,-11.425c3.754,-1.45 8.833,-4.616 8.833,-4.616l0.017,16.041l-17.346,0Zm152.917,-41.775c-0,0 -11.429,11.571 -22.263,13.692c-13.937,2.7 -22.208,19.662 -22.437,28.083l-36.229,0c-5.48,-0.77 -6.192,-0.75 -9.521,-3.166c-3.279,-2.375 -3.613,-3.896 -3.613,-10.059c0,-5.362 -0.579,-9.621 3.892,-11.85c3.058,-1.545 2.8,-1.545 8.95,-2.271l26.15,0l0,-13.974l-38.017,-0c-4.341,-0 -7.975,2.262 -11.2,5.274c-2.345,2.167 -3.762,4.942 -4.658,10.363c-0.704,4.283 -0.592,14.575 0.562,18.775c1.759,6.138 2.905,5.554 5.4,6.908l-19.42,0l-0.08,-41.775c0,0 -11.487,11.142 -22.216,13.692c-14.742,3.442 -22.4,19.662 -22.442,28.083l-0.1,12.346l167.292,0l-0.05,-54.121Z" style="fill:#231f20;fill-rule:nonzero;"/><path d="M1835.38,391.929c1.583,-5.1 5.171,0.058 8.05,3.167c-0,-0 -9.712,1.921 -8.05,-3.167Zm40.992,-21.246c-1.196,-0.333 -14.809,-23.283 -14.809,-23.283c-5.996,13.925 -3.491,18.446 -3.491,18.446c16.658,20.85 -0.242,26.808 -0.242,26.808c-0,0 -2.183,-6.667 -12.004,-12.875c-9.888,-6.233 -13.313,0.109 -16.113,14.154c-2.808,14.029 4.109,13.475 4.109,13.475l18.875,0.196c6.583,3.792 -0.65,10.538 -0.65,10.538c-0,-0 -7.271,10.487 -34.03,23.516c-26.812,13.013 -25.683,-18.991 -25.683,-18.991l-4.112,-7.479c-3.488,22.42 9.466,53.87 44.666,33.404c35.254,-20.417 28.471,-44.909 28.471,-44.909c17.808,-11.754 11.379,-30.658 11.379,-30.658c0,-0 4.863,-1.962 3.634,-2.342Z" style="fill:#231f20;fill-rule:nonzero;"/><path d="M1889.67,435.704l-8.054,-6.05l-6.209,5.888l8.238,6.225l6.025,-6.063Z" style="fill:#231f20;fill-rule:nonzero;"/><path d="M1874.82,435.542l-7.996,-6.025l-6.238,5.916l8.188,6.196l6.046,-6.087Z" style="fill:#231f20;fill-rule:nonzero;"/><path d="M1771.05,440.213l-8.025,-6.05l-6.167,5.87l8.154,6.217l6.038,-6.037Z" style="fill:#231f20;fill-rule:nonzero;"/><path d="M1807.91,325.192l-10.424,-7.83l-8.025,7.659l10.612,8.029l7.837,-7.858Z" style="fill:#231f20;fill-rule:nonzero;"/><path d="M1717.71,438.788l-10.429,-7.863l-8.012,7.658l10.625,8.034l7.816,-7.829Z" style="fill:#231f20;fill-rule:nonzero;"/><path d="M1206.7,337.854l-10.429,-7.796l-7.988,7.65l10.579,8.046l7.838,-7.9Z" style="fill:#231f20;fill-rule:nonzero;"/><path d="M1025.21,429.121l-10.412,-7.829l-7.988,7.65l10.596,8.029l7.804,-7.85Z" style="fill:#231f20;fill-rule:nonzero;"/><path d="M1756.25,440.033l-8.075,-5.991l-6.196,5.866l8.258,6.213l6.013,-6.088Z" style="fill:#231f20;fill-rule:nonzero;"/><path d="M1631.32,443.638l-8.025,-6.03l-6.217,5.9l8.238,6.209l6.004,-6.079Z" style="fill:#231f20;fill-rule:nonzero;"/><path d="M1616.49,443.508l-8.046,-6.041l-6.204,5.871l8.208,6.216l6.042,-6.046Z" style="fill:#231f20;fill-rule:nonzero;"/><path d="M1588.17,442.546l-8.042,-6.029l-6.208,5.925l8.2,6.15l6.05,-6.046Z" style="fill:#231f20;fill-rule:nonzero;"/><path d="M1573.34,442.408l-8.05,-6.054l-6.171,5.917l8.17,6.225l6.051,-6.088Z" style="fill:#231f20;fill-rule:nonzero;"/><path d="M1574.05,327.992l-8.063,-6.042l-6.158,5.883l8.183,6.259l6.038,-6.1Z" style="fill:#231f20;fill-rule:nonzero;"/><path d="M1559.19,327.833l-8.049,-6.02l-6.176,5.9l8.205,6.199l6.02,-6.079Z" style="fill:#231f20;fill-rule:nonzero;"/><path d="M1161.43,340.05l-8.075,-6.004l-6.187,5.883l8.229,6.208l6.033,-6.087Z" style="fill:#231f20;fill-rule:nonzero;"/><path d="M1146.6,339.929l-8.083,-6.037l-6.18,5.883l8.213,6.233l6.05,-6.079Z" style="fill:#231f20;fill-rule:nonzero;"/><path d="M996.271,343.608l-9.388,-7.05l-7.229,6.917l9.588,7.213l7.029,-7.08Z" style="fill:#231f20;fill-rule:nonzero;"/><path d="M985.879,327.654l-9.358,-7.021l-7.263,6.884l9.575,7.229l7.046,-7.092Z" style="fill:#231f20;fill-rule:nonzero;"/><path d="M978.963,343.45l-9.43,-7.062l-7.208,6.916l9.596,7.213l7.042,-7.067Z" style="fill:#231f20;fill-rule:nonzero;"/><path d="M759.487,440.496l-8.045,-6.029l-6.2,5.908l8.212,6.208l6.033,-6.087Z" style="fill:#231f20;fill-rule:nonzero;"/><path d="M744.654,440.375l-8.046,-6.054l-6.15,5.892l8.175,6.199l6.021,-6.037Z" style="fill:#231f20;fill-rule:nonzero;"/><path d="M582.358,436.767l-8.058,-6.038l-6.221,5.917l8.217,6.233l6.062,-6.112Z" style="fill:#231f20;fill-rule:nonzero;"/><path d="M567.508,436.621l-8.062,-6.013l-6.196,5.9l8.217,6.2l6.041,-6.087Z" style="fill:#231f20;fill-rule:nonzero;"/><path d="M1812.05,348.296c0,-0 16.346,21.937 6.309,38.2c-9.971,16.267 -27.038,10.983 -30.867,-0.654c-0,-0 -19.017,18.237 -37.604,18.375c-0,-0 -20.663,0.833 -24.779,-15.192c-4.067,-16.079 -3.413,-21.5 -3.413,-21.5c0,-0 -7.562,9.121 -11.762,10.45c-0,0 7.941,19.504 -5.659,32.633c0,0 -34.692,32.704 -47.937,35.642c-0,-0 -12.275,2.271 -18.255,-0.512c0,-0 43.026,-23.105 61.771,-44.026c0,0 15.375,-11.791 -2.262,-21.475c-0,0 -3.254,0.334 -2.575,-9.554c0.629,-9.887 2.396,-5.42 3.6,-4.379c1.162,0.984 10.141,11.304 25.579,-12.704c0,0 -0.275,36.408 26.125,35.329c0,0 27.571,0.958 40.883,-15.621c0,0 1.025,23.846 17.271,12.063c16.267,-11.75 4.358,-18.333 1.396,-21.763c-2.979,-3.45 -1.758,-5.8 2.179,-15.312Z" style="fill:#231f20;fill-rule:nonzero;"/><path d="M1753.43,331.05c0,-0 -14.479,14.508 -3.162,24.171c-0,-0 2.704,2.375 7.2,-4.379c-0,-0 2.766,-4.063 -4.679,-9.255c-0,0 -3.288,-2.05 0.641,-10.537Z" style="fill:#231f20;fill-rule:nonzero;"/><path d="M1667.12,287.317c-0,-0 -14.763,17.25 -3.279,28.695c-0,0 2.699,2.83 7.399,-5.195c0,-0 2.755,-4.825 -4.829,-10.959c0,0 -3.329,-2.45 0.709,-12.541Z" style="fill:#231f20;fill-rule:nonzero;"/><path d="M1362.03,423.771c0,-0 -11.016,12.891 -2.404,21.396c-0,-0 2.038,2.141 5.512,-3.875c0,-0 2.067,-3.604 -3.629,-8.184c0,0 -2.425,-1.825 0.521,-9.337Z" style="fill:#231f20;fill-rule:nonzero;"/><path d="M1381.97,292.492c-0,-0 -8.305,12.883 -1.879,21.45c-0,-0 1.549,2.116 4.166,-3.888c0,0 1.546,-3.637 -2.683,-8.179c-0,0 -1.85,-1.825 0.396,-9.383Z" style="fill:#231f20;fill-rule:nonzero;"/><path d="M1202.73,428.867c0,-0 -11.041,12.825 -2.458,21.362c0,0 2.05,2.142 5.521,-3.858c-0,-0 2.096,-3.579 -3.588,-8.204c0,-0 -2.5,-1.813 0.525,-9.3Z" style="fill:#231f20;fill-rule:nonzero;"/><path d="M867.15,422.25c-0,0 -12.404,11.638 -2.733,19.379c-0,0 2.337,1.958 6.17,-3.5c0,0 2.338,-3.258 -4.033,-7.433c0,-0 -2.8,-1.617 0.596,-8.446Z" style="fill:#231f20;fill-rule:nonzero;"/><path d="M1838.74,303.325c-0,0 -5.613,-6.171 -0.617,-11.217c4.983,-5.087 13.025,2.663 6.221,14.6c-0,0 -8.454,15.496 -20.125,12.346c-0,0 12.867,-5.5 14.521,-15.729Z" style="fill:#231f20;fill-rule:nonzero;"/><path d="M1504.24,298.017c0,-0 -7.966,2.654 -9.325,2.125c-1.295,-0.521 -6.95,-6.871 2.976,-12.884c-0,0 9.199,-3.15 13.462,4.217c-0,-0 4.308,7.675 -4.204,15.071c-8.446,7.437 -17.075,2.596 -17.075,2.596c-0,-0 13.066,-0.025 14.166,-11.125Z" style="fill:#231f20;fill-rule:nonzero;"/><path d="M1765.73,294.387c-0,0 -7.996,2.646 -9.325,2.101c-1.362,-0.496 -7.004,-6.855 2.925,-12.892c0,-0 9.183,-3.142 13.467,4.217c-0,-0 4.283,7.72 -4.163,15.112c-8.412,7.396 -17.071,2.538 -17.071,2.538c0,-0 13.021,-0.034 14.167,-11.076Z" style="fill:#231f20;fill-rule:nonzero;"/><path d="M1421.51,301.337c0,0 -7.937,2.638 -9.3,2.084c-1.366,-0.496 -7.029,-6.829 2.909,-12.85c-0,-0 9.179,-3.167 13.479,4.2c0,-0 4.288,7.704 -4.192,15.137c-8.42,7.379 -17.1,2.53 -17.1,2.53c0,-0 13.05,-0.067 14.204,-11.101Z" style="fill:#231f20;fill-rule:nonzero;"/><path d="M1258.37,301.158c-0,0 -7.95,2.655 -9.271,2.1c-1.371,-0.512 -7.025,-6.854 2.908,-12.9c0,0 9.179,-3.15 13.488,4.2c-0,0 4.291,7.734 -4.179,15.121c-8.442,7.446 -17.1,2.554 -17.1,2.554c-0,0 13.037,-0.033 14.154,-11.075Z" style="fill:#231f20;fill-rule:nonzero;"/><path d="M1190.06,300.508c0,0 -7.991,2.638 -9.333,2.117c-1.35,-0.538 -6.987,-6.887 2.971,-12.892c0,0 9.121,-3.166 13.442,4.217c-0,0 4.283,7.671 -4.163,15.062c-8.441,7.463 -17.108,2.605 -17.108,2.605c-0,-0 13.021,-0.05 14.191,-11.109Z" style="fill:#231f20;fill-rule:nonzero;"/><path d="M963.367,303.813c-0,-0 -7.946,2.604 -9.309,2.083c-1.333,-0.521 -6.991,-6.854 2.959,-12.9c-0,-0 9.154,-3.125 13.45,4.242c-0,-0 4.275,7.687 -4.159,15.104c-8.437,7.412 -17.1,2.562 -17.1,2.562c0,0 13.034,-0.083 14.159,-11.091Z" style="fill:#231f20;fill-rule:nonzero;"/><path d="M725.087,302.842c0,-0 -8.845,2.954 -10.362,2.37c-1.5,-0.595 -7.783,-7.649 3.287,-14.366c0,-0 10.2,-3.479 14.98,4.687c-0,0 4.779,8.571 -4.638,16.834c-9.396,8.233 -19.041,2.829 -19.041,2.829c-0,-0 14.537,-0.054 15.774,-12.354Z" style="fill:#231f20;fill-rule:nonzero;"/><path d="M1727.69,292.55l-37.109,27.758l2.192,-7.075l37.104,-27.787l-2.187,7.104Z" style="fill:#231f20;fill-rule:nonzero;"/><path d="M1164.62,296.404l-37.042,27.767l2.121,-7.088l37.096,-27.783l-2.175,7.104Z" style="fill:#231f20;fill-rule:nonzero;"/><path d="M928.833,307.717l-49.733,37.175l2.908,-9.504l49.738,-37.242l-2.913,9.571Z" style="fill:#231f20;fill-rule:nonzero;"/><path d="M593.262,311.004l-45.72,28.533l3.141,-8.079l45.713,-28.533l-3.134,8.079Z" style="fill:#231f20;fill-rule:nonzero;"/><path d="M701.15,430.875l-42.133,20.337l4.258,-8.745l42.121,-20.38l-4.246,8.788Z" style="fill:#231f20;fill-rule:nonzero;"/><path d="M1673.56,410.687l-37.4,18.83l3.2,-6.625l37.413,-18.788l-3.213,6.583Z" style="fill:#231f20;fill-rule:nonzero;"/><path d="M1813.61,409.8l-15.496,11.621l1.138,-4.5l15.512,-11.596l-1.154,4.475Z" style="fill:#231f20;fill-rule:nonzero;"/><path d="M1098.63,300.304l-20.77,15.521l1.562,-6.017l20.717,-15.533l-1.509,6.029Z" style="fill:#231f20;fill-rule:nonzero;"/><path d="M1623.96,295.354c0,0 -2.737,-5.604 -5.591,-1.017c-1.696,2.713 -2.15,4.259 -2.905,6.65c-0.549,1.638 -0.924,4.388 -1.57,8.025c-0,0 -5.884,-18.024 -13.784,-21.825c-7.879,-3.779 -4.571,2.759 -4.32,4.288c0.216,1.521 2.758,8.821 6.062,8.429c4.146,-0.437 6.954,5.146 6.921,10.15c-0.046,7.704 2.325,7.233 5.9,5.696c1.821,-0.767 2.208,-7.112 3.466,-12.558c0.663,-2.742 1.196,-4.467 2.08,-5.759c2.416,-3.37 2.941,-1.9 3.741,-2.079Z" style="fill:#231f20;fill-rule:nonzero;"/><path d="M1438.35,338.563c0,-0 -2.737,-5.626 -5.596,-1.034c-1.671,2.692 -2.133,4.229 -2.887,6.621c-0.567,1.679 -0.942,4.446 -1.513,8.075c0,0 -5.95,-18.058 -13.854,-21.842c-7.896,-3.779 -4.558,2.742 -4.342,4.288c0.196,1.537 2.784,8.804 6.109,8.446c4.183,-0.471 6.933,5.12 6.908,10.108c-0.067,7.733 2.304,7.242 5.925,5.729c1.788,-0.762 2.192,-7.137 3.459,-12.587c0.608,-2.704 1.124,-4.471 2.024,-5.754c2.434,-3.396 2.984,-1.871 3.767,-2.05Z" style="fill:#231f20;fill-rule:nonzero;"/><path d="M1180.9,427.792c-0,-0 -2.45,-5.029 -4.996,-0.863c-1.5,2.4 -1.929,3.746 -2.571,5.925c-0.466,1.467 -0.85,3.946 -1.387,7.179c-0,0 -5.313,-16.12 -12.392,-19.533c-7,-3.375 -4.042,2.458 -3.862,3.833c0.2,1.375 2.487,7.863 5.491,7.554c3.663,-0.408 6.184,4.563 6.134,9.055c-0.042,6.941 2.075,6.471 5.304,5.137c1.633,-0.675 1.95,-6.387 3.087,-11.229c0.584,-2.483 1.005,-4.063 1.834,-5.162c2.175,-3.025 2.65,-1.692 3.358,-1.896Z" style="fill:#231f20;fill-rule:nonzero;"/><path d="M609.479,341.467c0,-0 -2.446,-5.03 -4.996,-0.896c-1.466,2.425 -1.866,3.808 -2.595,5.916c-0.43,1.48 -0.788,3.988 -1.346,7.209c-0,-0 -5.325,-16.159 -12.363,-19.529c-7.083,-3.396 -4.079,2.466 -3.908,3.825c0.221,1.341 2.462,7.862 5.467,7.541c3.716,-0.37 6.241,4.584 6.208,9.092c-0.054,6.892 2.029,6.413 5.233,5.121c1.629,-0.708 2.004,-6.408 3.109,-11.259c0.57,-2.441 1.058,-4.025 1.837,-5.158c2.158,-3.042 2.646,-1.683 3.354,-1.862Z" style="fill:#231f20;fill-rule:nonzero;"/><path d="M1035.68,301.575c0,-0 -2.596,-5.379 -5.316,-0.946c-1.625,2.588 -2.067,4.054 -2.788,6.317c-0.475,1.6 -0.85,4.254 -1.458,7.729c-0,-0 -5.65,-17.267 -13.225,-20.888c-7.546,-3.633 -4.33,2.617 -4.138,4.05c0.213,1.459 2.654,8.434 5.829,8.059c3.963,-0.4 6.642,4.954 6.625,9.733c-0.05,7.371 2.154,6.917 5.609,5.492c1.75,-0.717 2.116,-6.829 3.321,-12.004c0.608,-2.646 1.129,-4.346 1.991,-5.525c2.296,-3.254 2.829,-1.8 3.55,-2.017Z" style="fill:#231f20;fill-rule:nonzero;"/><path d="M667.075,312.233c0,0 -3.042,-6.241 -6.208,-1.095c-1.825,2.975 -2.375,4.687 -3.2,7.337c-0.617,1.833 -1.23,6.438 -1.913,10.45c0,0 -1.683,-19.117 -6.312,-27.133c-3.534,-6.192 -5.142,-2.238 -4.934,-0.55c0.242,1.683 -1.312,14.696 2.359,14.296c4.641,-0.463 4.683,7.008 4.641,12.583c-0.066,8.583 1.396,8.779 5.275,6.812c1.654,-0.858 2.463,-7.92 3.859,-13.975c0.687,-3.058 1.275,-5.02 2.266,-6.404c2.692,-3.791 3.309,-2.116 4.167,-2.321Z" style="fill:#231f20;fill-rule:nonzero;"/><path d="M1511.08,362.754c0,0 -1.679,-3.512 -3.475,-0.642c-1.062,1.692 -1.341,2.646 -1.791,4.125c-0.346,1.051 -0.625,2.792 -1.017,5.08c0,-0 -3.667,-11.338 -8.625,-13.671c-4.933,-2.388 -2.85,1.708 -2.704,2.667c0.146,0.945 1.704,5.533 3.8,5.283c2.625,-0.279 4.367,3.196 4.35,6.354c-0.054,4.833 1.458,4.508 3.683,3.575c1.125,-0.483 1.375,-4.462 2.167,-7.888c0.408,-1.666 0.737,-2.783 1.262,-3.595c1.525,-2.092 1.875,-1.188 2.35,-1.288Z" style="fill:#231f20;fill-rule:nonzero;"/><path d="M1478.23,434c-0,-0 -4.471,-4.638 -5.775,-10.254c0,-0 -4.021,2.092 -4.858,5.387c-0.292,1.271 0.395,2.696 1.196,4.267c2.458,4.971 3.895,6.821 6.25,3.117c2.566,-4.021 3.187,-2.517 3.187,-2.517Z" style="fill:#231f20;fill-rule:nonzero;"/><path d="M1450.01,418.079c0,0 4.084,8.558 -2.221,12.904c0,0 -5.116,3.359 -8.654,-0.766c0,-0 -5.691,7.95 -13.762,0.962c-0,0 -3.338,-0.008 -7.896,6.988c0,-0 -9.408,14.925 -34.854,8.879c-0,-0 26.129,-1.446 37.604,-16.675c0,-0 5,-6.242 14.108,-2.084c2.138,0.026 2.663,-1.537 3.9,-3.854c1.417,-1.712 2.142,-1.962 7.23,-0.954c0.637,-0.058 3.399,0.775 4.545,-5.4Z" style="fill:#231f20;fill-rule:nonzero;"/><path d="M932.996,423.213c-0,-0 3.467,7.258 -1.871,10.966c0,0 -4.342,2.884 -7.354,-0.625c-0,0 -4.867,6.729 -11.696,0.829c-0,0 -2.85,-0.041 -6.742,5.934c0,-0 -8.004,12.654 -29.616,7.52c-0,0 22.195,-1.229 31.979,-14.154c-0,0 4.237,-5.337 11.975,-1.75c1.8,0 2.233,-1.358 3.346,-3.333c1.175,-1.408 1.825,-1.646 6.108,-0.808c0.596,-0.05 2.908,0.658 3.871,-4.579Z" style="fill:#231f20;fill-rule:nonzero;"/><path d="M1480.83,324.708c0,0 -1.308,-9.725 -14.558,-35.641c-0,-0 -6.588,7.104 -5.246,10.441c-0,0 2.587,8.209 4.371,12.034c-0,-0 6.112,58.041 6.033,66.945c-0,0 0.233,27.109 -2.904,33.455c-0,-0 12.362,-7.046 8.196,-49.734c-4.171,-42.658 -3.846,-43.066 -3.846,-43.066c-0,-0 4.829,4.508 7.954,5.566Z" style="fill:#231f20;fill-rule:nonzero;"/><path d="M1326.62,288.771c-0,-0 10.033,14.154 3.146,34.766c-0,0 -2.6,-17.408 -7.996,-20.508c-5.359,-3.125 4.85,-14.258 4.85,-14.258Z" style="fill:#231f20;fill-rule:nonzero;"/><path d="M878.892,290.646c-0,-0 6.204,8.746 1.908,21.491c-0,0 -1.571,-10.749 -4.883,-12.67c-3.363,-1.946 2.975,-8.821 2.975,-8.821Z" style="fill:#231f20;fill-rule:nonzero;"/><path d="M1263.18,378.6l2.083,-3.371c0,0 6.663,8.529 -0.349,17.142c-7.775,9.562 -13.896,-8.317 -13.896,-8.317c-0,0 -4.859,-19.442 10.8,-37.396c-0,0 -8.267,12.646 -6.4,28.092c0.516,4.108 2.062,5.658 4.4,7.412c-0,0 8.12,5.276 3.362,-3.562Z" style="fill:#231f20;fill-rule:nonzero;"/><path d="M1119.94,441.792l1.383,-2.055c-0,0 4.533,5.105 -0.25,10.246c-5.225,5.692 -9.404,-4.954 -9.404,-4.954c-0,0 -3.321,-11.579 7.279,-22.329c-0,-0 -5.609,7.542 -4.304,16.746c0.375,2.45 1.441,3.379 2.979,4.467c-0,-0 5.537,3.133 2.317,-2.121Z" style="fill:#231f20;fill-rule:nonzero;"/><path d="M805.854,332.467l1.658,2.921c0,-0 0.401,6.974 -3.354,8.65c-6.92,3.083 -10.35,-2.492 -12.558,-6.592c-2.183,-4.092 1.975,-23.308 9.537,-32.234c0,0 -6.566,16.08 -5.158,26.138c0.379,2.417 2.192,10.1 7.008,8.092c0,-0 3.28,-1.346 2.867,-6.975Z" style="fill:#231f20;fill-rule:nonzero;"/><path d="M1044.91,421.704c0,0 -0.645,7.846 -2.112,8.154c-1.509,0.317 -3.888,-2.741 -3.888,-2.741c0,-0 -0.987,10.179 3.825,10.929c4.775,0.742 5.467,-12.55 2.175,-16.342Z" style="fill:#231f20;fill-rule:nonzero;"/><path d="M979.438,417.517c-0,-0 -9.15,4.333 -0.646,7.491c-0,0 -8.325,12.917 -2.963,15.813c6.421,3.458 11.004,-5.346 11.004,-5.346c0,-0 -7.904,5.85 -8.841,1.629c-1.03,-4.446 1.258,-12.266 4.55,-13.95c-0,0 -9.45,1.146 -3.104,-5.637Z" style="fill:#231f20;fill-rule:nonzero;"/><path d="M921.471,341.758c-0,0 -0.513,-6.85 2.529,-5.729c3.9,1.45 5.354,5.154 3.537,6.421c-1.787,1.271 -4.37,1 -4.833,1.733c-0.483,0.775 -0.633,6.634 0.475,10.988c1.108,4.354 1.067,8.437 -0.992,12.254c0,-0 0.284,-9.429 -1.412,-17.888c-1.762,-8.445 0.696,-7.779 0.696,-7.779Z" style="fill:#231f20;fill-rule:nonzero;"/><path d="M815.575,420.421c0,-0 -2.05,-10.529 2.738,-8.496c6.174,2.629 9.666,8.642 6.329,10.967c-2.721,1.904 -6.913,0.546 -7.763,1.296c-0.837,0.749 -1.787,3.141 -0.225,8.154c1.8,5.641 0.888,11.041 -2.958,14.804c-0,-0 1.658,-8.358 -0.967,-18.025c-2.7,-9.963 2.846,-8.7 2.846,-8.7Z" style="fill:#231f20;fill-rule:nonzero;"/><path d="M1677.54,358.246c-0,-0 13.237,12.387 2.329,31.375c-10.942,18.95 -19.213,3.196 -19.213,3.196c0,-0 -9.696,11.508 -14.75,7.05c0,-0 -2.683,-2.08 -8.925,-8.288c0,0 -6.021,3.021 -8.729,6.029c-0,0 -15.442,14.188 -31.217,1.1c0,0 -2.975,-3.45 -7.112,-9.966c-0,-0 -13.35,21.337 -22.871,9c0,-0 -6.529,-7.888 -12.454,-17.854c-0,-0 -3.783,-9.221 -12.896,1.583c-0,-0 -14.754,11.108 -7.608,15.954c-0,-0 12.508,8.283 24.216,11.458c0,0 21.825,8.388 -9.875,34.975c0,0 -57.921,43.742 -63.658,-27.841c0,-0 0.746,-18.384 9.508,-26.771l-0.958,8.154c0,-0 -6.737,15.542 -0.221,29.579c6.492,14.029 12.367,27.725 48.483,10.675c0,0 11.134,-7.012 13.58,-12.791c2.454,-5.784 -10.146,-6.234 -10.146,-6.234c-0,0 -22.442,-3.612 -19.617,-18.921c2.779,-15.291 3.738,-19.025 19.109,-33.862c-0,-0 12.729,-12.467 19.416,13.129c0,0 4.079,14.004 14.608,9.008c0,0 12.034,-3.304 5.53,-19.05c-0,0 -7.338,-20.158 -6.709,-22.879c0.621,-2.683 5.163,-9.462 5.163,-9.462c-0,-0 8.7,40.916 22.712,51.308c0,0 17.925,8.312 35.134,-9.925c-0,0 1.4,10.954 7.691,11.342c0,-0 9.9,0.425 17.246,-18.238c0,0 -3.446,18.717 3.779,16.05c0,0 15.325,-3.629 7.267,-9.467c0,0 -5.45,-3.4 -3.15,-9.249c-0,-0 3.192,-5.821 4.338,-10.167Z" style="fill:#231f20;fill-rule:nonzero;"/><path d="M1459.07,366.058c-0,0 12.179,15.463 1.541,33.717c0,-0 -9.7,15.317 -17.637,-3.125c-0,-0 -9.529,11.921 -15.588,7.737c0,0 -5.158,-1.57 -8.483,-8.241c0,-0 -27.113,17.617 -37.425,14.208c-0,0 -8.317,0.146 -18.963,-19.85c0,0 -1.645,37.054 -25.754,48.292c0,-0 -11.95,4.979 -24.966,0.016c-0,0 41.283,-14.187 45.929,-39.679c4.7,-25.483 -3.988,-72.308 -5.063,-75.4c-1.079,-3.041 -0.862,-4.091 1.429,-10.691c2.317,-6.65 5.726,-10.159 5.726,-10.159c-0,0 2.933,54.942 5.766,67.496c0,0 8.471,40.146 39.184,24.854l19.379,-11.57c-0.584,4.329 -2.955,15.354 6.041,12.312c8.1,-2.733 16.95,-15.375 16.95,-15.375c0,-0 -1.458,14.275 3.084,13.529c4.462,-0.692 13.062,-5.2 5.687,-13.208c0,-0 -2.692,-2.588 -0.833,-6.4c1.775,-3.792 3.996,-8.463 3.996,-8.463Z" style="fill:#231f20;fill-rule:nonzero;"/><path d="M1291.17,288.846c-0,-0 15.558,25.887 17.916,28.612c2.263,2.596 -8.216,-1.596 -8.216,-1.596c-0,0 6.146,19.809 24.896,37.696c18.754,17.88 27.308,37.371 26.891,50.621c0,0 -18.646,-32.171 -32.637,-42.854c-0,0 -15.821,-12.054 -25.146,-48.954l-5.017,-6.492c0,0 -4.212,-2.066 1.313,-17.033Z" style="fill:#231f20;fill-rule:nonzero;"/><path d="M1312.78,395.379c0,0 -1.312,-6.8 0.975,-8.012c1.35,-0.717 9.417,3.937 9.821,6.858c0.525,3.721 -3.621,2.254 -10.796,1.154Zm14.388,-10.146c-2.596,-3.379 -4.283,-3.783 -7.754,-5.616c-13.9,-7.184 -12.021,15.975 -12.021,15.975c-0,-0 0.362,1.375 -1.592,2.016c-9.929,3.388 -32.871,33.163 -32.871,33.163c-16.112,19.004 -25.687,8.425 -25.687,8.425c-14.692,-21.346 14.462,-41.454 14.462,-41.454c-34.745,16.754 -18.121,50.633 -18.121,50.633c14.913,14.962 39.084,-12.525 43.201,-18.092c4.099,-5.608 12.504,-19.304 24.562,-25.454c1.604,-0.887 1.388,-1.116 5.375,-1.766c0.387,-0.221 8.475,0.454 11.763,-2.171c5.683,-4.496 0.983,-12.65 -1.317,-15.659Z" style="fill:#231f20;fill-rule:nonzero;"/><path d="M1227.24,317.458c-0,0 2.304,-8.683 -8.105,-26.375c0,0 -5.433,7.063 -4.587,10.159c0.842,3.075 1.737,4.587 1.737,4.587c0,0 -2.02,34.221 1.376,53.433c3.287,18.246 6.024,43.963 2.562,54.925c0,0 13.613,-13.654 4.917,-59.674c-0,-0 -3.759,-33.8 -2.571,-41.709c-0,0 2.233,1.846 4.671,4.654Z" style="fill:#231f20;fill-rule:nonzero;"/><path d="M1070.78,315.938c-0,-0 2.271,-8.625 -8.146,-26.367c0,-0 -5.462,7.112 -4.529,10.196c0.85,3.05 1.729,4.6 1.729,4.6c0,-0 -2.058,34.225 1.388,53.391c3.283,18.271 5.958,44.013 2.529,54.942c-0,0 13.579,-13.625 4.958,-59.708c0,-0 -3.821,-33.742 -2.625,-41.667c0,-0 2.242,1.821 4.696,4.613Z" style="fill:#231f20;fill-rule:nonzero;"/><path d="M1206.63,367.058c0,0 11.571,15.454 3.346,32.417c-8.208,16.925 -22.825,5.558 -22.825,5.558c0,0 -4.375,-5.762 -5.216,-11.891c-0,-0 -11.159,17.529 -35.876,16.254c-24.733,-1.271 -32.749,-14.342 -32.337,-35.8c0.413,-21.446 -4.275,-56.471 -8.042,-66.742c0,0 -3.141,-3.596 3.963,-16.583c-0,-0 9.508,17.754 9.129,68.275c0,-0 -0.504,36.808 20.867,38.267c4.52,0.341 9.071,0.375 12.837,0.129c14.888,-0.992 23.925,-5.209 35.2,-16.521c0,-0 -7.579,19.079 9.271,18.475c16.863,-0.592 7.546,-16.042 4.862,-17.821c-2.7,-1.808 0.055,-6.383 4.821,-14.017Z" style="fill:#231f20;fill-rule:nonzero;"/><path d="M1090.48,356.254c0,0 12.913,16.471 13.725,25.196l-2.221,-0.313c0,0 11.763,18.526 -7.712,41.301c0,-0 -19.287,20.783 -33.962,30.575c-0,-0 -11.538,4.499 -26.571,1.512c-0,-0 56.395,-23.429 66.3,-52.725c-0,-0 4.495,-4.533 -9.092,-18.733c0,-0 -5.338,-5.646 -3.733,-13.296c1.616,-7.625 1.404,-6.883 3.266,-13.517Z" style="fill:#231f20;fill-rule:nonzero;"/><path d="M982.833,375.946c5.209,-1.75 9.913,-1.717 11.496,-1.959c1.571,-0.254 6.279,0.063 3.346,3.351c-2.967,3.304 -5.908,4.804 -5.908,4.804c-4.625,-6.196 -8.934,-6.196 -8.934,-6.196Zm44.692,-22.842c-8.85,13.954 -3.029,17.113 -3.029,17.113c18.746,21.362 -5.192,30.316 -13.713,31.725c-8.583,1.504 -15.654,-14.421 -15.654,-14.421c0,-0 8.604,-6.554 9.496,-6.813c0.887,-0.237 16.312,-15.912 -8.421,-15.904c-24.754,0.05 -29.737,7.871 -34.092,14.233c-4.299,6.334 3.113,5.667 3.113,5.667c14.183,-1.929 17.1,3.979 17.1,3.979l-0,0.771c-19.775,27.167 -33.521,-1.087 -33.521,-1.087c-12.558,21.066 -19.391,2.116 -19.391,2.116c-21.467,24.071 -23.976,-2.533 -23.976,-2.533c-9.987,8.838 -22.6,9.529 -22.6,9.529c0,0 -17.549,-1.504 -20.999,-16.029c-3.492,-14.617 -1.801,-34.004 -1.801,-34.004c2.309,-35.488 0.405,-52.888 0.405,-52.888c-5.9,8.634 -10.654,15.496 -9.354,20.584c1.304,5.133 0.695,28.637 0.695,28.637c-2.379,40.842 11.013,58.079 11.013,58.079c19.171,23.413 37.117,-1.683 37.117,-1.683c1.779,3.817 5.141,6.671 5.141,6.671c8.663,6.212 20.288,-5.404 20.288,-5.404c-0,-0 2.637,5.9 8.683,6.445c6.1,0.596 11.767,-8.02 11.767,-8.02c6.454,11.016 17,10.35 17,10.35c9.904,0.366 25.12,-17.4 25.12,-17.4c10.967,32.82 36.067,14.925 36.067,14.925c27.846,-24.513 3.546,-54.638 3.546,-54.638Z" style="fill:#231f20;fill-rule:nonzero;"/><path d="M820.587,392.371c-4.083,0.121 -12.583,-4.379 -12.583,-4.379c0,-0 -2.675,-0.53 4.575,-8.438c0,0 5.4,0.696 10.688,10.146c-0,-0 1.35,2.579 -2.68,2.671Zm-0.137,-24.529c-3.717,-2.042 -10.208,4.354 -10.208,4.354c-6.038,5.996 -6.659,8.7 -9.634,13.258c-2.946,4.554 -11.071,9.104 -17.595,7.771c-6.517,-1.358 -9.867,-4.721 -9.801,-10.833c0.05,-6.121 -2.229,-32.463 -4.204,-43.963c-1.925,-11.512 -2.325,-47.271 -2.325,-47.271c-9.287,8.35 -7.291,14.475 -7.291,14.475c-1.021,17.342 4.608,45.996 4.608,45.996c8.271,34.579 -4.121,37.804 -4.121,37.804c-9.45,2.938 -14.962,-13.933 -14.962,-13.933c-5.684,-21.275 -14.488,-43.825 -14.488,-43.825c-11.391,18.025 -4.721,25.246 -4.721,25.246c9.996,18.979 6.942,38.867 -5.466,40.558c-12.367,1.654 -4.992,-25.079 -4.992,-25.079c-1.104,1.496 -4.396,19.629 -23.537,23.5c-19.159,3.942 -4.817,-22.5 -4.817,-22.5c-7.942,10.375 -17.904,21.817 -35.634,20.596c-17.766,-1.179 -2.741,-25.559 -2.741,-25.559c-24.754,29.663 -49.238,28.425 -49.238,28.425c-30.125,0.438 -18.262,-22.966 -18.262,-22.966c-11.108,12.183 -25.171,23.583 -34.992,19.612c-9.883,-3.921 -6.416,-45.516 -6.416,-45.516c5.2,-31.625 -0.209,-61.304 -0.209,-61.304c-9.533,10.875 -7.762,16.791 -7.762,16.791c4.341,17.913 2.141,39.088 2.141,39.088c-5.808,57.42 2.705,61.596 2.705,61.596c11.104,17.983 32.474,-11.451 32.474,-11.451c2.171,8.692 9.563,14.134 9.563,14.134c19.025,14.737 55.237,-18.104 55.237,-18.104c1.875,15.583 10.646,18.471 10.646,18.471c13.705,2.183 27.05,-11.255 27.05,-11.255c2.188,5.671 7.35,10.33 7.35,10.33c9.592,8.77 23.642,-7.188 23.642,-7.188c1.958,10.979 10.267,11.075 10.267,11.075c15.308,2.183 25.362,-20.929 25.362,-20.929c5.584,6.387 3.775,6.9 12.242,14.654c8.492,7.733 17.996,-3.946 19.158,-4.167c1.121,-0.233 4.217,5.371 10.742,8.009c6.492,2.612 17.825,-8.496 18.941,-10.263c1.138,-1.787 2.805,-0.829 2.805,-0.829c1.475,0.342 16.7,11.05 24.241,2.937c7.542,-8.095 -3.066,-30.225 -5.758,-31.745Z" style="fill:#231f20;fill-rule:nonzero;"/><path d="M531.542,261.308l5.412,0l0,-41.312l-5.412,-0l-0,-10.596l20.133,0l-0,10.596l-5.404,-0l-0,41.312l5.404,0l-0,10.579l-20.133,0l-0,-10.579Z" style="fill:#231f20;fill-rule:nonzero;"/><path d="M553.938,261.308l4.779,0l-0,-41.312l-4.779,-0l-0,-10.596l14.916,0l13.1,39.017l0.113,-0l-0,-28.421l-4.646,-0l-0,-10.596l16.046,0l-0,10.596l-5.029,-0l-0,51.891l-7.992,0l-15.254,-45.933l-0.117,0l-0,35.354l4.475,0l0,10.579l-15.612,0l-0,-10.579Z" style="fill:#231f20;fill-rule:nonzero;"/><path d="M628.483,234.529l-6.208,0l-0,-14.533l-5.354,-0l-0,41.312l5.354,0l-0,10.579l-20.033,0l-0,-10.579l5.362,0l0,-41.312l-5.362,-0l-0,14.533l-6.192,0l0,-25.129l32.433,0l0,25.129Z" style="fill:#231f20;fill-rule:nonzero;"/><path d="M631.867,261.308l4.208,0l0,-41.312l-4.208,-0l-0,-10.596l31.391,0l0,19.779l-6.791,0l-0,-9.183l-11.109,-0l0,14.333l8.963,0l-0,10.596l-8.963,0l0,16.383l11.109,0l-0,-9.304l6.791,0l0,19.883l-31.391,0l-0,-10.579Z" style="fill:#231f20;fill-rule:nonzero;"/><path d="M684.283,234.433c4.138,0 5.367,-4.046 5.367,-7.366c0,-2.571 -0.883,-7.071 -4.363,-7.071l-4.737,-0l0,14.437l3.733,0Zm19.279,37.454l-10.879,0l-8.045,-27.424l-4.088,-0l0,16.845l4.467,0l-0,10.579l-18.659,0l0,-10.579l4.884,0l-0,-41.312l-4.884,-0l0,-10.596l22.238,0c6.933,0 10.729,8.008 10.729,17.487c-0,7.188 -1.992,12.234 -6.154,15.546l5.792,18.875l4.599,0l0,10.579Z" style="fill:#231f20;fill-rule:nonzero;"/><path d="M704.596,261.308l4.783,0l0,-41.312l-4.783,-0l-0,-10.596l14.937,0l13.088,39.017l0.1,-0l-0,-28.421l-4.617,-0l0,-10.596l16.029,0l0,10.596l-5.058,-0l0,51.891l-7.979,0l-15.254,-45.933l-0.13,0l0,35.354l4.5,0l0,10.579l-15.616,0l-0,-10.579Z" style="fill:#231f20;fill-rule:nonzero;"/><path d="M762.171,222.554l-0.104,0l-3.225,18.871l6.208,0l-2.879,-18.871Zm18.925,49.333l-17.359,0l0,-10.579l4.459,0l-1.667,-10.671l-9.25,0l-1.967,10.671l4.784,0l-0,10.579l-15.863,0l0,-10.579l4.471,0l6.988,-41.312l-4.784,-0l0,-10.596l23.292,0l-0,10.596l-4.8,-0l7.475,41.312l4.221,0l-0,10.579Z" style="fill:#231f20;fill-rule:nonzero;"/><path d="M813.487,234.529l-6.216,0l-0,-14.533l-5.363,-0l0,41.312l5.363,0l-0,10.579l-20.029,0l-0,-10.579l5.366,0l0,-41.312l-5.366,-0l-0,14.533l-6.196,0l-0,-25.129l32.441,0l0,25.129Z" style="fill:#231f20;fill-rule:nonzero;"/><path d="M816.2,261.308l5.429,0l0,-41.312l-5.429,-0l0,-10.596l20.163,0l-0,10.596l-5.434,-0l0,41.312l5.434,0l-0,10.579l-20.163,0l0,-10.579Z" style="fill:#231f20;fill-rule:nonzero;"/><path d="M850.117,240.871c-0,12.071 4.012,20.437 9.85,20.437c4.891,0 9.883,-6.446 9.883,-20.804c0,-12.875 -4.308,-20.691 -9.883,-20.691c-4.7,-0 -9.85,5.966 -9.85,21.058Zm29.72,-0.271c0,16.004 -6.37,32.108 -19.87,32.108c-13.388,0 -19.825,-15.916 -19.825,-32.108c-0,-16.65 6.671,-32.208 19.825,-32.208c13.312,-0 19.87,15.65 19.87,32.208Z" style="fill:#231f20;fill-rule:nonzero;"/><path d="M883.525,261.308l4.8,0l-0,-41.312l-4.8,-0l0,-10.596l14.933,0l13.088,39.017l0.096,-0l-0,-28.421l-4.609,-0l0,-10.596l16.038,0l-0,10.596l-5.046,-0l0,51.891l-8.004,0l-15.246,-45.933l-0.096,0l0,35.354l4.458,0l0,10.579l-15.612,0l0,-10.579Z" style="fill:#231f20;fill-rule:nonzero;"/><path d="M941.083,222.554l-0.079,0l-3.212,18.871l6.212,0l-2.921,-18.871Zm18.942,49.333l-17.358,0l-0,-10.579l4.487,0l-1.675,-10.671l-9.246,0l-1.962,10.671l4.779,0l-0,10.579l-15.879,0l-0,-10.579l4.479,0l6.988,-41.312l-4.801,-0l0,-10.596l23.301,0l-0,10.596l-4.784,-0l7.463,41.312l4.208,0l0,10.579Z" style="fill:#231f20;fill-rule:nonzero;"/><path d="M961.45,261.308l5.1,0l0,-41.312l-5.1,-0l0,-10.596l19.617,0l-0,10.596l-5.221,-0l-0,41.312l10.542,0l-0,-19.333l6.991,0l0,29.912l-31.929,0l0,-10.579Z" style="fill:#231f20;fill-rule:nonzero;"/><path d="M1008.23,261.308l5.438,0l-0,-41.312l-5.438,-0l0,-10.596l20.163,0l-0,10.596l-5.405,-0l0,41.312l5.405,0l-0,10.579l-20.163,0l0,-10.579Z" style="fill:#231f20;fill-rule:nonzero;"/><path d="M1031.85,250.637l6.042,0c-0.104,6.705 2.391,11.313 5.479,11.313c2.179,0 3.958,-2.946 3.958,-6.729c0,-11.413 -15.858,-9.833 -15.858,-29.442c-0,-12.137 5.237,-17.008 9.621,-17.008c2.816,-0 5.075,1.916 6.545,5.787l0.113,0l0,-5.158l5.992,0l-0,18.971l-5.992,-0c-0.492,-5.717 -2.425,-9.221 -5.163,-9.221c-2.07,0 -3.516,2.121 -3.516,5.079c-0,10.1 16.446,7.8 16.446,29.9c-0,14.9 -6.559,18.579 -10.342,18.579c-3.158,0 -5.592,-2.008 -7.162,-6.054l-0.121,0l-0,5.233l-6.042,0l-0,-21.25Z" style="fill:#231f20;fill-rule:nonzero;"/><path d="M1058.94,261.308l5.087,0l0,-41.312l-5.087,-0l-0,-10.596l19.604,0l-0,10.596l-5.196,-0l0,41.312l10.513,0l-0,-19.333l7.012,0l-0,29.912l-31.933,0l-0,-10.579Z" style="fill:#231f20;fill-rule:nonzero;"/><path d="M1109.25,222.554l-0.112,0l-3.2,18.871l6.212,0l-2.9,-18.871Zm18.929,49.333l-17.35,0l0,-10.579l4.467,0l-1.65,-10.671l-9.275,0l-1.942,10.671l4.771,0l0,10.579l-15.871,0l0,-10.579l4.471,0l7,-41.312l-4.812,-0l-0,-10.596l23.3,0l-0,10.596l-4.788,-0l7.479,41.312l4.2,0l0,10.579Z" style="fill:#231f20;fill-rule:nonzero;"/><path d="M1129.6,261.308l4.662,0l0,-41.312l-4.662,-0l-0,-10.596l17.896,0l7.862,36.642l8.129,-36.642l18.08,0l-0,10.596l-4.634,-0l0,41.312l4.684,0l-0,10.579l-18.413,0l-0,-10.579l4.713,0l-0,-41.312l-0.855,-0l-11.154,51.891l-3.904,0l-11.146,-51.891l-0.842,-0l0,41.312l4.696,0l0,10.579l-15.112,0l-0,-10.579Z" style="fill:#231f20;fill-rule:nonzero;"/><path d="M1184.09,261.308l5.404,0l-0,-41.312l-5.404,-0l-0,-10.596l20.158,0l-0,10.596l-5.446,-0l0,41.312l5.446,0l-0,10.579l-20.158,0l-0,-10.579Z" style="fill:#231f20;fill-rule:nonzero;"/><path d="M1242.88,209.4l0,21.979l-6.071,0c-0.621,-2.837 -1.725,-6.329 -2.725,-7.712c-2.504,-3.409 -3.812,-4.142 -6.141,-4.142c-6.413,0 -10.609,8.462 -10.609,21.254c0,12.163 4.092,20.529 10.046,20.529c4.946,0 8.604,-5.983 9.917,-16.304l7.062,5.896c-2.616,16.846 -10.612,21.808 -17.658,21.808c-15.283,0 -19.367,-18.475 -19.367,-32.108c0,-19.058 7.634,-32.208 18.767,-32.208c4.379,-0 7.775,1.829 10.708,5.879l0,-4.871l6.071,0Z" style="fill:#231f20;fill-rule:nonzero;"/><path d="M1260.33,209.4l16.629,0l0,10.596l-3.091,-0l-0,31.741c-0,6.159 1.041,10.3 4.604,10.3c3.004,0 4.962,-2.666 4.962,-9.745l0,-32.296l-2.962,-0l-0,-10.596l13.787,0l0,10.596l-4.462,-0l-0,34.962c-0,14.538 -7.275,17.667 -12.329,17.667c-6.988,0 -12.938,-4.696 -12.938,-19.979l0,-32.65l-4.2,-0l0,-10.596Z" style="fill:#231f20;fill-rule:nonzero;"/><path d="M1296.3,261.308l4.788,0l-0,-41.312l-4.788,-0l0,-10.596l14.933,0l13.101,39.017l0.087,-0l-0,-28.421l-4.612,-0l-0,-10.596l16.037,0l0,10.596l-5.058,-0l-0,51.891l-7.996,0l-15.229,-45.933l-0.134,0l0,35.354l4.463,0l-0,10.579l-15.592,0l0,-10.579Z" style="fill:#231f20;fill-rule:nonzero;"/><path d="M1338.01,261.308l5.396,0l0,-41.312l-5.396,-0l0,-10.596l20.121,0l0,10.596l-5.412,-0l-0,41.312l5.412,0l0,10.579l-20.121,0l0,-10.579Z" style="fill:#231f20;fill-rule:nonzero;"/><path d="M1363.5,219.996l-4.221,-0l0,-10.596l17.659,0l-0,10.596l-4.088,-0l5.942,31.283l0.125,0l5.983,-31.283l-3.95,-0l0,-10.596l15.05,0l0,10.596l-4.208,-0l-10.367,52.346l-7.221,-0l-10.704,-52.346Z" style="fill:#231f20;fill-rule:nonzero;"/><path d="M1397.79,261.308l4.209,0l-0,-41.312l-4.209,-0l0,-10.596l31.384,0l-0,19.779l-6.771,0l0,-9.183l-11.083,-0l-0,14.333l8.929,0l-0,10.596l-8.929,0l-0,16.383l11.083,0l0,-9.304l6.771,0l-0,19.883l-31.384,0l0,-10.579Z" style="fill:#231f20;fill-rule:nonzero;"/><path d="M1450.2,234.433c4.171,0 5.384,-4.046 5.384,-7.366c-0,-2.571 -0.909,-7.071 -4.367,-7.071l-4.767,-0l0,14.437l3.75,0Zm19.317,37.454l-10.904,0l-8.021,-27.424l-4.142,-0l0,16.845l4.496,0l-0,10.579l-18.679,0l-0,-10.579l4.887,0l0,-41.312l-4.887,-0l-0,-10.596l22.254,0c6.946,0 10.733,8.008 10.733,17.487c0,7.188 -2.02,12.234 -6.154,15.546l5.775,18.875l4.642,0l-0,10.579Z" style="fill:#231f20;fill-rule:nonzero;"/><path d="M1471.71,250.637l6.059,0c-0.113,6.705 2.354,11.313 5.479,11.313c2.142,0 3.937,-2.946 3.937,-6.729c0,-11.413 -15.858,-9.833 -15.858,-29.442c0,-12.137 5.242,-17.008 9.642,-17.008c2.783,-0 5.058,1.916 6.529,5.787l0.104,0l-0,-5.158l6.004,0l0,18.971l-6.004,-0c-0.479,-5.717 -2.442,-9.221 -5.158,-9.221c-2.059,0 -3.521,2.121 -3.521,5.079c-0,10.1 16.437,7.8 16.437,29.9c0,14.9 -6.545,18.579 -10.333,18.579c-3.171,0 -5.579,-2.008 -7.154,-6.054l-0.104,0l-0,5.233l-6.059,0l0,-21.25Z" style="fill:#231f20;fill-rule:nonzero;"/><path d="M1498.49,261.308l5.421,0l0,-41.312l-5.421,-0l0,-10.596l20.109,0l-0,10.596l-5.388,-0l0,41.312l5.388,0l-0,10.579l-20.109,0l0,-10.579Z" style="fill:#231f20;fill-rule:nonzero;"/><path d="M1553.8,234.529l-6.208,0l-0,-14.533l-5.363,-0l0,41.312l5.363,0l-0,10.579l-20.038,0l0,-10.579l5.375,0l0,-41.312l-5.375,-0l0,14.533l-6.2,0l0,-25.129l32.446,0l0,25.129Z" style="fill:#231f20;fill-rule:nonzero;"/><path d="M1564.41,261.308l5.029,0l-0,-16.845l-9.805,-24.467l-4.47,-0l-0,-10.596l17.562,0l0,10.596l-3.287,-0l5.45,15.267l5.191,-15.267l-3.104,-0l0,-10.596l15.313,0l-0,10.596l-4.467,-0l-9.333,24.467l-0,16.845l5.083,0l0,10.579l-19.162,0l-0,-10.579Z" style="fill:#231f20;fill-rule:nonzero;"/><path d="M1606.7,261.308l4.646,0l-0,-41.312l-4.646,-0l-0,-10.596l17.866,0l7.855,36.642l8.133,-36.642l18.113,0l-0,10.596l-4.626,-0l0,41.312l4.676,0l-0,10.579l-18.421,0l-0,-10.579l4.687,0l0,-41.312l-0.833,-0l-11.167,51.891l-3.892,0l-11.124,-51.891l-0.842,-0l-0,41.312l4.667,0l-0,10.579l-15.092,0l-0,-10.579Z" style="fill:#231f20;fill-rule:nonzero;"/><path d="M1677.87,222.554l-0.117,0l-3.238,18.871l6.23,0l-2.875,-18.871Zm18.921,49.333l-17.371,0l-0,-10.579l4.466,0l-1.675,-10.671l-9.25,0l-1.954,10.671l4.779,0l0,10.579l-15.85,0l0,-10.579l4.45,0l7.004,-41.312l-4.795,-0l-0,-10.596l23.295,0l0,10.596l-4.787,-0l7.483,41.312l4.205,0l-0,10.579Z" style="fill:#231f20;fill-rule:nonzero;"/><path d="M1698.18,261.308l5.113,0l-0,-41.312l-5.113,-0l0,-10.596l19.625,0l0,10.596l-5.187,-0l-0,41.312l10.508,0l-0,-19.333l6.979,0l0,29.912l-31.925,0l0,-10.579Z" style="fill:#231f20;fill-rule:nonzero;"/><path d="M1748.51,222.554l-0.084,0l-3.225,18.871l6.192,0l-2.883,-18.871Zm18.929,49.333l-17.35,0l-0,-10.579l4.475,0l-1.7,-10.671l-9.242,0l-1.958,10.671l4.8,0l-0,10.579l-15.884,0l0,-10.579l4.488,0l6.966,-41.312l-4.762,-0l0,-10.596l23.279,0l0,10.596l-4.792,-0l7.471,41.312l4.209,0l-0,10.579Z" style="fill:#231f20;fill-rule:nonzero;"/><path d="M1774.83,261.308l5.063,0l-0,-16.845l-9.808,-24.467l-4.488,-0l-0,-10.596l17.575,0l0,10.596l-3.279,-0l5.433,15.267l5.209,-15.267l-3.151,-0l0,-10.596l15.338,0l-0,10.596l-4.471,-0l-9.304,24.467l-0,16.845l5.029,0l0,10.579l-19.146,0l0,-10.579Z" style="fill:#231f20;fill-rule:nonzero;"/><path d="M1804.84,250.637l6.029,0c-0.1,6.705 2.358,11.313 5.504,11.313c2.121,0 3.908,-2.946 3.908,-6.729c0,-11.413 -15.821,-9.833 -15.821,-29.442c0,-12.137 5.209,-17.008 9.617,-17.008c2.796,-0 5.054,1.916 6.537,5.787l0.092,0l0,-5.158l5.979,0l0,18.971l-5.979,-0c-0.487,-5.717 -2.416,-9.221 -5.146,-9.221c-2.062,0 -3.529,2.121 -3.529,5.079c0,10.1 16.45,7.8 16.45,29.9c0,14.9 -6.566,18.579 -10.367,18.579c-3.154,0 -5.566,-2.008 -7.12,-6.054l-0.125,0l-0,5.233l-6.029,0l-0,-21.25Z" style="fill:#231f20;fill-rule:nonzero;"/><path d="M1831.59,261.308l5.42,0l0,-41.312l-5.42,-0l-0,-10.596l20.15,0l-0,10.596l-5.43,-0l0,41.312l5.43,0l-0,10.579l-20.15,0l-0,-10.579Z" style="fill:#231f20;fill-rule:nonzero;"/><path d="M1870.73,222.554l-0.1,0l-3.2,18.871l6.179,0l-2.879,-18.871Zm18.942,49.333l-17.371,0l-0,-10.579l4.463,0l-1.68,-10.671l-9.241,0l-1.975,10.671l4.796,0l-0,10.579l-15.871,0l-0,-10.579l4.466,0l7.005,-41.312l-4.801,-0l0,-10.596l23.288,0l-0,10.596l-4.788,-0l7.484,41.312l4.225,0l-0,10.579Z" style="fill:#231f20;fill-rule:nonzero;"/><path d="M286.854,117.617l38.121,-38.159c0,0 6.488,-4.933 15.863,-2.337c9.308,2.596 45.874,11.154 45.874,11.154c0,-0 8.567,36.617 11.171,45.925c2.58,9.337 -2.354,15.833 -2.354,15.833l-38.125,38.125l0.275,0.734l53.963,-0c-0,-0 8.079,1.108 12.845,9.521c4.763,8.441 24.584,40.366 24.584,40.366c-0,0 -19.821,31.921 -24.584,40.359c-4.766,8.454 -12.845,9.529 -12.845,9.529l-53.963,-0l-0.275,0.725l38.125,38.15c0,-0 4.934,6.47 2.354,15.829c-2.604,9.3 -11.171,45.9 -11.171,45.9c0,-0 -36.566,8.55 -45.874,11.171c-9.375,2.596 -15.863,-2.342 -15.863,-2.342l-38.121,-38.129l-0.725,0.304l0,53.904c0,0 -1.104,8.079 -9.558,12.867c-8.425,4.767 -40.325,24.583 -40.325,24.583c-0,0 -31.95,-19.816 -40.35,-24.583c-8.479,-4.788 -9.575,-12.867 -9.575,-12.867l-0,-53.904l-0.704,-0.304l-38.142,38.129c0,0 -6.475,4.938 -15.829,2.342c-9.334,-2.621 -45.909,-11.171 -45.909,-11.171c0,-0 -8.566,-36.583 -11.17,-45.9c-2.579,-9.35 2.358,-15.829 2.358,-15.829l38.133,-38.15l-0.291,-0.725l-53.971,-0c-0,-0 -8.059,-1.075 -12.842,-9.529c-4.758,-8.438 -24.567,-40.359 -24.567,-40.359c0,0 19.809,-31.925 24.567,-40.366c4.783,-8.413 12.842,-9.521 12.842,-9.521l53.971,-0l0.291,-0.734l-38.133,-38.125c-0,0 -4.937,-6.496 -2.358,-15.833c2.604,-9.308 11.17,-45.925 11.17,-45.925c0,-0 36.567,-8.558 45.884,-11.154c9.379,-2.596 15.854,2.337 15.854,2.337l38.142,38.159l0.704,-0.309l-0,-53.958c-0,0 1.096,-8.071 9.575,-12.825c8.4,-4.767 40.35,-24.579 40.35,-24.579c-0,-0 31.9,19.812 40.325,24.579c8.454,4.754 9.558,12.825 9.558,12.825l0,53.958l0.725,0.309Zm154.496,67.971c0,-0 -7.129,-13.396 -21.088,-13.396l-23.283,-0.009l16.463,-16.462c9.841,-9.829 5.441,-24.396 5.441,-24.396l-15.621,-59.583l-59.587,-15.617c0,0 -14.546,-4.429 -24.396,5.429l-16.475,16.479l0,-23.295c0,-13.93 -13.383,-21.101 -13.383,-21.101l-53.175,-31.075l-53.217,31.075c0,0 -13.396,7.171 -13.396,21.101l0,23.295l-16.462,-16.479c-9.854,-9.858 -24.379,-5.429 -24.379,-5.429l-59.605,15.617l-15.633,59.583c0,-0 -4.392,14.567 5.454,24.396l16.463,16.471l-23.292,-0c-13.929,-0 -21.079,13.396 -21.079,13.396l-31.1,53.191l31.1,53.192c0,-0 7.15,13.396 21.079,13.396l23.292,-0l-16.463,16.462c-9.846,9.863 -5.454,24.383 -5.454,24.383l15.633,59.584l59.605,15.642c-0,-0 14.525,4.408 24.379,-5.434l16.462,-16.487l0,23.304c0,13.946 13.396,21.075 13.396,21.075l53.217,31.104l53.175,-31.104c-0,-0 13.383,-7.129 13.383,-21.075l0,-23.304l16.475,16.487c9.85,9.842 24.396,5.434 24.396,5.434l59.587,-15.642l15.621,-59.584c0,0 4.4,-14.52 -5.441,-24.383l-16.463,-16.462l23.283,-0c13.959,-0 21.088,-13.396 21.088,-13.396l31.083,-53.192l-31.083,-53.191Z" style="fill:#231f20;fill-rule:nonzero;"/><path d="M424.487,198.413c-4.766,-8.413 -12.845,-9.521 -12.845,-9.521l-53.963,-0l-0.275,-0.734l38.125,-38.125c0,0 4.934,-6.496 2.354,-15.833c-2.604,-9.308 -11.171,-45.925 -11.171,-45.925c0,-0 -36.566,-8.558 -45.874,-11.154c-9.375,-2.596 -15.863,2.337 -15.863,2.337l-38.121,38.159l-0.725,-0.309l0,-53.958c0,0 -1.104,-8.071 -9.558,-12.825c-8.425,-4.767 -40.325,-24.579 -40.325,-24.579c-0,-0 -31.95,19.812 -40.35,24.579c-8.479,4.754 -9.575,12.825 -9.575,12.825l-0,53.958l-0.704,0.309l-38.142,-38.159c0,0 -6.475,-4.933 -15.854,-2.337c-9.317,2.596 -45.884,11.154 -45.884,11.154c0,-0 -8.566,36.617 -11.17,45.925c-2.579,9.337 2.358,15.833 2.358,15.833l38.133,38.125l-0.291,0.734l-53.971,-0c-0,-0 -8.059,1.108 -12.842,9.521c-4.758,8.441 -24.567,40.366 -24.567,40.366c0,0 19.809,31.921 24.567,40.359c4.783,8.454 12.842,9.529 12.842,9.529l53.971,-0l0.291,0.725l-38.133,38.15c-0,-0 -4.937,6.479 -2.358,15.829c2.604,9.317 11.17,45.9 11.17,45.9c0,-0 36.575,8.55 45.909,11.171c9.354,2.596 15.829,-2.342 15.829,-2.342l38.142,-38.129l0.704,0.304l-0,53.904c-0,0 1.096,8.079 9.575,12.867c8.4,4.767 40.35,24.583 40.35,24.583c-0,0 31.9,-19.816 40.325,-24.583c8.454,-4.788 9.558,-12.867 9.558,-12.867l0,-53.904l0.725,-0.304l38.121,38.129c0,0 6.488,4.938 15.863,2.342c9.308,-2.621 45.874,-11.171 45.874,-11.171c0,-0 8.567,-36.6 11.171,-45.9c2.58,-9.359 -2.354,-15.829 -2.354,-15.829l-38.125,-38.15l0.275,-0.725l53.963,-0c-0,-0 8.079,-1.075 12.845,-9.529c4.763,-8.438 24.584,-40.359 24.584,-40.359c-0,0 -19.821,-31.925 -24.584,-40.366Z" style="fill:#d6a00e;fill-rule:nonzero;"/><path d="M376.071,263.358c-3.008,5.125 -8.146,5.792 -8.146,5.792l-41.446,0l0,-60.762l41.446,-0c0,-0 5.138,0.687 8.146,5.829c3.046,5.158 15.608,24.562 15.608,24.562c0,0 -12.562,19.459 -15.608,24.579Zm-25.234,47.08c0,-0 3.134,4.075 1.651,9.887c-1.492,5.738 -6.346,28.383 -6.346,28.383c-0,0 -22.617,4.834 -28.371,6.334c-5.792,1.479 -9.9,-1.696 -9.9,-1.696l-23.709,-23.646l42.317,-0l0,-43.604l24.358,24.342Zm-184.195,-2.076l-0,-139.154l139.145,0l0,139.154l-139.145,0Zm99.933,62.117c0,0 -0.65,5.1 -5.8,8.163c-5.121,3 -24.529,15.583 -24.529,15.583c-0,0 -19.459,-12.583 -24.588,-15.583c-5.116,-3.063 -5.795,-8.163 -5.795,-8.163l-0,-40.779l60.712,-0l0,40.779Zm-101.983,-17.133c-0,-0 -4.1,3.175 -9.859,1.679c-5.816,-1.483 -28.425,-6.317 -28.425,-6.317c0,0 -4.858,-22.645 -6.333,-28.383c-1.487,-5.812 1.671,-9.887 1.671,-9.887l22.116,-22.146l0,41.408l44.542,-0l-23.712,23.646Zm-60.046,-84.196c-0,0 -5.117,-0.667 -8.183,-5.792c-3.009,-5.12 -15.584,-24.579 -15.584,-24.579c0,0 12.575,-19.404 15.584,-24.562c3.066,-5.142 8.183,-5.829 8.183,-5.829l39.216,-0l0,60.762l-39.216,0Zm17.1,-102.004c-0,-0 -3.158,-4.1 -1.671,-9.875c1.475,-5.779 6.333,-28.413 6.333,-28.413c0,0 22.609,-4.862 28.425,-6.333c5.759,-1.5 9.859,1.675 9.859,1.675l20.558,20.558l-41.388,0l0,44.509l-22.116,-22.121Zm84.217,-60.042c-0,0 0.679,-5.137 5.795,-8.166c5.129,-3.05 24.588,-15.625 24.588,-15.625c-0,-0 19.408,12.575 24.529,15.625c5.15,3.029 5.8,8.166 5.8,8.166l0,37.654l-60.712,0l-0,-37.654Zm102.008,17.096c-0,-0 4.108,-3.175 9.862,-1.675c5.792,1.471 28.409,6.333 28.409,6.333c-0,0 4.854,22.634 6.346,28.413c1.483,5.775 -1.68,9.875 -1.68,9.875l-24.329,24.342l0,-46.73l-39.175,0l20.567,-20.558Zm78.925,82.204c-0,0 -4.521,-8.146 -13.417,-8.146l-39.325,0l27.804,-27.808c6.279,-6.258 3.742,-15.242 3.742,-15.242l-8.954,-36.85l-36.867,-8.937c0,-0 -8.975,-2.55 -15.216,3.712l-27.801,27.804l0,-39.32c0,-8.854 -8.175,-13.388 -8.175,-13.388l-32.341,-19.775l-32.404,19.775c-0,0 -8.142,4.534 -8.142,13.388l-0,39.32l-27.808,-27.804c-6.25,-6.262 -15.23,-3.712 -15.23,-3.712l-36.87,8.937l-8.95,36.867c-0,-0 -2.53,8.967 3.754,15.225l27.808,27.808l-39.316,0c-8.888,0 -13.43,8.146 -13.43,8.146l-19.775,32.375l19.775,32.367c0,-0 4.542,8.171 13.43,8.171l39.316,-0l-27.808,27.791c-6.284,6.259 -3.754,15.234 -3.754,15.234l8.95,36.875l36.87,8.933c0,0 8.98,2.542 15.23,-3.717l27.808,-27.808l-0,39.329c-0,8.854 8.142,13.379 8.142,13.379l32.404,19.767l32.341,-19.767c0,0 8.175,-4.525 8.175,-13.379l0,-39.329l27.801,27.808c6.241,6.259 15.216,3.717 15.216,3.717l36.867,-8.933l8.954,-36.875c0,-0 2.537,-8.975 -3.742,-15.234l-27.804,-27.791l39.325,-0c8.896,-0 13.417,-8.171 13.417,-8.171l19.75,-32.367l-19.75,-32.375Z" style="fill:#231f20;fill-rule:nonzero;"/><path d="M236.221,241.187c-1.263,-0.004 -2.288,-1.029 -2.288,-2.304c0,-1.266 1.025,-2.3 2.288,-2.308c1.279,0.008 2.292,1.042 2.292,2.308c-0,1.275 -1.013,2.3 -2.292,2.304Zm62.321,-21.287c-18.684,-13.633 -28.3,-9.879 -29.834,-9.738c-1.529,0.138 -32.091,12.171 -32.487,12.325c-0.392,-0.154 -30.954,-12.187 -32.479,-12.325c-1.546,-0.141 -11.159,-3.895 -29.846,9.738l55.721,21.392l-47.08,23.683l13.546,0l40.138,-20.475l40.137,20.475l13.55,0l-47.071,-23.683l55.705,-21.392Z" style="fill:#231f20;fill-rule:nonzero;"/><path d="M268.146,216.154l-31.925,12.704l-31.946,-12.704c0,0 -9.879,-3.067 -18.504,2.35l44.446,17.5c-0,0 1.641,-3.208 6.012,-3.246c4.346,0.038 6.004,3.246 6.004,3.246l44.442,-17.5c-8.625,-5.417 -18.529,-2.35 -18.529,-2.35Z" style="fill:#fff;fill-rule:nonzero;"/></g></svg>