<?xml version="1.0" encoding="UTF-8" standalone="no"?>
<!DOCTYPE svg PUBLIC "-//W3C//DTD SVG 1.1//EN" "http://www.w3.org/Graphics/SVG/1.1/DTD/svg11.dtd">
<svg width="100%" height="100%" viewBox="0 0 949 239" version="1.1" xmlns="http://www.w3.org/2000/svg" xmlns:xlink="http://www.w3.org/1999/xlink" xml:space="preserve" xmlns:serif="http://www.serif.com/" style="fill-rule:evenodd;clip-rule:evenodd;stroke-linejoin:round;stroke-miterlimit:2;">
    <g id="Artboard1" transform="matrix(0.878223,0,0,0.220731,0,0)">
        <rect x="0" y="0" width="1080" height="1080" style="fill:none;"/>
        <g transform="matrix(0.559294,0,0,2.22526,9.0774,8.65022)">
            <path d="M1889.66,27.196L1889.66,168.304L1872.66,168.304L1872.66,45.087L1889.66,27.196Z" style="fill:rgb(35,31,32);fill-rule:nonzero;"/>
            <path d="M1562.7,27.196L1562.7,168.304L1545.7,168.304L1545.7,45.087L1562.7,27.196Z" style="fill:rgb(35,31,32);fill-rule:nonzero;"/>
            <path d="M1185.9,27.196L1185.9,168.304L1168.9,168.304L1168.9,45.087L1185.9,27.196Z" style="fill:rgb(35,31,32);fill-rule:nonzero;"/>
            <path d="M643.079,168.304L723.333,168.304L723.333,27.196L706.312,45.087L706.312,155.958L679.371,155.958L679.45,114.504L665.325,124.696L665.258,155.958L643.196,155.958C643.196,155.958 640.992,138.813 630.158,130.883L620.692,140.325C620.692,140.325 648.054,166.608 611.687,192.783C611.687,192.783 634.221,187.8 643.079,168.304Z" style="fill:rgb(35,31,32);fill-rule:nonzero;"/>
            <path d="M1517.91,27.196L1517.91,155.958L1490.39,155.958L1490.39,168.304L1534.91,168.304L1534.91,45.087L1517.91,27.196Z" style="fill:rgb(35,31,32);fill-rule:nonzero;"/>
            <path d="M1507.14,26.296L1507.14,139.129L1490.12,139.129L1490.12,39.8L1507.14,26.296Z" style="fill:rgb(35,31,32);fill-rule:nonzero;"/>
            <path d="M1371.45,28.542L1371.45,139.567L1354.73,139.567L1354.73,41.821L1371.45,28.542Z" style="fill:rgb(35,31,32);fill-rule:nonzero;"/>
            <path d="M1382.7,155.958L1382.7,27.196L1399.4,45.087L1399.4,155.958L1415.89,155.958L1415.89,140.625L1428.38,140.625L1428.38,155.958L1439.01,155.958L1439.01,136.433L1451.58,128L1451.58,155.958L1462.17,155.958L1462.17,120.487L1474.66,112.092L1474.66,168.304L1354.38,168.304L1354.38,155.958L1382.7,155.958Z" style="fill:rgb(35,31,32);fill-rule:nonzero;"/>
            <path d="M1771.53,155.958L1771.53,27.196L1754.56,45.087L1754.56,168.304L1856.54,168.304L1856.54,45.087L1839.55,27.196L1839.55,155.958L1828.13,155.958C1828.13,155.958 1820.69,154.321 1819.19,142.733C1817.67,131.171 1810.78,116.596 1783.71,120.058L1783.71,132.229C1783.71,132.229 1802.64,125.754 1805.95,143.475C1805.95,143.475 1807.32,151.904 1810.98,155.958L1771.53,155.958Z" style="fill:rgb(35,31,32);fill-rule:nonzero;"/>
            <path d="M1617.8,97.083C1617.8,101.388 1614.28,104.904 1609.96,104.904C1605.63,104.904 1602.12,101.388 1602.12,97.083C1602.12,92.721 1605.63,89.237 1609.96,89.237C1614.28,89.237 1617.8,92.721 1617.8,97.083Z" style="fill:rgb(35,31,32);fill-rule:nonzero;"/>
            <path d="M1809.57,185.429C1809.57,189.712 1806.07,193.263 1801.74,193.263C1797.41,193.263 1793.87,189.712 1793.87,185.429C1793.87,181.071 1797.41,177.567 1801.74,177.567C1806.07,177.567 1809.57,181.071 1809.57,185.429Z" style="fill:rgb(35,31,32);fill-rule:nonzero;"/>
            <path d="M1594.82,97.083C1594.82,101.388 1591.29,104.904 1586.96,104.904C1582.64,104.904 1579.12,101.388 1579.12,97.083C1579.12,92.721 1582.64,89.237 1586.96,89.237C1591.29,89.237 1594.82,92.721 1594.82,97.083Z" style="fill:rgb(35,31,32);fill-rule:nonzero;"/>
            <path d="M1245.71,97.075C1245.71,101.388 1242.21,104.904 1237.88,104.904C1233.51,104.904 1230.06,101.388 1230.06,97.075C1230.06,92.704 1233.51,89.237 1237.88,89.237C1242.21,89.237 1245.71,92.704 1245.71,97.075Z" style="fill:rgb(35,31,32);fill-rule:nonzero;"/>
            <path d="M1222.74,97.075C1222.74,101.388 1219.22,104.904 1214.89,104.904C1210.59,104.904 1207.09,101.388 1207.09,97.075C1207.09,92.704 1210.59,89.237 1214.89,89.237C1219.22,89.237 1222.74,92.704 1222.74,97.075Z" style="fill:rgb(35,31,32);fill-rule:nonzero;"/>
            <path d="M1288.69,186.987C1288.69,191.308 1285.19,194.825 1280.87,194.825C1276.55,194.825 1273.02,191.308 1273.02,186.987C1273.02,182.667 1276.55,179.15 1280.87,179.15C1285.19,179.15 1288.69,182.667 1288.69,186.987Z" style="fill:rgb(35,31,32);fill-rule:nonzero;"/>
            <path d="M1265.74,186.987C1265.74,191.308 1262.19,194.825 1257.88,194.825C1253.53,194.825 1250.03,191.308 1250.03,186.987C1250.03,182.667 1253.53,179.15 1257.88,179.15C1262.19,179.15 1265.74,182.667 1265.74,186.987Z" style="fill:rgb(35,31,32);fill-rule:nonzero;"/>
            <path d="M941.479,186.987C941.479,191.308 937.946,194.825 933.621,194.825C929.333,194.825 925.808,191.308 925.808,186.987C925.808,182.667 929.333,179.15 933.621,179.15C937.946,179.15 941.479,182.667 941.479,186.987Z" style="fill:rgb(35,31,32);fill-rule:nonzero;"/>
            <path d="M918.508,186.987C918.508,191.308 914.975,194.825 910.675,194.825C906.337,194.825 902.804,191.308 902.804,186.987C902.804,182.667 906.337,179.15 910.675,179.15C914.975,179.15 918.508,182.667 918.508,186.987Z" style="fill:rgb(35,31,32);fill-rule:nonzero;"/>
            <path d="M622.996,115.079C622.996,119.4 619.475,122.921 615.146,122.921C610.792,122.921 607.308,119.4 607.308,115.079C607.308,110.763 610.792,107.25 615.146,107.25C619.475,107.25 622.996,110.763 622.996,115.079Z" style="fill:rgb(35,31,32);fill-rule:nonzero;"/>
            <path d="M683.017,186.987C683.017,191.308 679.492,194.825 675.171,194.825C670.858,194.825 667.342,191.308 667.342,186.987C667.342,182.667 670.858,179.15 675.171,179.15C679.492,179.15 683.017,182.667 683.017,186.987Z" style="fill:rgb(35,31,32);fill-rule:nonzero;"/>
            <path d="M660.062,186.987C660.062,191.308 656.525,194.825 652.204,194.825C647.85,194.825 644.35,191.308 644.35,186.987C644.35,182.667 647.85,179.15 652.204,179.15C656.525,179.15 660.062,182.667 660.062,186.987Z" style="fill:rgb(35,31,32);fill-rule:nonzero;"/>
            <path d="M573.325,186.987C573.325,191.308 569.838,194.825 565.454,194.825C561.167,194.825 557.642,191.308 557.642,186.987C557.642,182.667 561.167,179.15 565.454,179.15C569.838,179.15 573.325,182.667 573.325,186.987Z" style="fill:rgb(35,31,32);fill-rule:nonzero;"/>
            <path d="M550.342,186.987C550.342,191.308 546.821,194.825 542.496,194.825C538.146,194.825 534.638,191.308 534.638,186.987C534.638,182.667 538.146,179.15 542.496,179.15C546.821,179.15 550.342,182.667 550.342,186.987Z" style="fill:rgb(35,31,32);fill-rule:nonzero;"/>
            <path d="M901.192,98.263C901.192,102.592 897.733,106.1 893.383,106.1C889.033,106.1 885.521,102.592 885.521,98.263C885.521,93.933 889.033,90.433 893.383,90.433C897.733,90.433 901.192,93.933 901.192,98.263Z" style="fill:rgb(35,31,32);fill-rule:nonzero;"/>
            <path d="M878.229,98.263C878.229,102.592 874.717,106.1 870.417,106.1C866.075,106.1 862.567,102.592 862.567,98.263C862.567,93.933 866.075,90.433 870.417,90.433C874.717,90.433 878.229,93.933 878.229,98.263Z" style="fill:rgb(35,31,32);fill-rule:nonzero;"/>
            <path d="M1056.34,155.958L1073.89,155.958C1071.45,154.604 1070.32,155.188 1068.54,149.05C1067.35,144.85 1067.26,134.558 1068,130.258C1068.87,124.854 1070.27,122.079 1072.65,119.912C1075.86,116.9 1081.95,114.638 1086.28,114.638L1121.83,114.638L1121.83,128.6L1095.73,128.6C1089.5,129.329 1089.79,129.329 1086.77,130.883C1082.24,133.112 1082.86,137.371 1082.86,142.733C1082.86,148.896 1083.17,150.417 1086.45,152.792C1089.74,155.208 1090.5,155.188 1096,155.958L1139.31,155.958L1139.31,27.196L1156.3,45.087L1156.3,168.304L1039.33,168.304L1039.33,45.087L1056.34,27.196L1056.34,155.958Z" style="fill:rgb(35,31,32);fill-rule:nonzero;"/>
            <path d="M963.283,155.958C963.367,152.15 967.908,146.054 971.842,144.533C975.567,143.083 980.617,139.942 980.617,139.942L980.696,155.958L963.283,155.958ZM868.333,155.958C868.4,152.15 872.946,146.054 876.871,144.533C880.592,143.083 885.629,139.942 885.629,139.942L885.692,155.958L868.333,155.958ZM1008.29,27.196L1008.29,155.958L993.792,155.958L993.754,114.204C993.754,114.204 982.346,125.754 971.517,127.875C957.583,130.575 949.292,147.537 949.079,155.958L939.187,155.958L939.354,116.437L924.154,127.408L924.121,155.958L898.871,155.958L898.8,114.204C898.8,114.204 887.304,125.325 876.554,127.875C861.842,131.317 854.171,147.537 854.125,155.958L854.125,168.304L1025.32,168.304L1025.32,45.087L1008.29,27.196Z" style="fill:rgb(35,31,32);fill-rule:nonzero;"/>
            <path d="M796.204,155.958C796.296,152.15 800.858,146.054 804.758,144.533C808.492,143.083 813.525,139.942 813.525,139.942L813.567,155.958L796.204,155.958ZM826.242,113.967C826.242,113.967 814.787,125.517 803.996,127.638C790.05,130.329 781.362,147.308 781.567,155.925L754.379,155.925L753.833,155.958L753.833,27.196L736.808,45.087L736.808,168.304L826.304,168.304L826.242,113.967Z" style="fill:rgb(35,31,32);fill-rule:nonzero;"/>
            <path d="M548.513,155.958L548.513,27.429L531.504,45.292L531.504,168.304L595.079,168.304L595.167,114.504L580.854,124.387L580.842,155.958L548.513,155.958Z" style="fill:rgb(35,31,32);fill-rule:nonzero;"/>
            <path d="M1310.68,155.958C1310.74,152.15 1315.29,146.054 1319.17,144.533C1322.91,143.083 1327.97,139.942 1327.97,139.942L1328.02,155.958L1310.68,155.958ZM1215.7,155.958C1215.78,152.15 1220.34,146.054 1224.22,144.533C1227.95,143.083 1233.03,139.942 1233.03,139.942L1233.09,155.958L1215.7,155.958ZM1341.14,114.204C1341.14,114.204 1329.68,125.754 1318.86,127.875C1304.95,130.575 1296.62,147.537 1296.42,155.958L1286.57,155.958L1286.71,116.437L1271.54,127.408L1271.54,155.958L1246.23,155.958L1246.15,114.204C1246.15,114.204 1234.64,125.325 1223.91,127.875C1209.19,131.317 1201.51,147.537 1201.47,155.958L1201.37,168.304L1341.17,168.304L1341.14,114.204Z" style="fill:rgb(35,31,32);fill-rule:nonzero;"/>
            <path d="M1710.12,155.958C1710.23,152.133 1714.76,146.054 1718.67,144.533C1722.43,143.083 1727.44,139.917 1727.44,139.917L1727.52,155.958L1710.12,155.958ZM1587.7,155.958C1587.79,152.133 1592.33,146.054 1596.19,144.533C1599.95,143.083 1605.03,139.917 1605.03,139.917L1605.05,155.958L1587.7,155.958ZM1740.62,114.183C1740.62,114.183 1729.19,125.754 1718.35,127.875C1704.42,130.575 1696.14,147.537 1695.92,155.958L1659.69,155.958C1654.21,155.188 1653.5,155.208 1650.17,152.792C1646.89,150.417 1646.55,148.896 1646.55,142.733C1646.55,137.371 1645.97,133.112 1650.44,130.883C1653.5,129.338 1653.25,129.338 1659.39,128.612L1685.55,128.612L1685.55,114.638L1647.53,114.638C1643.19,114.638 1639.55,116.9 1636.33,119.912C1633.98,122.079 1632.57,124.854 1631.67,130.275C1630.97,134.558 1631.08,144.85 1632.23,149.05C1633.99,155.188 1635.14,154.604 1637.63,155.958L1618.21,155.958L1618.13,114.183C1618.13,114.183 1606.64,125.325 1595.92,127.875C1581.17,131.317 1573.52,147.537 1573.47,155.958L1573.37,168.304L1740.67,168.304L1740.62,114.183Z" style="fill:rgb(35,31,32);fill-rule:nonzero;"/>
            <path d="M1835.38,391.929C1836.96,386.829 1840.55,391.987 1843.43,395.096C1843.43,395.096 1833.72,397.017 1835.38,391.929ZM1876.37,370.683C1875.18,370.35 1861.56,347.4 1861.56,347.4C1855.57,361.325 1858.07,365.846 1858.07,365.846C1874.73,386.696 1857.83,392.654 1857.83,392.654C1857.83,392.654 1855.65,385.987 1845.83,379.779C1835.94,373.546 1832.51,379.888 1829.71,393.933C1826.9,407.962 1833.82,407.408 1833.82,407.408L1852.7,407.604C1859.28,411.396 1852.05,418.142 1852.05,418.142C1852.05,418.142 1844.78,428.629 1818.02,441.658C1791.2,454.671 1792.33,422.667 1792.33,422.667L1788.22,415.188C1784.73,437.608 1797.69,469.058 1832.89,448.592C1868.14,428.175 1861.36,403.683 1861.36,403.683C1879.17,391.929 1872.74,373.025 1872.74,373.025C1872.74,373.025 1877.6,371.063 1876.37,370.683Z" style="fill:rgb(35,31,32);fill-rule:nonzero;"/>
            <path d="M1889.67,435.704L1881.62,429.654L1875.41,435.542L1883.64,441.767L1889.67,435.704Z" style="fill:rgb(35,31,32);fill-rule:nonzero;"/>
            <path d="M1874.82,435.542L1866.82,429.517L1860.59,435.433L1868.77,441.629L1874.82,435.542Z" style="fill:rgb(35,31,32);fill-rule:nonzero;"/>
            <path d="M1771.05,440.213L1763.03,434.163L1756.86,440.033L1765.01,446.25L1771.05,440.213Z" style="fill:rgb(35,31,32);fill-rule:nonzero;"/>
            <path d="M1807.91,325.192L1797.49,317.362L1789.46,325.021L1800.07,333.05L1807.91,325.192Z" style="fill:rgb(35,31,32);fill-rule:nonzero;"/>
            <path d="M1717.71,438.788L1707.28,430.925L1699.27,438.583L1709.89,446.617L1717.71,438.788Z" style="fill:rgb(35,31,32);fill-rule:nonzero;"/>
            <path d="M1206.7,337.854L1196.27,330.058L1188.28,337.708L1198.86,345.754L1206.7,337.854Z" style="fill:rgb(35,31,32);fill-rule:nonzero;"/>
            <path d="M1025.21,429.121L1014.8,421.292L1006.81,428.942L1017.41,436.971L1025.21,429.121Z" style="fill:rgb(35,31,32);fill-rule:nonzero;"/>
            <path d="M1756.25,440.033L1748.17,434.042L1741.98,439.908L1750.24,446.121L1756.25,440.033Z" style="fill:rgb(35,31,32);fill-rule:nonzero;"/>
            <path d="M1631.32,443.638L1623.3,437.608L1617.08,443.508L1625.32,449.717L1631.32,443.638Z" style="fill:rgb(35,31,32);fill-rule:nonzero;"/>
            <path d="M1616.49,443.508L1608.44,437.467L1602.24,443.338L1610.45,449.554L1616.49,443.508Z" style="fill:rgb(35,31,32);fill-rule:nonzero;"/>
            <path d="M1588.17,442.546L1580.13,436.517L1573.92,442.442L1582.12,448.592L1588.17,442.546Z" style="fill:rgb(35,31,32);fill-rule:nonzero;"/>
            <path d="M1573.34,442.408L1565.29,436.354L1559.12,442.271L1567.29,448.496L1573.34,442.408Z" style="fill:rgb(35,31,32);fill-rule:nonzero;"/>
            <path d="M1574.05,327.992L1565.99,321.95L1559.83,327.833L1568.01,334.092L1574.05,327.992Z" style="fill:rgb(35,31,32);fill-rule:nonzero;"/>
            <path d="M1559.19,327.833L1551.14,321.813L1544.97,327.713L1553.17,333.912L1559.19,327.833Z" style="fill:rgb(35,31,32);fill-rule:nonzero;"/>
            <path d="M1161.43,340.05L1153.36,334.046L1147.17,339.929L1155.4,346.137L1161.43,340.05Z" style="fill:rgb(35,31,32);fill-rule:nonzero;"/>
            <path d="M1146.6,339.929L1138.52,333.892L1132.34,339.775L1140.55,346.008L1146.6,339.929Z" style="fill:rgb(35,31,32);fill-rule:nonzero;"/>
            <path d="M996.271,343.608L986.883,336.558L979.654,343.475L989.242,350.688L996.271,343.608Z" style="fill:rgb(35,31,32);fill-rule:nonzero;"/>
            <path d="M985.879,327.654L976.521,320.633L969.258,327.517L978.833,334.746L985.879,327.654Z" style="fill:rgb(35,31,32);fill-rule:nonzero;"/>
            <path d="M978.963,343.45L969.533,336.388L962.325,343.304L971.921,350.517L978.963,343.45Z" style="fill:rgb(35,31,32);fill-rule:nonzero;"/>
            <path d="M759.487,440.496L751.442,434.467L745.242,440.375L753.454,446.583L759.487,440.496Z" style="fill:rgb(35,31,32);fill-rule:nonzero;"/>
            <path d="M744.654,440.375L736.608,434.321L730.458,440.213L738.633,446.412L744.654,440.375Z" style="fill:rgb(35,31,32);fill-rule:nonzero;"/>
            <path d="M582.358,436.767L574.3,430.729L568.079,436.646L576.296,442.879L582.358,436.767Z" style="fill:rgb(35,31,32);fill-rule:nonzero;"/>
            <path d="M567.508,436.621L559.446,430.608L553.25,436.508L561.467,442.708L567.508,436.621Z" style="fill:rgb(35,31,32);fill-rule:nonzero;"/>
            <path d="M1812.05,348.296C1812.05,348.296 1828.4,370.233 1818.36,386.496C1808.39,402.763 1791.32,397.479 1787.49,385.842C1787.49,385.842 1768.48,404.079 1749.89,404.217C1749.89,404.217 1729.23,405.05 1725.11,389.025C1721.04,372.946 1721.7,367.525 1721.7,367.525C1721.7,367.525 1714.13,376.646 1709.93,377.975C1709.93,377.975 1717.88,397.479 1704.28,410.608C1704.28,410.608 1669.58,443.312 1656.34,446.25C1656.34,446.25 1644.06,448.521 1638.08,445.738C1638.08,445.738 1681.11,422.633 1699.85,401.712C1699.85,401.712 1715.23,389.921 1697.59,380.237C1697.59,380.237 1694.34,380.571 1695.02,370.683C1695.65,360.796 1697.41,365.263 1698.62,366.304C1699.78,367.288 1708.76,377.608 1724.2,353.6C1724.2,353.6 1723.92,390.008 1750.32,388.929C1750.32,388.929 1777.89,389.887 1791.2,373.308C1791.2,373.308 1792.23,397.154 1808.48,385.371C1824.74,373.621 1812.83,367.038 1809.87,363.608C1806.89,360.158 1808.11,357.808 1812.05,348.296Z" style="fill:rgb(35,31,32);fill-rule:nonzero;"/>
            <path d="M1753.43,331.05C1753.43,331.05 1738.95,345.558 1750.27,355.221C1750.27,355.221 1752.97,357.596 1757.47,350.842C1757.47,350.842 1760.23,346.779 1752.79,341.587C1752.79,341.587 1749.5,339.537 1753.43,331.05Z" style="fill:rgb(35,31,32);fill-rule:nonzero;"/>
            <path d="M1667.12,287.317C1667.12,287.317 1652.36,304.567 1663.84,316.012C1663.84,316.012 1666.54,318.842 1671.24,310.817C1671.24,310.817 1674,305.992 1666.41,299.858C1666.41,299.858 1663.08,297.408 1667.12,287.317Z" style="fill:rgb(35,31,32);fill-rule:nonzero;"/>
            <path d="M1362.03,423.771C1362.03,423.771 1351.01,436.662 1359.63,445.167C1359.63,445.167 1361.66,447.308 1365.14,441.292C1365.14,441.292 1367.2,437.688 1361.51,433.108C1361.51,433.108 1359.08,431.283 1362.03,423.771Z" style="fill:rgb(35,31,32);fill-rule:nonzero;"/>
            <path d="M1381.97,292.492C1381.97,292.492 1373.66,305.375 1380.09,313.942C1380.09,313.942 1381.64,316.058 1384.26,310.054C1384.26,310.054 1385.8,306.417 1381.57,301.875C1381.57,301.875 1379.72,300.05 1381.97,292.492Z" style="fill:rgb(35,31,32);fill-rule:nonzero;"/>
            <path d="M1202.73,428.867C1202.73,428.867 1191.69,441.692 1200.27,450.229C1200.27,450.229 1202.32,452.371 1205.79,446.371C1205.79,446.371 1207.89,442.792 1202.2,438.167C1202.2,438.167 1199.7,436.354 1202.73,428.867Z" style="fill:rgb(35,31,32);fill-rule:nonzero;"/>
            <path d="M867.15,422.25C867.15,422.25 854.746,433.888 864.417,441.629C864.417,441.629 866.754,443.587 870.587,438.129C870.587,438.129 872.925,434.871 866.554,430.696C866.554,430.696 863.754,429.079 867.15,422.25Z" style="fill:rgb(35,31,32);fill-rule:nonzero;"/>
            <path d="M1838.74,303.325C1838.74,303.325 1833.13,297.154 1838.12,292.108C1843.11,287.021 1851.15,294.771 1844.34,306.708C1844.34,306.708 1835.89,322.204 1824.22,319.054C1824.22,319.054 1837.09,313.554 1838.74,303.325Z" style="fill:rgb(35,31,32);fill-rule:nonzero;"/>
            <path d="M1504.24,298.017C1504.24,298.017 1496.27,300.671 1494.91,300.142C1493.62,299.621 1487.96,293.271 1497.89,287.258C1497.89,287.258 1507.09,284.108 1511.35,291.475C1511.35,291.475 1515.66,299.15 1507.15,306.546C1498.7,313.983 1490.07,309.142 1490.07,309.142C1490.07,309.142 1503.14,309.117 1504.24,298.017Z" style="fill:rgb(35,31,32);fill-rule:nonzero;"/>
            <path d="M1765.73,294.387C1765.73,294.387 1757.73,297.033 1756.4,296.488C1755.04,295.992 1749.4,289.633 1759.33,283.596C1759.33,283.596 1768.51,280.454 1772.8,287.813C1772.8,287.813 1777.08,295.533 1768.63,302.925C1760.22,310.321 1751.56,305.463 1751.56,305.463C1751.56,305.463 1764.58,305.429 1765.73,294.387Z" style="fill:rgb(35,31,32);fill-rule:nonzero;"/>
            <path d="M1421.51,301.337C1421.51,301.337 1413.57,303.975 1412.21,303.421C1410.84,302.925 1405.18,296.592 1415.12,290.571C1415.12,290.571 1424.3,287.404 1428.6,294.771C1428.6,294.771 1432.89,302.475 1424.41,309.908C1415.99,317.287 1407.31,312.438 1407.31,312.438C1407.31,312.438 1420.36,312.371 1421.51,301.337Z" style="fill:rgb(35,31,32);fill-rule:nonzero;"/>
            <path d="M1258.37,301.158C1258.37,301.158 1250.42,303.813 1249.1,303.258C1247.73,302.746 1242.07,296.404 1252.01,290.358C1252.01,290.358 1261.19,287.208 1265.5,294.558C1265.5,294.558 1269.79,302.292 1261.32,309.679C1252.87,317.125 1244.22,312.233 1244.22,312.233C1244.22,312.233 1257.25,312.2 1258.37,301.158Z" style="fill:rgb(35,31,32);fill-rule:nonzero;"/>
            <path d="M1190.06,300.508C1190.06,300.508 1182.07,303.146 1180.73,302.625C1179.38,302.087 1173.74,295.738 1183.7,289.733C1183.7,289.733 1192.82,286.567 1197.14,293.95C1197.14,293.95 1201.42,301.621 1192.98,309.012C1184.54,316.475 1175.87,311.617 1175.87,311.617C1175.87,311.617 1188.89,311.567 1190.06,300.508Z" style="fill:rgb(35,31,32);fill-rule:nonzero;"/>
            <path d="M963.367,303.813C963.367,303.813 955.421,306.417 954.058,305.896C952.725,305.375 947.067,299.042 957.017,292.996C957.017,292.996 966.171,289.871 970.467,297.238C970.467,297.238 974.742,304.925 966.308,312.342C957.871,319.754 949.208,314.904 949.208,314.904C949.208,314.904 962.242,314.821 963.367,303.813Z" style="fill:rgb(35,31,32);fill-rule:nonzero;"/>
            <path d="M725.087,302.842C725.087,302.842 716.242,305.796 714.725,305.212C713.225,304.617 706.942,297.563 718.012,290.846C718.012,290.846 728.212,287.367 732.992,295.533C732.992,295.533 737.771,304.104 728.354,312.367C718.958,320.6 709.313,315.196 709.313,315.196C709.313,315.196 723.85,315.142 725.087,302.842Z" style="fill:rgb(35,31,32);fill-rule:nonzero;"/>
            <path d="M1727.69,292.55L1690.58,320.308L1692.77,313.233L1729.88,285.446L1727.69,292.55Z" style="fill:rgb(35,31,32);fill-rule:nonzero;"/>
            <path d="M1164.62,296.404L1127.58,324.171L1129.7,317.083L1166.8,289.3L1164.62,296.404Z" style="fill:rgb(35,31,32);fill-rule:nonzero;"/>
            <path d="M928.833,307.717L879.1,344.892L882.008,335.388L931.746,298.146L928.833,307.717Z" style="fill:rgb(35,31,32);fill-rule:nonzero;"/>
            <path d="M593.262,311.004L547.542,339.537L550.683,331.458L596.396,302.925L593.262,311.004Z" style="fill:rgb(35,31,32);fill-rule:nonzero;"/>
            <path d="M701.15,430.875L659.017,451.212L663.275,442.467L705.396,422.087L701.15,430.875Z" style="fill:rgb(35,31,32);fill-rule:nonzero;"/>
            <path d="M1673.56,410.687L1636.16,429.517L1639.36,422.892L1676.77,404.104L1673.56,410.687Z" style="fill:rgb(35,31,32);fill-rule:nonzero;"/>
            <path d="M1813.61,409.8L1798.11,421.421L1799.25,416.921L1814.76,405.325L1813.61,409.8Z" style="fill:rgb(35,31,32);fill-rule:nonzero;"/>
            <path d="M1098.63,300.304L1077.86,315.825L1079.42,309.808L1100.14,294.275L1098.63,300.304Z" style="fill:rgb(35,31,32);fill-rule:nonzero;"/>
            <path d="M1623.96,295.354C1623.96,295.354 1621.22,289.75 1618.37,294.337C1616.67,297.05 1616.22,298.596 1615.46,300.987C1614.91,302.625 1614.54,305.375 1613.89,309.012C1613.89,309.012 1608.01,290.988 1600.11,287.187C1592.23,283.408 1595.54,289.946 1595.79,291.475C1596.01,292.996 1598.55,300.296 1601.85,299.904C1606,299.467 1608.81,305.05 1608.77,310.054C1608.73,317.758 1611.1,317.287 1614.67,315.75C1616.49,314.983 1616.88,308.638 1618.14,303.192C1618.8,300.45 1619.34,298.725 1620.22,297.433C1622.63,294.063 1623.16,295.533 1623.96,295.354Z" style="fill:rgb(35,31,32);fill-rule:nonzero;"/>
            <path d="M1438.35,338.563C1438.35,338.563 1435.61,332.937 1432.75,337.529C1431.08,340.221 1430.62,341.758 1429.87,344.15C1429.3,345.829 1428.92,348.596 1428.35,352.225C1428.35,352.225 1422.4,334.167 1414.5,330.383C1406.6,326.604 1409.94,333.125 1410.16,334.671C1410.35,336.208 1412.94,343.475 1416.27,343.117C1420.45,342.646 1423.2,348.237 1423.17,353.225C1423.11,360.958 1425.48,360.467 1429.1,358.954C1430.89,358.192 1431.29,351.817 1432.56,346.367C1433.17,343.663 1433.68,341.896 1434.58,340.613C1437.02,337.217 1437.57,338.742 1438.35,338.563Z" style="fill:rgb(35,31,32);fill-rule:nonzero;"/>
            <path d="M1180.9,427.792C1180.9,427.792 1178.45,422.763 1175.9,426.929C1174.4,429.329 1173.98,430.675 1173.33,432.854C1172.87,434.321 1172.48,436.8 1171.95,440.033C1171.95,440.033 1166.63,423.913 1159.55,420.5C1152.55,417.125 1155.51,422.958 1155.69,424.333C1155.89,425.708 1158.18,432.196 1161.18,431.887C1164.85,431.479 1167.37,436.45 1167.32,440.942C1167.28,447.883 1169.39,447.413 1172.62,446.079C1174.25,445.404 1174.57,439.692 1175.71,434.85C1176.29,432.367 1176.71,430.787 1177.54,429.688C1179.72,426.663 1180.19,427.996 1180.9,427.792Z" style="fill:rgb(35,31,32);fill-rule:nonzero;"/>
            <path d="M609.479,341.467C609.479,341.467 607.033,336.437 604.483,340.571C603.017,342.996 602.617,344.379 601.888,346.487C601.458,347.967 601.1,350.475 600.542,353.696C600.542,353.696 595.217,337.537 588.179,334.167C581.096,330.771 584.1,336.633 584.271,337.992C584.492,339.333 586.733,345.854 589.738,345.533C593.454,345.163 595.979,350.117 595.946,354.625C595.892,361.517 597.975,361.038 601.179,359.746C602.808,359.038 603.183,353.338 604.288,348.487C604.858,346.046 605.346,344.462 606.125,343.329C608.283,340.287 608.771,341.646 609.479,341.467Z" style="fill:rgb(35,31,32);fill-rule:nonzero;"/>
            <path d="M1035.68,301.575C1035.68,301.575 1033.08,296.196 1030.36,300.629C1028.74,303.217 1028.3,304.683 1027.58,306.946C1027.1,308.546 1026.73,311.2 1026.12,314.675C1026.12,314.675 1020.47,297.408 1012.89,293.787C1005.35,290.154 1008.56,296.404 1008.75,297.837C1008.97,299.296 1011.41,306.271 1014.58,305.896C1018.55,305.496 1021.23,310.85 1021.21,315.629C1021.16,323 1023.36,322.546 1026.82,321.121C1028.57,320.404 1028.93,314.292 1030.14,309.117C1030.75,306.471 1031.27,304.771 1032.13,303.592C1034.43,300.338 1034.96,301.792 1035.68,301.575Z" style="fill:rgb(35,31,32);fill-rule:nonzero;"/>
            <path d="M667.075,312.233C667.075,312.233 664.033,305.992 660.867,311.138C659.042,314.113 658.492,315.825 657.667,318.475C657.05,320.308 656.437,324.913 655.754,328.925C655.754,328.925 654.071,309.808 649.442,301.792C645.908,295.6 644.3,299.554 644.508,301.242C644.75,302.925 643.196,315.938 646.867,315.538C651.508,315.075 651.55,322.546 651.508,328.121C651.442,336.704 652.904,336.9 656.783,334.933C658.437,334.075 659.246,327.013 660.642,320.958C661.329,317.9 661.917,315.938 662.908,314.554C665.6,310.763 666.217,312.438 667.075,312.233Z" style="fill:rgb(35,31,32);fill-rule:nonzero;"/>
            <path d="M1511.08,362.754C1511.08,362.754 1509.4,359.242 1507.61,362.112C1506.54,363.804 1506.26,364.758 1505.81,366.237C1505.47,367.288 1505.19,369.029 1504.8,371.317C1504.8,371.317 1501.13,359.979 1496.17,357.646C1491.24,355.258 1493.32,359.354 1493.47,360.313C1493.61,361.258 1495.17,365.846 1497.27,365.596C1499.89,365.317 1501.63,368.792 1501.62,371.95C1501.56,376.783 1503.08,376.458 1505.3,375.525C1506.43,375.042 1506.68,371.063 1507.47,367.637C1507.88,365.971 1508.2,364.854 1508.73,364.042C1510.26,361.95 1510.61,362.854 1511.08,362.754Z" style="fill:rgb(35,31,32);fill-rule:nonzero;"/>
            <path d="M1478.23,434C1478.23,434 1473.76,429.362 1472.45,423.746C1472.45,423.746 1468.43,425.838 1467.6,429.133C1467.31,430.404 1467.99,431.829 1468.79,433.4C1471.25,438.371 1472.69,440.221 1475.04,436.517C1477.61,432.496 1478.23,434 1478.23,434Z" style="fill:rgb(35,31,32);fill-rule:nonzero;"/>
            <path d="M1450.01,418.079C1450.01,418.079 1454.09,426.637 1447.79,430.983C1447.79,430.983 1442.67,434.342 1439.13,430.217C1439.13,430.217 1433.44,438.167 1425.37,431.179C1425.37,431.179 1422.04,431.171 1417.48,438.167C1417.48,438.167 1408.07,453.092 1382.62,447.046C1382.62,447.046 1408.75,445.6 1420.23,430.371C1420.23,430.371 1425.23,424.129 1434.34,428.287C1436.47,428.313 1437,426.75 1438.24,424.433C1439.65,422.721 1440.38,422.471 1445.46,423.479C1446.1,423.421 1448.86,424.254 1450.01,418.079Z" style="fill:rgb(35,31,32);fill-rule:nonzero;"/>
            <path d="M932.996,423.213C932.996,423.213 936.463,430.471 931.125,434.179C931.125,434.179 926.783,437.063 923.771,433.554C923.771,433.554 918.904,440.283 912.075,434.383C912.075,434.383 909.225,434.342 905.333,440.317C905.333,440.317 897.329,452.971 875.717,447.837C875.717,447.837 897.912,446.608 907.696,433.683C907.696,433.683 911.933,428.346 919.671,431.933C921.471,431.933 921.904,430.575 923.017,428.6C924.192,427.192 924.842,426.954 929.125,427.792C929.721,427.742 932.033,428.45 932.996,423.213Z" style="fill:rgb(35,31,32);fill-rule:nonzero;"/>
            <path d="M1480.83,324.708C1480.83,324.708 1479.52,314.983 1466.27,289.067C1466.27,289.067 1459.68,296.171 1461.03,299.508C1461.03,299.508 1463.61,307.717 1465.4,311.542C1465.4,311.542 1471.51,369.583 1471.43,378.487C1471.43,378.487 1471.66,405.596 1468.53,411.942C1468.53,411.942 1480.89,404.896 1476.72,362.208C1472.55,319.55 1472.88,319.142 1472.88,319.142C1472.88,319.142 1477.7,323.65 1480.83,324.708Z" style="fill:rgb(35,31,32);fill-rule:nonzero;"/>
            <path d="M1326.62,288.771C1326.62,288.771 1336.65,302.925 1329.77,323.537C1329.77,323.537 1327.17,306.129 1321.77,303.029C1316.41,299.904 1326.62,288.771 1326.62,288.771Z" style="fill:rgb(35,31,32);fill-rule:nonzero;"/>
            <path d="M878.892,290.646C878.892,290.646 885.096,299.392 880.8,312.137C880.8,312.137 879.229,301.388 875.917,299.467C872.554,297.521 878.892,290.646 878.892,290.646Z" style="fill:rgb(35,31,32);fill-rule:nonzero;"/>
            <path d="M1263.18,378.6L1265.26,375.229C1265.26,375.229 1271.93,383.758 1264.91,392.371C1257.14,401.933 1251.02,384.054 1251.02,384.054C1251.02,384.054 1246.16,364.612 1261.82,346.658C1261.82,346.658 1253.55,359.304 1255.42,374.75C1255.93,378.858 1257.48,380.408 1259.82,382.162C1259.82,382.162 1267.94,387.438 1263.18,378.6Z" style="fill:rgb(35,31,32);fill-rule:nonzero;"/>
            <path d="M1119.94,441.792L1121.32,439.737C1121.32,439.737 1125.86,444.842 1121.07,449.983C1115.85,455.675 1111.67,445.029 1111.67,445.029C1111.67,445.029 1108.35,433.45 1118.95,422.7C1118.95,422.7 1113.34,430.242 1114.64,439.446C1115.02,441.896 1116.09,442.825 1117.62,443.913C1117.62,443.913 1123.16,447.046 1119.94,441.792Z" style="fill:rgb(35,31,32);fill-rule:nonzero;"/>
            <path d="M805.854,332.467L807.512,335.388C807.512,335.388 807.913,342.362 804.158,344.038C797.238,347.121 793.808,341.546 791.6,337.446C789.417,333.354 793.575,314.138 801.137,305.212C801.137,305.212 794.571,321.292 795.979,331.35C796.358,333.767 798.171,341.45 802.987,339.442C802.987,339.442 806.267,338.096 805.854,332.467Z" style="fill:rgb(35,31,32);fill-rule:nonzero;"/>
            <path d="M1044.91,421.704C1044.91,421.704 1044.27,429.55 1042.8,429.858C1041.29,430.175 1038.91,427.117 1038.91,427.117C1038.91,427.117 1037.92,437.296 1042.74,438.046C1047.51,438.788 1048.2,425.496 1044.91,421.704Z" style="fill:rgb(35,31,32);fill-rule:nonzero;"/>
            <path d="M979.438,417.517C979.438,417.517 970.288,421.85 978.792,425.008C978.792,425.008 970.467,437.925 975.829,440.821C982.25,444.279 986.833,435.475 986.833,435.475C986.833,435.475 978.929,441.325 977.992,437.104C976.962,432.658 979.25,424.838 982.542,423.154C982.542,423.154 973.092,424.3 979.438,417.517Z" style="fill:rgb(35,31,32);fill-rule:nonzero;"/>
            <path d="M921.471,341.758C921.471,341.758 920.958,334.908 924,336.029C927.9,337.479 929.354,341.183 927.537,342.45C925.75,343.721 923.167,343.45 922.704,344.183C922.221,344.958 922.071,350.817 923.179,355.171C924.287,359.525 924.246,363.608 922.187,367.425C922.187,367.425 922.471,357.996 920.775,349.537C919.013,341.092 921.471,341.758 921.471,341.758Z" style="fill:rgb(35,31,32);fill-rule:nonzero;"/>
            <path d="M815.575,420.421C815.575,420.421 813.525,409.892 818.313,411.925C824.487,414.554 827.979,420.567 824.642,422.892C821.921,424.796 817.729,423.438 816.879,424.188C816.042,424.937 815.092,427.329 816.654,432.342C818.454,437.983 817.542,443.383 813.696,447.146C813.696,447.146 815.354,438.788 812.729,429.121C810.029,419.158 815.575,420.421 815.575,420.421Z" style="fill:rgb(35,31,32);fill-rule:nonzero;"/>
            <path d="M1677.54,358.246C1677.54,358.246 1690.78,370.633 1679.87,389.621C1668.93,408.571 1660.66,392.817 1660.66,392.817C1660.66,392.817 1650.96,404.325 1645.91,399.867C1645.91,399.867 1643.22,397.787 1636.98,391.579C1636.98,391.579 1630.96,394.6 1628.25,397.608C1628.25,397.608 1612.81,411.796 1597.04,398.708C1597.04,398.708 1594.06,395.258 1589.92,388.742C1589.92,388.742 1576.57,410.079 1567.05,397.742C1567.05,397.742 1560.52,389.854 1554.6,379.888C1554.6,379.888 1550.82,370.667 1541.7,381.471C1541.7,381.471 1526.95,392.579 1534.09,397.425C1534.09,397.425 1546.6,405.708 1558.31,408.883C1558.31,408.883 1580.13,417.271 1548.43,443.858C1548.43,443.858 1490.51,487.6 1484.78,416.017C1484.78,416.017 1485.52,397.633 1494.29,389.246L1493.33,397.4C1493.33,397.4 1486.59,412.942 1493.11,426.979C1499.6,441.008 1505.47,454.704 1541.59,437.654C1541.59,437.654 1552.72,430.642 1555.17,424.863C1557.62,419.079 1545.02,418.629 1545.02,418.629C1545.02,418.629 1522.58,415.017 1525.41,399.708C1528.18,384.417 1529.14,380.683 1544.52,365.846C1544.52,365.846 1557.24,353.379 1563.93,378.975C1563.93,378.975 1568.01,392.979 1578.54,387.983C1578.54,387.983 1590.57,384.679 1584.07,368.933C1584.07,368.933 1576.73,348.775 1577.36,346.054C1577.98,343.371 1582.52,336.592 1582.52,336.592C1582.52,336.592 1591.22,377.508 1605.24,387.9C1605.24,387.9 1623.16,396.212 1640.37,377.975C1640.37,377.975 1641.77,388.929 1648.06,389.317C1648.06,389.317 1657.96,389.742 1665.31,371.079C1665.31,371.079 1661.86,389.796 1669.09,387.129C1669.09,387.129 1684.41,383.5 1676.35,377.662C1676.35,377.662 1670.9,374.262 1673.2,368.413C1673.2,368.413 1676.39,362.592 1677.54,358.246Z" style="fill:rgb(35,31,32);fill-rule:nonzero;"/>
            <path d="M1459.07,366.058C1459.07,366.058 1471.25,381.521 1460.61,399.775C1460.61,399.775 1450.91,415.092 1442.97,396.65C1442.97,396.65 1433.44,408.571 1427.39,404.387C1427.39,404.387 1422.23,402.817 1418.9,396.146C1418.9,396.146 1391.79,413.763 1381.48,410.354C1381.48,410.354 1373.16,410.5 1362.52,390.504C1362.52,390.504 1360.87,427.558 1336.76,438.796C1336.76,438.796 1324.81,443.775 1311.8,438.812C1311.8,438.812 1353.08,424.625 1357.72,399.133C1362.42,373.65 1353.74,326.825 1352.66,323.733C1351.58,320.692 1351.8,319.642 1354.09,313.042C1356.41,306.392 1359.82,302.883 1359.82,302.883C1359.82,302.883 1362.75,357.825 1365.58,370.379C1365.58,370.379 1374.05,410.525 1404.77,395.233L1424.14,383.663C1423.56,387.992 1421.19,399.017 1430.19,395.975C1438.29,393.242 1447.14,380.6 1447.14,380.6C1447.14,380.6 1445.68,394.875 1450.22,394.129C1454.68,393.437 1463.28,388.929 1455.91,380.921C1455.91,380.921 1453.21,378.333 1455.07,374.521C1456.85,370.729 1459.07,366.058 1459.07,366.058Z" style="fill:rgb(35,31,32);fill-rule:nonzero;"/>
            <path d="M1291.17,288.846C1291.17,288.846 1306.73,314.733 1309.09,317.458C1311.35,320.054 1300.87,315.862 1300.87,315.862C1300.87,315.862 1307.02,335.671 1325.77,353.558C1344.52,371.438 1353.07,390.929 1352.66,404.179C1352.66,404.179 1334.01,372.008 1320.02,361.325C1320.02,361.325 1304.2,349.271 1294.87,312.371L1289.86,305.879C1289.86,305.879 1285.64,303.813 1291.17,288.846Z" style="fill:rgb(35,31,32);fill-rule:nonzero;"/>
            <path d="M1312.78,395.379C1312.78,395.379 1311.47,388.579 1313.76,387.367C1315.11,386.65 1323.17,391.304 1323.58,394.225C1324.1,397.946 1319.95,396.479 1312.78,395.379ZM1327.17,385.233C1324.57,381.854 1322.88,381.45 1319.41,379.617C1305.51,372.433 1307.39,395.592 1307.39,395.592C1307.39,395.592 1307.76,396.967 1305.8,397.608C1295.87,400.996 1272.93,430.771 1272.93,430.771C1256.82,449.775 1247.24,439.196 1247.24,439.196C1232.55,417.85 1261.7,397.742 1261.7,397.742C1226.96,414.496 1243.58,448.375 1243.58,448.375C1258.5,463.337 1282.67,435.85 1286.79,430.283C1290.88,424.675 1299.29,410.979 1311.35,404.829C1312.95,403.942 1312.74,403.713 1316.72,403.063C1317.11,402.842 1325.2,403.517 1328.49,400.892C1334.17,396.396 1329.47,388.242 1327.17,385.233Z" style="fill:rgb(35,31,32);fill-rule:nonzero;"/>
            <path d="M1227.24,317.458C1227.24,317.458 1229.54,308.775 1219.13,291.083C1219.13,291.083 1213.7,298.146 1214.55,301.242C1215.39,304.317 1216.29,305.829 1216.29,305.829C1216.29,305.829 1214.27,340.05 1217.66,359.262C1220.95,377.508 1223.68,403.225 1220.22,414.187C1220.22,414.187 1233.84,400.533 1225.14,354.513C1225.14,354.513 1221.38,320.713 1222.57,312.804C1222.57,312.804 1224.8,314.65 1227.24,317.458Z" style="fill:rgb(35,31,32);fill-rule:nonzero;"/>
            <path d="M1070.78,315.938C1070.78,315.938 1073.05,307.313 1062.63,289.571C1062.63,289.571 1057.17,296.683 1058.11,299.767C1058.95,302.817 1059.83,304.367 1059.83,304.367C1059.83,304.367 1057.78,338.592 1061.22,357.758C1064.51,376.029 1067.18,401.771 1063.75,412.7C1063.75,412.7 1077.33,399.075 1068.71,352.992C1068.71,352.992 1064.89,319.25 1066.08,311.325C1066.08,311.325 1068.33,313.146 1070.78,315.938Z" style="fill:rgb(35,31,32);fill-rule:nonzero;"/>
            <path d="M1206.63,367.058C1206.63,367.058 1218.2,382.512 1209.98,399.475C1201.77,416.4 1187.15,405.033 1187.15,405.033C1187.15,405.033 1182.78,399.271 1181.93,393.142C1181.93,393.142 1170.78,410.671 1146.06,409.396C1121.33,408.125 1113.31,395.054 1113.72,373.596C1114.13,352.15 1109.45,317.125 1105.68,306.854C1105.68,306.854 1102.54,303.258 1109.64,290.271C1109.64,290.271 1119.15,308.025 1118.77,358.546C1118.77,358.546 1118.27,395.354 1139.64,396.813C1144.16,397.154 1148.71,397.188 1152.48,396.942C1167.36,395.95 1176.4,391.733 1187.68,380.421C1187.68,380.421 1180.1,399.5 1196.95,398.896C1213.81,398.304 1204.49,382.854 1201.81,381.075C1199.11,379.267 1201.86,374.692 1206.63,367.058Z" style="fill:rgb(35,31,32);fill-rule:nonzero;"/>
            <path d="M1090.48,356.254C1090.48,356.254 1103.39,372.725 1104.2,381.45L1101.98,381.137C1101.98,381.137 1113.75,399.663 1094.27,422.438C1094.27,422.438 1074.99,443.221 1060.31,453.013C1060.31,453.013 1048.77,457.512 1033.74,454.525C1033.74,454.525 1090.13,431.096 1100.04,401.8C1100.04,401.8 1104.53,397.267 1090.95,383.067C1090.95,383.067 1085.61,377.421 1087.21,369.771C1088.83,362.146 1088.62,362.888 1090.48,356.254Z" style="fill:rgb(35,31,32);fill-rule:nonzero;"/>
            <path d="M982.833,375.946C988.042,374.196 992.746,374.229 994.329,373.987C995.9,373.733 1000.61,374.05 997.675,377.338C994.708,380.642 991.767,382.142 991.767,382.142C987.142,375.946 982.833,375.946 982.833,375.946ZM1027.53,353.104C1018.68,367.058 1024.5,370.217 1024.5,370.217C1043.24,391.579 1019.3,400.533 1010.78,401.942C1002.2,403.446 995.129,387.521 995.129,387.521C995.129,387.521 1003.73,380.967 1004.62,380.708C1005.51,380.471 1020.94,364.796 996.204,364.804C971.45,364.854 966.467,372.675 962.112,379.037C957.813,385.371 965.225,384.704 965.225,384.704C979.408,382.775 982.325,388.683 982.325,388.683L982.325,389.454C962.55,416.621 948.804,388.367 948.804,388.367C936.246,409.433 929.413,390.483 929.413,390.483C907.946,414.554 905.437,387.95 905.437,387.95C895.45,396.788 882.837,397.479 882.837,397.479C882.837,397.479 865.288,395.975 861.838,381.45C858.346,366.833 860.037,347.446 860.037,347.446C862.346,311.958 860.442,294.558 860.442,294.558C854.542,303.192 849.788,310.054 851.088,315.142C852.392,320.275 851.783,343.779 851.783,343.779C849.404,384.621 862.796,401.858 862.796,401.858C881.967,425.271 899.913,400.175 899.913,400.175C901.692,403.992 905.054,406.846 905.054,406.846C913.717,413.058 925.342,401.442 925.342,401.442C925.342,401.442 927.979,407.342 934.025,407.887C940.125,408.483 945.792,399.867 945.792,399.867C952.246,410.883 962.792,410.217 962.792,410.217C972.696,410.583 987.912,392.817 987.912,392.817C998.879,425.637 1023.98,407.742 1023.98,407.742C1051.83,383.229 1027.53,353.104 1027.53,353.104Z" style="fill:rgb(35,31,32);fill-rule:nonzero;"/>
            <path d="M820.587,392.371C816.504,392.492 808.004,387.992 808.004,387.992C808.004,387.992 805.329,387.462 812.579,379.554C812.579,379.554 817.979,380.25 823.267,389.7C823.267,389.7 824.617,392.279 820.587,392.371ZM820.45,367.842C816.733,365.8 810.242,372.196 810.242,372.196C804.204,378.192 803.583,380.896 800.608,385.454C797.662,390.008 789.537,394.558 783.013,393.225C776.496,391.867 773.146,388.504 773.212,382.392C773.262,376.271 770.983,349.929 769.008,338.429C767.083,326.917 766.683,291.158 766.683,291.158C757.396,299.508 759.392,305.633 759.392,305.633C758.371,322.975 764,351.629 764,351.629C772.271,386.208 759.879,389.433 759.879,389.433C750.429,392.371 744.917,375.5 744.917,375.5C739.233,354.225 730.429,331.675 730.429,331.675C719.038,349.7 725.708,356.921 725.708,356.921C735.704,375.9 732.65,395.788 720.242,397.479C707.875,399.133 715.25,372.4 715.25,372.4C714.146,373.896 710.854,392.029 691.713,395.9C672.554,399.842 686.896,373.4 686.896,373.4C678.954,383.775 668.992,395.217 651.262,393.996C633.496,392.817 648.521,368.437 648.521,368.437C623.767,398.1 599.283,396.862 599.283,396.862C569.158,397.3 581.021,373.896 581.021,373.896C569.913,386.079 555.85,397.479 546.029,393.508C536.146,389.587 539.613,347.992 539.613,347.992C544.813,316.367 539.404,286.688 539.404,286.688C529.871,297.563 531.642,303.479 531.642,303.479C535.983,321.392 533.783,342.567 533.783,342.567C527.975,399.987 536.488,404.163 536.488,404.163C547.592,422.146 568.962,392.712 568.962,392.712C571.133,401.404 578.525,406.846 578.525,406.846C597.55,421.583 633.762,388.742 633.762,388.742C635.637,404.325 644.408,407.213 644.408,407.213C658.113,409.396 671.458,395.958 671.458,395.958C673.646,401.629 678.808,406.288 678.808,406.288C688.4,415.058 702.45,399.1 702.45,399.1C704.408,410.079 712.717,410.175 712.717,410.175C728.025,412.358 738.079,389.246 738.079,389.246C743.663,395.633 741.854,396.146 750.321,403.9C758.813,411.633 768.317,399.954 769.479,399.733C770.6,399.5 773.696,405.104 780.221,407.742C786.713,410.354 798.046,399.246 799.162,397.479C800.3,395.692 801.967,396.65 801.967,396.65C803.442,396.992 818.667,407.7 826.208,399.587C833.75,391.492 823.142,369.362 820.45,367.842Z" style="fill:rgb(35,31,32);fill-rule:nonzero;"/>
            <path d="M531.542,261.308L536.954,261.308L536.954,219.996L531.542,219.996L531.542,209.4L551.675,209.4L551.675,219.996L546.271,219.996L546.271,261.308L551.675,261.308L551.675,271.887L531.542,271.887L531.542,261.308Z" style="fill:rgb(35,31,32);fill-rule:nonzero;"/>
            <path d="M553.938,261.308L558.717,261.308L558.717,219.996L553.938,219.996L553.938,209.4L568.854,209.4L581.954,248.417L582.067,248.417L582.067,219.996L577.421,219.996L577.421,209.4L593.467,209.4L593.467,219.996L588.438,219.996L588.438,271.887L580.446,271.887L565.192,225.954L565.075,225.954L565.075,261.308L569.55,261.308L569.55,271.887L553.938,271.887L553.938,261.308Z" style="fill:rgb(35,31,32);fill-rule:nonzero;"/>
            <path d="M628.483,234.529L622.275,234.529L622.275,219.996L616.921,219.996L616.921,261.308L622.275,261.308L622.275,271.887L602.242,271.887L602.242,261.308L607.604,261.308L607.604,219.996L602.242,219.996L602.242,234.529L596.05,234.529L596.05,209.4L628.483,209.4L628.483,234.529Z" style="fill:rgb(35,31,32);fill-rule:nonzero;"/>
            <path d="M631.867,261.308L636.075,261.308L636.075,219.996L631.867,219.996L631.867,209.4L663.258,209.4L663.258,229.179L656.467,229.179L656.467,219.996L645.358,219.996L645.358,234.329L654.321,234.329L654.321,244.925L645.358,244.925L645.358,261.308L656.467,261.308L656.467,252.004L663.258,252.004L663.258,271.887L631.867,271.887L631.867,261.308Z" style="fill:rgb(35,31,32);fill-rule:nonzero;"/>
            <path d="M684.283,234.433C688.421,234.433 689.65,230.387 689.65,227.067C689.65,224.496 688.767,219.996 685.287,219.996L680.55,219.996L680.55,234.433L684.283,234.433ZM703.562,271.887L692.683,271.887L684.638,244.463L680.55,244.463L680.55,261.308L685.017,261.308L685.017,271.887L666.358,271.887L666.358,261.308L671.242,261.308L671.242,219.996L666.358,219.996L666.358,209.4L688.596,209.4C695.529,209.4 699.325,217.408 699.325,226.887C699.325,234.075 697.333,239.121 693.171,242.433L698.963,261.308L703.562,261.308L703.562,271.887Z" style="fill:rgb(35,31,32);fill-rule:nonzero;"/>
            <path d="M704.596,261.308L709.379,261.308L709.379,219.996L704.596,219.996L704.596,209.4L719.533,209.4L732.621,248.417L732.721,248.417L732.721,219.996L728.104,219.996L728.104,209.4L744.133,209.4L744.133,219.996L739.075,219.996L739.075,271.887L731.096,271.887L715.842,225.954L715.712,225.954L715.712,261.308L720.212,261.308L720.212,271.887L704.596,271.887L704.596,261.308Z" style="fill:rgb(35,31,32);fill-rule:nonzero;"/>
            <path d="M762.171,222.554L762.067,222.554L758.842,241.425L765.05,241.425L762.171,222.554ZM781.096,271.887L763.737,271.887L763.737,261.308L768.196,261.308L766.529,250.637L757.279,250.637L755.312,261.308L760.096,261.308L760.096,271.887L744.233,271.887L744.233,261.308L748.704,261.308L755.692,219.996L750.908,219.996L750.908,209.4L774.2,209.4L774.2,219.996L769.4,219.996L776.875,261.308L781.096,261.308L781.096,271.887Z" style="fill:rgb(35,31,32);fill-rule:nonzero;"/>
            <path d="M813.487,234.529L807.271,234.529L807.271,219.996L801.908,219.996L801.908,261.308L807.271,261.308L807.271,271.887L787.242,271.887L787.242,261.308L792.608,261.308L792.608,219.996L787.242,219.996L787.242,234.529L781.046,234.529L781.046,209.4L813.487,209.4L813.487,234.529Z" style="fill:rgb(35,31,32);fill-rule:nonzero;"/>
            <path d="M816.2,261.308L821.629,261.308L821.629,219.996L816.2,219.996L816.2,209.4L836.363,209.4L836.363,219.996L830.929,219.996L830.929,261.308L836.363,261.308L836.363,271.887L816.2,271.887L816.2,261.308Z" style="fill:rgb(35,31,32);fill-rule:nonzero;"/>
            <path d="M850.117,240.871C850.117,252.942 854.129,261.308 859.967,261.308C864.858,261.308 869.85,254.862 869.85,240.504C869.85,227.629 865.542,219.813 859.967,219.813C855.267,219.813 850.117,225.779 850.117,240.871ZM879.837,240.6C879.837,256.604 873.467,272.708 859.967,272.708C846.579,272.708 840.142,256.792 840.142,240.6C840.142,223.95 846.813,208.392 859.967,208.392C873.279,208.392 879.837,224.042 879.837,240.6Z" style="fill:rgb(35,31,32);fill-rule:nonzero;"/>
            <path d="M883.525,261.308L888.325,261.308L888.325,219.996L883.525,219.996L883.525,209.4L898.458,209.4L911.546,248.417L911.642,248.417L911.642,219.996L907.033,219.996L907.033,209.4L923.071,209.4L923.071,219.996L918.025,219.996L918.025,271.887L910.021,271.887L894.775,225.954L894.679,225.954L894.679,261.308L899.137,261.308L899.137,271.887L883.525,271.887L883.525,261.308Z" style="fill:rgb(35,31,32);fill-rule:nonzero;"/>
            <path d="M941.083,222.554L941.004,222.554L937.792,241.425L944.004,241.425L941.083,222.554ZM960.025,271.887L942.667,271.887L942.667,261.308L947.154,261.308L945.479,250.637L936.233,250.637L934.271,261.308L939.05,261.308L939.05,271.887L923.171,271.887L923.171,261.308L927.65,261.308L934.638,219.996L929.837,219.996L929.837,209.4L953.138,209.4L953.138,219.996L948.354,219.996L955.817,261.308L960.025,261.308L960.025,271.887Z" style="fill:rgb(35,31,32);fill-rule:nonzero;"/>
            <path d="M961.45,261.308L966.55,261.308L966.55,219.996L961.45,219.996L961.45,209.4L981.067,209.4L981.067,219.996L975.846,219.996L975.846,261.308L986.388,261.308L986.388,241.975L993.379,241.975L993.379,271.887L961.45,271.887L961.45,261.308Z" style="fill:rgb(35,31,32);fill-rule:nonzero;"/>
            <path d="M1008.23,261.308L1013.67,261.308L1013.67,219.996L1008.23,219.996L1008.23,209.4L1028.39,209.4L1028.39,219.996L1022.99,219.996L1022.99,261.308L1028.39,261.308L1028.39,271.887L1008.23,271.887L1008.23,261.308Z" style="fill:rgb(35,31,32);fill-rule:nonzero;"/>
            <path d="M1031.85,250.637L1037.89,250.637C1037.79,257.342 1040.28,261.95 1043.37,261.95C1045.55,261.95 1047.33,259.004 1047.33,255.221C1047.33,243.808 1031.47,245.388 1031.47,225.779C1031.47,213.642 1036.71,208.771 1041.09,208.771C1043.91,208.771 1046.17,210.687 1047.64,214.558L1047.75,214.558L1047.75,209.4L1053.74,209.4L1053.74,228.371L1047.75,228.371C1047.26,222.654 1045.33,219.15 1042.59,219.15C1040.52,219.15 1039.07,221.271 1039.07,224.229C1039.07,234.329 1055.52,232.029 1055.52,254.129C1055.52,269.029 1048.96,272.708 1045.17,272.708C1042.02,272.708 1039.58,270.7 1038.01,266.654L1037.89,266.654L1037.89,271.887L1031.85,271.887L1031.85,250.637Z" style="fill:rgb(35,31,32);fill-rule:nonzero;"/>
            <path d="M1058.94,261.308L1064.03,261.308L1064.03,219.996L1058.94,219.996L1058.94,209.4L1078.54,209.4L1078.54,219.996L1073.35,219.996L1073.35,261.308L1083.86,261.308L1083.86,241.975L1090.87,241.975L1090.87,271.887L1058.94,271.887L1058.94,261.308Z" style="fill:rgb(35,31,32);fill-rule:nonzero;"/>
            <path d="M1109.25,222.554L1109.14,222.554L1105.94,241.425L1112.15,241.425L1109.25,222.554ZM1128.18,271.887L1110.83,271.887L1110.83,261.308L1115.3,261.308L1113.65,250.637L1104.37,250.637L1102.43,261.308L1107.2,261.308L1107.2,271.887L1091.33,271.887L1091.33,261.308L1095.8,261.308L1102.8,219.996L1097.99,219.996L1097.99,209.4L1121.29,209.4L1121.29,219.996L1116.5,219.996L1123.98,261.308L1128.18,261.308L1128.18,271.887Z" style="fill:rgb(35,31,32);fill-rule:nonzero;"/>
            <path d="M1129.6,261.308L1134.26,261.308L1134.26,219.996L1129.6,219.996L1129.6,209.4L1147.5,209.4L1155.36,246.042L1163.49,209.4L1181.57,209.4L1181.57,219.996L1176.93,219.996L1176.93,261.308L1181.62,261.308L1181.62,271.887L1163.2,271.887L1163.2,261.308L1167.92,261.308L1167.92,219.996L1167.06,219.996L1155.91,271.887L1152,271.887L1140.86,219.996L1140.02,219.996L1140.02,261.308L1144.71,261.308L1144.71,271.887L1129.6,271.887L1129.6,261.308Z" style="fill:rgb(35,31,32);fill-rule:nonzero;"/>
            <path d="M1184.09,261.308L1189.49,261.308L1189.49,219.996L1184.09,219.996L1184.09,209.4L1204.25,209.4L1204.25,219.996L1198.8,219.996L1198.8,261.308L1204.25,261.308L1204.25,271.887L1184.09,271.887L1184.09,261.308Z" style="fill:rgb(35,31,32);fill-rule:nonzero;"/>
            <path d="M1242.88,209.4L1242.88,231.379L1236.81,231.379C1236.19,228.542 1235.08,225.05 1234.08,223.667C1231.58,220.258 1230.27,219.525 1227.94,219.525C1221.53,219.525 1217.33,227.987 1217.33,240.779C1217.33,252.942 1221.43,261.308 1227.38,261.308C1232.33,261.308 1235.98,255.325 1237.3,245.004L1244.36,250.9C1241.74,267.746 1233.75,272.708 1226.7,272.708C1211.42,272.708 1207.33,254.233 1207.33,240.6C1207.33,221.542 1214.97,208.392 1226.1,208.392C1230.48,208.392 1233.88,210.221 1236.81,214.271L1236.81,209.4L1242.88,209.4Z" style="fill:rgb(35,31,32);fill-rule:nonzero;"/>
            <path d="M1260.33,209.4L1276.96,209.4L1276.96,219.996L1273.87,219.996L1273.87,251.737C1273.87,257.896 1274.91,262.037 1278.47,262.037C1281.48,262.037 1283.43,259.371 1283.43,252.292L1283.43,219.996L1280.47,219.996L1280.47,209.4L1294.26,209.4L1294.26,219.996L1289.8,219.996L1289.8,254.958C1289.8,269.496 1282.52,272.625 1277.47,272.625C1270.48,272.625 1264.53,267.929 1264.53,252.646L1264.53,219.996L1260.33,219.996L1260.33,209.4Z" style="fill:rgb(35,31,32);fill-rule:nonzero;"/>
            <path d="M1296.3,261.308L1301.09,261.308L1301.09,219.996L1296.3,219.996L1296.3,209.4L1311.23,209.4L1324.33,248.417L1324.42,248.417L1324.42,219.996L1319.81,219.996L1319.81,209.4L1335.85,209.4L1335.85,219.996L1330.79,219.996L1330.79,271.887L1322.79,271.887L1307.56,225.954L1307.43,225.954L1307.43,261.308L1311.89,261.308L1311.89,271.887L1296.3,271.887L1296.3,261.308Z" style="fill:rgb(35,31,32);fill-rule:nonzero;"/>
            <path d="M1338.01,261.308L1343.41,261.308L1343.41,219.996L1338.01,219.996L1338.01,209.4L1358.13,209.4L1358.13,219.996L1352.72,219.996L1352.72,261.308L1358.13,261.308L1358.13,271.887L1338.01,271.887L1338.01,261.308Z" style="fill:rgb(35,31,32);fill-rule:nonzero;"/>
            <path d="M1363.5,219.996L1359.28,219.996L1359.28,209.4L1376.94,209.4L1376.94,219.996L1372.85,219.996L1378.79,251.279L1378.92,251.279L1384.9,219.996L1380.95,219.996L1380.95,209.4L1396,209.4L1396,219.996L1391.79,219.996L1381.42,272.342L1374.2,272.342L1363.5,219.996Z" style="fill:rgb(35,31,32);fill-rule:nonzero;"/>
            <path d="M1397.79,261.308L1402,261.308L1402,219.996L1397.79,219.996L1397.79,209.4L1429.17,209.4L1429.17,229.179L1422.4,229.179L1422.4,219.996L1411.32,219.996L1411.32,234.329L1420.25,234.329L1420.25,244.925L1411.32,244.925L1411.32,261.308L1422.4,261.308L1422.4,252.004L1429.17,252.004L1429.17,271.887L1397.79,271.887L1397.79,261.308Z" style="fill:rgb(35,31,32);fill-rule:nonzero;"/>
            <path d="M1450.2,234.433C1454.37,234.433 1455.58,230.387 1455.58,227.067C1455.58,224.496 1454.67,219.996 1451.22,219.996L1446.45,219.996L1446.45,234.433L1450.2,234.433ZM1469.52,271.887L1458.61,271.887L1450.59,244.463L1446.45,244.463L1446.45,261.308L1450.95,261.308L1450.95,271.887L1432.27,271.887L1432.27,261.308L1437.15,261.308L1437.15,219.996L1432.27,219.996L1432.27,209.4L1454.52,209.4C1461.47,209.4 1465.25,217.408 1465.25,226.887C1465.25,234.075 1463.23,239.121 1459.1,242.433L1464.88,261.308L1469.52,261.308L1469.52,271.887Z" style="fill:rgb(35,31,32);fill-rule:nonzero;"/>
            <path d="M1471.71,250.637L1477.77,250.637C1477.66,257.342 1480.12,261.95 1483.25,261.95C1485.39,261.95 1487.18,259.004 1487.18,255.221C1487.18,243.808 1471.33,245.388 1471.33,225.779C1471.33,213.642 1476.57,208.771 1480.97,208.771C1483.75,208.771 1486.03,210.687 1487.5,214.558L1487.6,214.558L1487.6,209.4L1493.61,209.4L1493.61,228.371L1487.6,228.371C1487.12,222.654 1485.16,219.15 1482.44,219.15C1480.38,219.15 1478.92,221.271 1478.92,224.229C1478.92,234.329 1495.36,232.029 1495.36,254.129C1495.36,269.029 1488.82,272.708 1485.03,272.708C1481.86,272.708 1479.45,270.7 1477.87,266.654L1477.77,266.654L1477.77,271.887L1471.71,271.887L1471.71,250.637Z" style="fill:rgb(35,31,32);fill-rule:nonzero;"/>
            <path d="M1498.49,261.308L1503.91,261.308L1503.91,219.996L1498.49,219.996L1498.49,209.4L1518.6,209.4L1518.6,219.996L1513.21,219.996L1513.21,261.308L1518.6,261.308L1518.6,271.887L1498.49,271.887L1498.49,261.308Z" style="fill:rgb(35,31,32);fill-rule:nonzero;"/>
            <path d="M1553.8,234.529L1547.59,234.529L1547.59,219.996L1542.23,219.996L1542.23,261.308L1547.59,261.308L1547.59,271.887L1527.55,271.887L1527.55,261.308L1532.93,261.308L1532.93,219.996L1527.55,219.996L1527.55,234.529L1521.35,234.529L1521.35,209.4L1553.8,209.4L1553.8,234.529Z" style="fill:rgb(35,31,32);fill-rule:nonzero;"/>
            <path d="M1564.41,261.308L1569.44,261.308L1569.44,244.463L1559.63,219.996L1555.16,219.996L1555.16,209.4L1572.73,209.4L1572.73,219.996L1569.44,219.996L1574.89,235.263L1580.08,219.996L1576.98,219.996L1576.98,209.4L1592.29,209.4L1592.29,219.996L1587.82,219.996L1578.49,244.463L1578.49,261.308L1583.57,261.308L1583.57,271.887L1564.41,271.887L1564.41,261.308Z" style="fill:rgb(35,31,32);fill-rule:nonzero;"/>
            <path d="M1606.7,261.308L1611.35,261.308L1611.35,219.996L1606.7,219.996L1606.7,209.4L1624.57,209.4L1632.42,246.042L1640.55,209.4L1658.67,209.4L1658.67,219.996L1654.04,219.996L1654.04,261.308L1658.72,261.308L1658.72,271.887L1640.3,271.887L1640.3,261.308L1644.98,261.308L1644.98,219.996L1644.15,219.996L1632.98,271.887L1629.09,271.887L1617.97,219.996L1617.12,219.996L1617.12,261.308L1621.79,261.308L1621.79,271.887L1606.7,271.887L1606.7,261.308Z" style="fill:rgb(35,31,32);fill-rule:nonzero;"/>
            <path d="M1677.87,222.554L1677.75,222.554L1674.52,241.425L1680.75,241.425L1677.87,222.554ZM1696.79,271.887L1679.42,271.887L1679.42,261.308L1683.89,261.308L1682.21,250.637L1672.96,250.637L1671.01,261.308L1675.79,261.308L1675.79,271.887L1659.94,271.887L1659.94,261.308L1664.39,261.308L1671.39,219.996L1666.6,219.996L1666.6,209.4L1689.89,209.4L1689.89,219.996L1685.1,219.996L1692.59,261.308L1696.79,261.308L1696.79,271.887Z" style="fill:rgb(35,31,32);fill-rule:nonzero;"/>
            <path d="M1698.18,261.308L1703.29,261.308L1703.29,219.996L1698.18,219.996L1698.18,209.4L1717.81,209.4L1717.81,219.996L1712.62,219.996L1712.62,261.308L1723.13,261.308L1723.13,241.975L1730.11,241.975L1730.11,271.887L1698.18,271.887L1698.18,261.308Z" style="fill:rgb(35,31,32);fill-rule:nonzero;"/>
            <path d="M1748.51,222.554L1748.43,222.554L1745.2,241.425L1751.39,241.425L1748.51,222.554ZM1767.44,271.887L1750.09,271.887L1750.09,261.308L1754.56,261.308L1752.86,250.637L1743.62,250.637L1741.66,261.308L1746.46,261.308L1746.46,271.887L1730.58,271.887L1730.58,261.308L1735.07,261.308L1742.03,219.996L1737.27,219.996L1737.27,209.4L1760.55,209.4L1760.55,219.996L1755.76,219.996L1763.23,261.308L1767.44,261.308L1767.44,271.887Z" style="fill:rgb(35,31,32);fill-rule:nonzero;"/>
            <path d="M1774.83,261.308L1779.89,261.308L1779.89,244.463L1770.09,219.996L1765.6,219.996L1765.6,209.4L1783.17,209.4L1783.17,219.996L1779.89,219.996L1785.33,235.263L1790.54,219.996L1787.38,219.996L1787.38,209.4L1802.72,209.4L1802.72,219.996L1798.25,219.996L1788.95,244.463L1788.95,261.308L1793.98,261.308L1793.98,271.887L1774.83,271.887L1774.83,261.308Z" style="fill:rgb(35,31,32);fill-rule:nonzero;"/>
            <path d="M1804.84,250.637L1810.87,250.637C1810.77,257.342 1813.23,261.95 1816.37,261.95C1818.49,261.95 1820.28,259.004 1820.28,255.221C1820.28,243.808 1804.46,245.388 1804.46,225.779C1804.46,213.642 1809.67,208.771 1814.08,208.771C1816.87,208.771 1819.13,210.687 1820.61,214.558L1820.71,214.558L1820.71,209.4L1826.68,209.4L1826.68,228.371L1820.71,228.371C1820.22,222.654 1818.29,219.15 1815.56,219.15C1813.5,219.15 1812.03,221.271 1812.03,224.229C1812.03,234.329 1828.48,232.029 1828.48,254.129C1828.48,269.029 1821.91,272.708 1818.11,272.708C1814.96,272.708 1812.55,270.7 1810.99,266.654L1810.87,266.654L1810.87,271.887L1804.84,271.887L1804.84,250.637Z" style="fill:rgb(35,31,32);fill-rule:nonzero;"/>
            <path d="M1831.59,261.308L1837.01,261.308L1837.01,219.996L1831.59,219.996L1831.59,209.4L1851.74,209.4L1851.74,219.996L1846.31,219.996L1846.31,261.308L1851.74,261.308L1851.74,271.887L1831.59,271.887L1831.59,261.308Z" style="fill:rgb(35,31,32);fill-rule:nonzero;"/>
            <path d="M1870.73,222.554L1870.63,222.554L1867.43,241.425L1873.61,241.425L1870.73,222.554ZM1889.67,271.887L1872.3,271.887L1872.3,261.308L1876.76,261.308L1875.08,250.637L1865.84,250.637L1863.87,261.308L1868.66,261.308L1868.66,271.887L1852.79,271.887L1852.79,261.308L1857.26,261.308L1864.26,219.996L1859.46,219.996L1859.46,209.4L1882.75,209.4L1882.75,219.996L1877.96,219.996L1885.45,261.308L1889.67,261.308L1889.67,271.887Z" style="fill:rgb(35,31,32);fill-rule:nonzero;"/>
            <path d="M286.854,117.617L324.975,79.458C324.975,79.458 331.463,74.525 340.838,77.121C350.146,79.717 386.712,88.275 386.712,88.275C386.712,88.275 395.279,124.892 397.883,134.2C400.463,143.537 395.529,150.033 395.529,150.033L357.404,188.158L357.679,188.892L411.642,188.892C411.642,188.892 419.721,190 424.487,198.413C429.25,206.854 449.071,238.779 449.071,238.779C449.071,238.779 429.25,270.7 424.487,279.138C419.721,287.592 411.642,288.667 411.642,288.667L357.679,288.667L357.404,289.392L395.529,327.542C395.529,327.542 400.463,334.012 397.883,343.371C395.279,352.671 386.712,389.271 386.712,389.271C386.712,389.271 350.146,397.821 340.838,400.442C331.463,403.038 324.975,398.1 324.975,398.1L286.854,359.971L286.129,360.275L286.129,414.179C286.129,414.179 285.025,422.258 276.571,427.046C268.146,431.813 236.246,451.629 236.246,451.629C236.246,451.629 204.296,431.813 195.896,427.046C187.417,422.258 186.321,414.179 186.321,414.179L186.321,360.275L185.617,359.971L147.475,398.1C147.475,398.1 141,403.038 131.646,400.442C122.312,397.821 85.737,389.271 85.737,389.271C85.737,389.271 77.171,352.688 74.567,343.371C71.988,334.021 76.925,327.542 76.925,327.542L115.058,289.392L114.767,288.667L60.796,288.667C60.796,288.667 52.737,287.592 47.954,279.138C43.196,270.7 23.387,238.779 23.387,238.779C23.387,238.779 43.196,206.854 47.954,198.413C52.737,190 60.796,188.892 60.796,188.892L114.767,188.892L115.058,188.158L76.925,150.033C76.925,150.033 71.988,143.537 74.567,134.2C77.171,124.892 85.737,88.275 85.737,88.275C85.737,88.275 122.304,79.717 131.621,77.121C141,74.525 147.475,79.458 147.475,79.458L185.617,117.617L186.321,117.308L186.321,63.35C186.321,63.35 187.417,55.279 195.896,50.525C204.296,45.758 236.246,25.946 236.246,25.946C236.246,25.946 268.146,45.758 276.571,50.525C285.025,55.279 286.129,63.35 286.129,63.35L286.129,117.308L286.854,117.617ZM441.35,185.588C441.35,185.588 434.221,172.192 420.262,172.192L396.979,172.183L413.442,155.721C423.283,145.892 418.883,131.325 418.883,131.325L403.262,71.742L343.675,56.125C343.675,56.125 329.129,51.696 319.279,61.554L302.804,78.033L302.804,54.738C302.804,40.808 289.421,33.637 289.421,33.637L236.246,2.562L183.029,33.637C183.029,33.637 169.633,40.808 169.633,54.738L169.633,78.033L153.171,61.554C143.317,51.696 128.792,56.125 128.792,56.125L69.187,71.742L53.554,131.325C53.554,131.325 49.162,145.892 59.008,155.721L75.471,172.192L52.179,172.192C38.25,172.192 31.1,185.588 31.1,185.588L0,238.779L31.1,291.971C31.1,291.971 38.25,305.367 52.179,305.367L75.471,305.367L59.008,321.829C49.162,331.692 53.554,346.212 53.554,346.212L69.187,405.796L128.792,421.438C128.792,421.438 143.317,425.846 153.171,416.004L169.633,399.517L169.633,422.821C169.633,436.767 183.029,443.896 183.029,443.896L236.246,475L289.421,443.896C289.421,443.896 302.804,436.767 302.804,422.821L302.804,399.517L319.279,416.004C329.129,425.846 343.675,421.438 343.675,421.438L403.262,405.796L418.883,346.212C418.883,346.212 423.283,331.692 413.442,321.829L396.979,305.367L420.262,305.367C434.221,305.367 441.35,291.971 441.35,291.971L472.433,238.779L441.35,185.588Z" style="fill:rgb(35,31,32);fill-rule:nonzero;"/>
            <path d="M424.487,198.413C419.721,190 411.642,188.892 411.642,188.892L357.679,188.892L357.404,188.158L395.529,150.033C395.529,150.033 400.463,143.537 397.883,134.2C395.279,124.892 386.712,88.275 386.712,88.275C386.712,88.275 350.146,79.717 340.838,77.121C331.463,74.525 324.975,79.458 324.975,79.458L286.854,117.617L286.129,117.308L286.129,63.35C286.129,63.35 285.025,55.279 276.571,50.525C268.146,45.758 236.246,25.946 236.246,25.946C236.246,25.946 204.296,45.758 195.896,50.525C187.417,55.279 186.321,63.35 186.321,63.35L186.321,117.308L185.617,117.617L147.475,79.458C147.475,79.458 141,74.525 131.621,77.121C122.304,79.717 85.737,88.275 85.737,88.275C85.737,88.275 77.171,124.892 74.567,134.2C71.988,143.537 76.925,150.033 76.925,150.033L115.058,188.158L114.767,188.892L60.796,188.892C60.796,188.892 52.737,190 47.954,198.413C43.196,206.854 23.387,238.779 23.387,238.779C23.387,238.779 43.196,270.7 47.954,279.138C52.737,287.592 60.796,288.667 60.796,288.667L114.767,288.667L115.058,289.392L76.925,327.542C76.925,327.542 71.988,334.021 74.567,343.371C77.171,352.688 85.737,389.271 85.737,389.271C85.737,389.271 122.312,397.821 131.646,400.442C141,403.038 147.475,398.1 147.475,398.1L185.617,359.971L186.321,360.275L186.321,414.179C186.321,414.179 187.417,422.258 195.896,427.046C204.296,431.813 236.246,451.629 236.246,451.629C236.246,451.629 268.146,431.813 276.571,427.046C285.025,422.258 286.129,414.179 286.129,414.179L286.129,360.275L286.854,359.971L324.975,398.1C324.975,398.1 331.463,403.038 340.838,400.442C350.146,397.821 386.712,389.271 386.712,389.271C386.712,389.271 395.279,352.671 397.883,343.371C400.463,334.012 395.529,327.542 395.529,327.542L357.404,289.392L357.679,288.667L411.642,288.667C411.642,288.667 419.721,287.592 424.487,279.138C429.25,270.7 449.071,238.779 449.071,238.779C449.071,238.779 429.25,206.854 424.487,198.413Z" style="fill:rgb(214,160,14);fill-rule:nonzero;"/>
            <path d="M376.071,263.358C373.063,268.483 367.925,269.15 367.925,269.15L326.479,269.15L326.479,208.388L367.925,208.388C367.925,208.388 373.063,209.075 376.071,214.217C379.117,219.375 391.679,238.779 391.679,238.779C391.679,238.779 379.117,258.238 376.071,263.358ZM350.837,310.438C350.837,310.438 353.971,314.513 352.488,320.325C350.996,326.063 346.142,348.708 346.142,348.708C346.142,348.708 323.525,353.542 317.771,355.042C311.979,356.521 307.871,353.346 307.871,353.346L284.162,329.7L326.479,329.7L326.479,286.096L350.837,310.438ZM166.642,308.362L166.642,169.208L305.787,169.208L305.787,308.362L166.642,308.362ZM266.575,370.479C266.575,370.479 265.925,375.579 260.775,378.642C255.654,381.642 236.246,394.225 236.246,394.225C236.246,394.225 216.787,381.642 211.658,378.642C206.542,375.579 205.863,370.479 205.863,370.479L205.863,329.7L266.575,329.7L266.575,370.479ZM164.592,353.346C164.592,353.346 160.492,356.521 154.733,355.025C148.917,353.542 126.308,348.708 126.308,348.708C126.308,348.708 121.45,326.063 119.975,320.325C118.488,314.513 121.646,310.438 121.646,310.438L143.762,288.292L143.762,329.7L188.304,329.7L164.592,353.346ZM104.546,269.15C104.546,269.15 99.429,268.483 96.363,263.358C93.354,258.238 80.779,238.779 80.779,238.779C80.779,238.779 93.354,219.375 96.363,214.217C99.429,209.075 104.546,208.388 104.546,208.388L143.762,208.388L143.762,269.15L104.546,269.15ZM121.646,167.146C121.646,167.146 118.488,163.046 119.975,157.271C121.45,151.492 126.308,128.858 126.308,128.858C126.308,128.858 148.917,123.996 154.733,122.525C160.492,121.025 164.592,124.2 164.592,124.2L185.15,144.758L143.762,144.758L143.762,189.267L121.646,167.146ZM205.863,107.104C205.863,107.104 206.542,101.967 211.658,98.938C216.787,95.888 236.246,83.313 236.246,83.313C236.246,83.313 255.654,95.888 260.775,98.938C265.925,101.967 266.575,107.104 266.575,107.104L266.575,144.758L205.863,144.758L205.863,107.104ZM307.871,124.2C307.871,124.2 311.979,121.025 317.733,122.525C323.525,123.996 346.142,128.858 346.142,128.858C346.142,128.858 350.996,151.492 352.488,157.271C353.971,163.046 350.808,167.146 350.808,167.146L326.479,191.488L326.479,144.758L287.304,144.758L307.871,124.2ZM386.796,206.404C386.796,206.404 382.275,198.258 373.379,198.258L334.054,198.258L361.858,170.45C368.137,164.192 365.6,155.208 365.6,155.208L356.646,118.358L319.779,109.421C319.779,109.421 310.804,106.871 304.563,113.133L276.762,140.937L276.762,101.617C276.762,92.763 268.587,88.229 268.587,88.229L236.246,68.454L203.842,88.229C203.842,88.229 195.7,92.763 195.7,101.617L195.7,140.937L167.892,113.133C161.642,106.871 152.662,109.421 152.662,109.421L115.792,118.358L106.842,155.225C106.842,155.225 104.312,164.192 110.596,170.45L138.404,198.258L99.088,198.258C90.2,198.258 85.658,206.404 85.658,206.404L65.883,238.779L85.658,271.146C85.658,271.146 90.2,279.317 99.088,279.317L138.404,279.317L110.596,307.108C104.312,313.367 106.842,322.342 106.842,322.342L115.792,359.217L152.662,368.15C152.662,368.15 161.642,370.692 167.892,364.433L195.7,336.625L195.7,375.954C195.7,384.808 203.842,389.333 203.842,389.333L236.246,409.1L268.587,389.333C268.587,389.333 276.762,384.808 276.762,375.954L276.762,336.625L304.563,364.433C310.804,370.692 319.779,368.15 319.779,368.15L356.646,359.217L365.6,322.342C365.6,322.342 368.137,313.367 361.858,307.108L334.054,279.317L373.379,279.317C382.275,279.317 386.796,271.146 386.796,271.146L406.546,238.779L386.796,206.404Z" style="fill:rgb(35,31,32);fill-rule:nonzero;"/>
            <path d="M236.221,241.187C234.958,241.183 233.933,240.158 233.933,238.883C233.933,237.617 234.958,236.583 236.221,236.575C237.5,236.583 238.513,237.617 238.513,238.883C238.513,240.158 237.5,241.183 236.221,241.187ZM298.542,219.9C279.858,206.267 270.242,210.021 268.708,210.162C267.179,210.3 236.617,222.333 236.221,222.487C235.829,222.333 205.267,210.3 203.742,210.162C202.196,210.021 192.583,206.267 173.896,219.9L229.617,241.292L182.537,264.975L196.083,264.975L236.221,244.5L276.358,264.975L289.908,264.975L242.837,241.292L298.542,219.9Z" style="fill:rgb(35,31,32);fill-rule:nonzero;"/>
            <path d="M268.146,216.154L236.221,228.858L204.275,216.154C204.275,216.154 194.396,213.087 185.771,218.504L230.217,236.004C230.217,236.004 231.858,232.796 236.229,232.758C240.575,232.796 242.233,236.004 242.233,236.004L286.675,218.504C278.05,213.087 268.146,216.154 268.146,216.154Z" style="fill:white;fill-rule:nonzero;"/>
        </g>
    </g>
</svg>
