<?xml version="1.0" encoding="UTF-8" standalone="no"?><!DOCTYPE svg PUBLIC "-//W3C//DTD SVG 1.1//EN" "http://www.w3.org/Graphics/SVG/1.1/DTD/svg11.dtd"><svg width="100%" height="100%" viewBox="0 0 558 239" version="1.1" xmlns="http://www.w3.org/2000/svg" xmlns:xlink="http://www.w3.org/1999/xlink" xml:space="preserve" xmlns:serif="http://www.serif.com/" style="fill-rule:evenodd;clip-rule:evenodd;stroke-linejoin:round;stroke-miterlimit:2;"><rect id="Artboard1" x="0" y="0" width="557.636" height="238.347" style="fill:none;"/><g><g><rect x="9.125" y="6.817" width="182.641" height="137.158" style="fill:#211d70;"/><path d="M100.462,232.461c50.554,-0 91.481,-40.973 91.481,-91.531c0,-50.545 -40.927,-91.444 -91.481,-91.444c-50.522,-0.002 -91.495,40.898 -91.495,91.443c0,50.557 40.973,91.532 91.495,91.532" style="fill:#61116a;fill-rule:nonzero;"/><g><path d="M100.456,156.476l27.89,9.409l-27.89,8.708l-0,-18.117Zm-55.097,-63.931l55.097,26.733l55.775,-26.733l-55.775,18.667l-55.097,-18.667Z" style="fill:#febe10;fill-rule:nonzero;"/><path d="M45.359,80.972l55.097,26.737l55.775,-26.737l-55.775,18.666l-55.097,-18.666Z" style="fill:#febe10;fill-rule:nonzero;"/><path d="M100.456,132.276l-55.085,-19.857l-0,-9.795l55.085,19.655c55.919,-19.459 55.775,-19.655 55.775,-19.655l0,9.793l-55.775,19.859Zm-55.097,-63.21l55.097,26.76l55.775,-26.76l-55.775,18.661l-55.097,-18.661Z" style="fill:#febe10;fill-rule:nonzero;"/><path d="M45.359,57.649l55.097,26.793l55.775,-26.793l-55.775,18.661l-55.097,-18.661Z" style="fill:#febe10;fill-rule:nonzero;"/><path d="M45.359,45.873l55.097,26.779l55.775,-26.779l-55.775,18.653l-55.097,-18.653Z" style="fill:#febe10;fill-rule:nonzero;"/><path d="M45.359,38.05l55.097,16.965l55.775,-16.965l-55.775,-18.915l-55.097,18.915Z" style="fill:#febe10;fill-rule:nonzero;"/></g><path d="M224.026,68.001l13.766,-0l-0,2.512l-0.924,-0c-1.095,-0 -1.898,0.173 -2.357,0.354c-0.388,0.267 -0.675,0.657 -0.814,1.108c-0.168,0.532 -0.278,1.487 -0.278,2.952l0,19.078c0,3.424 0.336,5.92 1.048,7.56c0.691,1.658 1.873,2.998 3.513,4.125c1.663,1.102 3.438,1.702 5.389,1.702c1.976,-0 3.86,-0.645 5.624,-1.864c1.784,-1.146 3.057,-2.61 3.726,-4.235c0.691,-1.662 1.059,-4.175 1.059,-7.781l-0,-18.322c-0,-1.363 -0.102,-2.351 -0.325,-2.935c-0.278,-0.588 -0.524,-1.039 -0.992,-1.314c-0.414,-0.256 -1.125,-0.428 -2.074,-0.428l-0.994,-0l0,-2.512l11.892,-0l0,2.512l-0.814,-0c-1.394,-0 -2.298,0.31 -2.778,0.897c-0.534,0.672 -0.769,1.809 -0.769,3.517l-0,19.505c-0,3.592 -0.613,6.501 -1.762,8.921c-1.105,2.381 -2.723,4.211 -4.941,5.663c-2.186,1.345 -4.675,2.065 -7.574,2.065c-2.645,0.018 -5.24,-0.726 -7.474,-2.141c-2.265,-1.417 -3.925,-3.206 -4.933,-5.272c-1.091,-2.103 -1.64,-4.795 -1.64,-7.961l0,-20.778c0,-1.314 -0.042,-2.295 -0.3,-2.792c-0.149,-0.51 -0.458,-0.959 -0.881,-1.281c-0.415,-0.218 -1.094,-0.343 -2.075,-0.343l-1.315,-0l-0,-2.512l-0.003,-0Zm41.395,6.394l11.078,0l16.319,26.965l0,-20.5c0,-1.268 -0.091,-2.119 -0.335,-2.694c-0.241,-0.503 -0.615,-0.931 -1.081,-1.235c-0.447,-0.238 -1.173,-0.323 -2.055,-0.323l-0.958,0l0,-2.213l11.978,0l0,2.213l-0.68,0c-1.058,0 -1.795,0.012 -2.162,0.209c-0.535,0.238 -0.924,0.641 -1.215,1.339c-0.233,0.627 -0.314,1.511 -0.314,2.706l0,29.498l-3.178,-0l-19.7,-32.4l0,25.708c0,1.383 0.022,2.255 0.145,2.581c0.112,0.405 0.3,0.764 0.636,1.086c0.278,0.359 0.669,0.554 1.07,0.691c0.445,0.13 1.283,0.197 2.556,0.197l-0,2.137l-12.104,-0l0,-2.137l0.679,0c1.262,0 2.043,-0.141 2.5,-0.353c0.445,-0.22 0.792,-0.632 1.004,-1.249c0.311,-0.573 0.412,-1.57 0.412,-2.953l-0,-22.808c-0,-1.45 -0.042,-2.3 -0.101,-2.679c-0.134,-0.518 -0.46,-0.965 -0.913,-1.252c-0.402,-0.278 -1.315,-0.322 -2.667,-0.322l-0.914,-0l0,-2.212Zm38.889,0l13.575,0l0,2.213l-1.058,0c-0.952,0 -1.696,0.085 -2.064,0.388c-0.47,0.238 -0.794,0.656 -1.005,1.17c-0.145,0.468 -0.255,1.501 -0.255,2.94l-0,23.314c-0,1.117 0.11,1.919 0.347,2.446c0.179,0.469 0.443,0.828 0.913,1.023c0.347,0.215 1.07,0.334 2.064,0.334l1.058,0l0,2.137l-13.575,-0l0,-2.137l1.081,0c1.016,0 1.73,-0.119 2.109,-0.334c0.436,-0.19 0.776,-0.552 0.938,-1c0.179,-0.371 0.288,-1.2 0.288,-2.469l-0,-23.779c-0,-1.369 -0.111,-2.236 -0.288,-2.737c-0.156,-0.458 -0.497,-0.828 -0.938,-1.023c-0.379,-0.23 -1.093,-0.273 -2.109,-0.273l-1.081,0l0,-2.213Zm15.706,0l13.094,0l0,2.213l-0.978,0c-0.914,0 -1.529,0 -1.761,0.045c-0.394,0.114 -0.638,0.278 -0.826,0.561c-0.188,0.205 -0.289,0.475 -0.28,0.753c0,0.504 0.225,1.193 0.572,2.109l9.593,24.855l9.603,-24.855c0.312,-0.916 0.503,-1.605 0.503,-2.075c-0,-0.543 -0.191,-0.9 -0.503,-1.119c-0.325,-0.229 -1.082,-0.272 -2.131,-0.272l-1.195,0l-0,-2.212l11.133,-0l0,2.212c-0.917,0 -1.684,0.012 -2.166,0.209c-0.421,0.172 -0.792,0.447 -1.08,0.8c-0.347,0.464 -0.746,1.314 -1.227,2.457l-12.116,30.285l-3.69,-0l-12.124,-30.285c-0.404,-1.063 -0.691,-1.732 -0.837,-1.993c-0.291,-0.326 -0.524,-0.623 -0.826,-0.867c-0.29,-0.218 -0.637,-0.365 -1.059,-0.522c-0.389,-0.084 -0.993,-0.084 -1.696,-0.084l0,-2.215l-0.003,0Zm39.511,0l29.102,0l3.685,9.517l-2.501,0.855c-0.524,-1.587 -1.126,-2.833 -1.827,-3.706c-0.665,-0.895 -1.485,-1.665 -2.422,-2.272c-0.851,-0.586 -1.804,-1.009 -2.81,-1.247c-0.971,-0.208 -2.647,-0.328 -5.177,-0.328l-8.678,-0l0,13.167l4.316,0c1.563,0 2.822,-0.278 3.648,-0.817c0.837,-0.54 1.417,-1.226 1.719,-2.042c0.2,-0.629 0.321,-1.628 0.321,-3.186l-0,-0.613l2.41,0l-0,15.908l-2.41,-0l-0,-1.31c-0,-1.203 -0.065,-2.163 -0.276,-2.642c-0.17,-0.588 -0.508,-1.113 -0.971,-1.511c-0.467,-0.483 -1.001,-0.855 -1.563,-1.024c-0.588,-0.146 -1.513,-0.218 -2.875,-0.218l-4.318,0l0,11.64c0,1.249 0.035,1.952 0.146,2.231c0.142,0.249 0.349,0.454 0.6,0.594c0.2,0.085 0.903,0.162 2.055,0.162l5.409,-0c2.998,-0 5.332,-0.377 7.051,-1.075c1.71,-0.753 3.221,-1.892 4.415,-3.328c1.028,-1.15 2.022,-2.801 2.957,-4.932l2.287,0.898l-4.004,11.244l-30.289,-0l-0,-2.137l1.005,0c1.237,0 1.983,-0.067 2.287,-0.197c0.447,-0.241 0.816,-0.578 1.016,-1.126c0.178,-0.279 0.29,-1.04 0.29,-2.204l-0,-24.92c-0,-1.142 -0.113,-1.816 -0.383,-2.193c-0.209,-0.37 -0.6,-0.652 -1.125,-0.893c-0.313,-0.083 -1.34,-0.083 -3.09,-0.083l-0,-2.212Zm37.949,0l18.551,0c3.557,0 6.189,0.396 8.01,1.117c1.807,0.753 3.147,1.804 4.161,3.122c0.979,1.439 1.482,2.988 1.482,4.851c-0,1.923 -0.503,3.563 -1.438,4.977c-0.95,1.464 -2.287,2.63 -4.048,3.474c-1.81,0.776 -4.161,1.203 -7.085,1.282l9.404,11.624c0.724,0.971 1.226,1.497 1.459,1.771c0.615,0.561 1.205,0.937 1.875,1.204c0.691,0.265 1.417,0.406 2.199,0.406l0.693,0l-0,2.137l-8.221,-0l-13.098,-17.142l-4.584,0l-0,11.202c-0,1.233 0.055,1.919 0.076,2.246c0.226,0.569 0.562,0.981 0.952,1.222c0.4,0.218 1.249,0.338 2.443,0.338l0.893,-0l0,2.135l-13.721,-0l0,-2.135l1.249,-0c0.95,-0 1.585,-0.07 1.907,-0.185c0.301,-0.153 0.592,-0.349 0.826,-0.626c0.244,-0.305 0.378,-0.67 0.524,-1.166c0.033,-0.13 0.091,-1.051 0.091,-2.581l0,-23.595c0,-1.051 -0.114,-1.804 -0.325,-2.266c-0.153,-0.405 -0.442,-0.744 -0.816,-0.961c-0.432,-0.199 -1.07,-0.238 -1.963,-0.238l-1.496,0l-0,-2.213m9.36,2.818l-0,13.563l7.372,0c2.491,0 4.22,-0.159 5.269,-0.473c1.339,-0.364 2.528,-1.143 3.399,-2.223c0.805,-1.141 1.195,-2.536 1.195,-4.227c0,-1.466 -0.279,-2.637 -0.87,-3.683c-0.604,-0.938 -1.442,-1.703 -2.433,-2.216c-1.07,-0.503 -2.61,-0.741 -4.686,-0.741l-9.246,-0Zm52.605,-2.818l1.865,0l2.697,11.149l-2.453,0.64c-1.46,-3.113 -3.449,-5.543 -5.935,-7.295c-2.042,-1.476 -4.26,-2.238 -6.75,-2.238c-1.482,0 -2.833,0.278 -4.048,0.806c-1.195,0.542 -2.075,1.282 -2.633,2.135c-0.566,0.763 -0.872,1.689 -0.87,2.639c0,0.776 0.179,1.537 0.649,2.307c0.492,0.725 1.184,1.394 2.075,1.988c1,0.611 2.52,1.183 4.648,1.81l6.761,1.939c0.783,0.192 2.021,0.671 3.582,1.382c1.54,0.697 2.801,1.422 3.648,2.222c0.837,0.747 1.54,1.696 2.028,2.801c0.482,1.09 0.75,2.246 0.75,3.595c-0,2.802 -1.238,5.385 -3.705,7.492c-2.521,2.097 -5.757,3.187 -9.749,3.187c-2.028,-0 -3.892,-0.283 -5.465,-0.906c-1.605,-0.581 -3.389,-1.601 -5.222,-3.159l-1.215,3.471l-1.784,-0l-2.387,-12.845l2.452,-0.518c0.871,2.37 2.022,4.365 3.459,5.968c1.405,1.731 3.02,2.913 4.809,3.832c1.74,0.817 3.513,1.23 5.351,1.23c2.346,0.021 4.631,-0.76 6.474,-2.212c1.593,-1.281 2.329,-2.747 2.329,-4.453c-0,-1.537 -0.589,-2.806 -1.685,-3.817c-1.114,-1.005 -3.086,-1.929 -6.031,-2.81l-6.437,-1.82c-3.583,-1.058 -6.127,-2.383 -7.663,-3.979c-1.429,-1.527 -2.214,-3.55 -2.188,-5.641c0,-1.673 0.459,-3.171 1.428,-4.554c0.962,-1.41 2.444,-2.557 4.384,-3.529c2.056,-0.934 4.292,-1.409 6.549,-1.388c1.952,-0 3.871,0.315 5.658,1.034c1.249,0.479 2.464,1.165 3.525,2.02l1.099,-2.483Zm10.407,0l13.501,0l0,2.213l-0.982,0c-0.982,0 -1.685,0.085 -2.119,0.388c-0.447,0.238 -0.761,0.656 -0.972,1.17c-0.221,0.468 -0.313,1.501 -0.313,2.94l0,23.314c0,1.117 0.123,1.919 0.356,2.446c0.203,0.469 0.524,0.828 0.906,1.023c0.444,0.215 1.126,0.334 2.14,0.334l0.982,0l-0,2.137l-13.499,-0l0,-2.137l1.093,0c0.994,0 1.664,-0.119 2.119,-0.334c0.371,-0.195 0.66,-0.554 0.906,-1c0.156,-0.371 0.21,-1.2 0.21,-2.469l0,-23.779c0,-1.369 -0.054,-2.236 -0.21,-2.737c-0.249,-0.447 -0.535,-0.843 -0.906,-1.023c-0.455,-0.23 -1.125,-0.273 -2.119,-0.273l-1.093,0l0,-2.213Zm19.032,-1.176l1.809,0l0.267,1.176l22.12,0l0.199,-1.176l1.822,0l3.724,10.502l-2.384,0.817c-1.096,-2.822 -2.422,-4.762 -3.95,-5.919c-1.508,-1.09 -3.448,-1.69 -5.847,-1.69c-0.947,-0 -1.551,0.065 -1.693,0.125c-0.237,0.041 -0.335,0.218 -0.393,0.4c-0.088,0.194 -0.142,0.809 -0.142,1.805l0,24.861c0,1.205 0.054,2.028 0.2,2.455c0.098,0.435 0.335,0.755 0.579,0.99c0.2,0.215 0.535,0.371 0.982,0.474c0.412,0.116 1.337,0.181 2.843,0.181l-0,2.135l-13.765,0l-0,-2.135c1.517,-0 2.377,-0.067 2.745,-0.142c0.546,-0.193 1.013,-0.513 1.272,-0.966c0.221,-0.497 0.367,-1.422 0.367,-2.697l0,-25.441c0,-0.82 -0.034,-1.323 -0.146,-1.517c-0.033,-0.146 -0.199,-0.244 -0.432,-0.396c-0.2,-0.067 -0.638,-0.13 -1.296,-0.13c-1.871,-0 -3.301,0.282 -4.469,0.72c-1.074,0.505 -2.124,1.323 -3.113,2.467c-0.993,1.107 -1.821,2.595 -2.501,4.421l-2.422,-0.816l3.624,-10.504Zm31.549,1.176l13.495,0l0,2.213l-0.968,0c-0.972,0 -1.708,0.085 -2.087,0.388c-0.47,0.238 -0.771,0.656 -1.005,1.17c-0.167,0.468 -0.279,1.501 -0.279,2.94l0,23.314c0,1.117 0.114,1.919 0.325,2.446c0.221,0.469 0.492,0.828 0.962,1.023c0.346,0.215 1.058,0.334 2.085,0.334l0.969,0l0,2.137l-13.495,-0l0,-2.137l1.082,0c1.038,0 1.74,-0.119 2.13,-0.334c0.416,-0.204 0.736,-0.563 0.892,-1c0.191,-0.371 0.291,-1.2 0.291,-2.469l0,-23.779c0,-1.369 -0.102,-2.236 -0.291,-2.737c-0.167,-0.447 -0.48,-0.843 -0.892,-1.023c-0.39,-0.23 -1.092,-0.273 -2.13,-0.273l-1.082,0l0,-2.213l-0.002,0Zm-292.688,46.846l1.761,0l0.235,1.475l22.154,0l0.257,-1.475l1.809,0l3.736,12.498l-2.466,1.012c-1.103,-3.381 -2.407,-5.711 -3.915,-7.008c-1.507,-1.333 -3.425,-1.995 -5.768,-1.995c-1.002,0 -1.574,0.023 -1.772,0.146c-0.202,0.065 -0.325,0.244 -0.381,0.454c-0.089,0.237 -0.112,0.899 -0.112,2.127l0,29.319c0,1.409 0.023,2.37 0.168,2.884c0.121,0.512 0.325,0.851 0.546,1.135c0.258,0.27 0.602,0.429 1.017,0.603c0.444,0.12 1.36,0.127 2.823,0.2l-0,2.495l-13.71,-0l0,-2.495c1.437,-0.073 2.399,-0.08 2.689,-0.2c0.588,-0.186 1.067,-0.618 1.315,-1.182c0.246,-0.566 0.367,-1.613 0.367,-3.148l0,-30.041c0,-0.881 -0.077,-1.46 -0.121,-1.678c-0.107,-0.212 -0.285,-0.379 -0.503,-0.473c-0.156,-0.091 -0.581,-0.146 -1.26,-0.146c-1.887,0 -3.359,0.27 -4.429,0.837c-1.126,0.58 -2.199,1.552 -3.179,2.916c-1.028,1.278 -1.84,3.048 -2.532,5.249l-2.444,-1.013l3.715,-12.496Zm31.892,7.943l29.184,-0l3.567,9.426l-2.464,0.874c-0.524,-1.544 -1.103,-2.803 -1.849,-3.651c-0.669,-0.894 -1.394,-1.674 -2.345,-2.297c-0.97,-0.641 -1.887,-1.048 -2.854,-1.215c-0.971,-0.225 -2.701,-0.336 -5.176,-0.336l-8.712,0l-0,13.138l4.339,0c1.607,0 2.8,-0.244 3.614,-0.822c0.905,-0.573 1.482,-1.191 1.786,-2.064c0.21,-0.572 0.302,-1.619 0.302,-3.121l-0,-0.585l2.453,0l0,15.887l-2.453,0l-0,-1.394c-0,-1.18 -0.092,-2.071 -0.259,-2.609c-0.199,-0.575 -0.531,-1.095 -0.97,-1.518c-0.469,-0.447 -1.026,-0.816 -1.584,-0.961c-0.591,-0.164 -1.485,-0.244 -2.891,-0.244l-4.339,-0l0,11.606c0,1.257 0.067,1.98 0.192,2.239c0.098,0.266 0.317,0.469 0.589,0.546c0.213,0.168 0.949,0.222 2.086,0.222l5.355,-0c2.988,-0 5.344,-0.375 7.017,-1.089c1.705,-0.725 3.179,-1.857 4.471,-3.35c1.038,-1.135 1.987,-2.745 2.901,-4.842l2.354,0.802l-4.027,11.29l-30.286,0l-0,-2.174l1.048,0c1.194,0 1.917,-0.047 2.242,-0.199c0.485,-0.19 0.866,-0.578 1.048,-1.066c0.167,-0.364 0.223,-1.089 0.223,-2.17l0,-24.977c0,-1.104 -0.056,-1.849 -0.291,-2.207c-0.246,-0.344 -0.658,-0.63 -1.159,-0.837c-0.325,-0.113 -1.327,-0.19 -3.112,-0.19l-0,-2.112Zm38.192,-0l13.781,-0l-0,2.108l-0.963,-0c-1.103,-0 -1.906,0.157 -2.352,0.397c-0.48,0.295 -0.794,0.702 -1.015,1.299c-0.157,0.432 -0.211,1.131 -0.211,2.131l0,13.72l13.565,-14.285c0.724,-0.818 1.146,-1.299 1.291,-1.566c0.091,-0.215 0.199,-0.447 0.199,-0.669c0,-0.416 -0.179,-0.63 -0.492,-0.772c-0.275,-0.179 -0.947,-0.255 -1.941,-0.255l-0.847,-0l-0,-2.108l12.775,-0l0,2.108c-1.015,-0.012 -1.94,0.076 -2.723,0.367c-0.813,0.222 -1.471,0.517 -1.983,0.882c-1.017,0.805 -1.81,1.47 -2.22,1.898l-9.593,9.85l10.955,14.588c0.97,1.361 1.762,2.261 2.377,2.766c0.524,0.473 1.191,0.794 1.796,1.059c0.588,0.142 1.572,0.237 2.886,0.237l0,2.173l-15.258,-0l0,-2.173l0.902,-0c1.004,-0 1.665,-0 1.784,-0.047c0.336,-0.047 0.524,-0.19 0.713,-0.455c0.162,-0.158 0.249,-0.378 0.237,-0.604c0,-0.451 -0.561,-1.481 -1.787,-3.083l-8.097,-10.946l-4.541,4.621l-0,7.078c-0,1.115 0.099,1.902 0.347,2.308c0.276,0.437 0.645,0.737 1.092,0.928c0.401,0.153 1.449,0.2 3.102,0.2l-0,2.173l-13.777,-0l-0,-2.173l1.047,-0c1.104,-0 1.784,-0.095 2.186,-0.291c0.377,-0.211 0.702,-0.6 0.905,-1.081c0.21,-0.524 0.368,-1.406 0.368,-2.69l-0,-23.758c-0,-1.215 -0.158,-2.131 -0.368,-2.578c-0.203,-0.447 -0.528,-0.817 -0.905,-0.909c-0.379,-0.264 -1.205,-0.34 -2.51,-0.34l-0.725,-0l-0,-2.108Zm37.429,-0l11.074,-0l16.299,26.882l-0,-20.478c-0,-1.241 -0.114,-2.086 -0.325,-2.693c-0.216,-0.5 -0.582,-0.921 -1.047,-1.204c-0.459,-0.241 -1.173,-0.397 -2.087,-0.397l-0.89,-0l-0,-2.108l11.912,0l0,2.108l-0.665,-0c-1.059,-0 -1.73,0.076 -2.177,0.276c-0.492,0.214 -0.87,0.659 -1.146,1.325c-0.303,0.63 -0.405,1.544 -0.405,2.693l-0,29.526l-3.167,-0l-19.667,-32.438l0,25.725c0,1.41 0.023,2.28 0.157,2.583c0.087,0.423 0.313,0.797 0.637,1.099c0.288,0.356 0.656,0.568 1.059,0.692c0.423,0.119 1.237,0.167 2.541,0.167l0,2.174l-12.101,0l0,-2.174l0.68,0c1.226,0 2.086,-0.094 2.563,-0.324c0.416,-0.229 0.714,-0.637 0.993,-1.234c0.233,-0.596 0.356,-1.573 0.356,-2.983l0,-22.813c0,-1.431 -0.065,-2.333 -0.123,-2.669c-0.13,-0.528 -0.422,-1.016 -0.87,-1.23c-0.433,-0.24 -1.303,-0.397 -2.632,-0.397l-0.969,-0l-0,-2.108Zm58.319,-0.608c3.301,-0 6.237,0.775 8.891,2.36c2.749,1.585 5.039,3.857 6.646,6.593c1.529,2.759 2.308,5.89 2.308,9.415c-0,5.504 -1.741,10.055 -5.163,13.547c-3.458,3.453 -7.853,5.191 -13.12,5.191c-5.956,0 -10.664,-2.09 -14.133,-6.283c-2.865,-3.393 -4.285,-7.474 -4.285,-12.223c-0,-3.533 0.847,-6.738 2.421,-9.501c1.584,-2.804 3.816,-5.017 6.794,-6.663c2.957,-1.661 6.149,-2.436 9.641,-2.436m-0,2.792c-2.655,0 -5,0.661 -6.864,1.864c-1.983,1.227 -3.514,3.011 -4.671,5.381c-1.161,2.368 -1.754,5.364 -1.754,8.824c0,3.357 0.593,6.241 1.741,8.53c1.107,2.319 2.658,4.11 4.564,5.352c1.96,1.231 4.233,1.871 6.547,1.846c2.388,-0 4.519,-0.62 6.318,-1.846c1.826,-1.181 3.345,-3.098 4.583,-5.687c1.215,-2.589 1.795,-5.479 1.795,-8.665c0,-3.228 -0.58,-6.156 -1.795,-8.816c-1.005,-2.318 -2.422,-3.994 -4.084,-5.075c-1.73,-1.173 -3.791,-1.708 -6.38,-1.708m22.921,-2.184l13.8,-0l0,2.108l-1.226,-0c-1.016,-0 -1.74,0.076 -2.108,0.34c-0.447,0.094 -0.702,0.418 -0.917,0.825c-0.199,0.328 -0.276,1.019 -0.276,1.959l0,24.985c0,1.15 0.033,1.834 0.088,2.063c0.133,0.314 0.367,0.513 0.724,0.652c0.271,0.132 0.929,0.187 2.134,0.187l1.919,0c2.254,0 4.183,-0.325 5.855,-0.993c1.603,-0.603 3.061,-1.534 4.285,-2.731c1.195,-1.227 2.341,-3.076 3.426,-5.458l2.341,0.761l-4.015,11.23l-26.027,-0l0,-2.173l1.128,-0c1.059,-0 1.853,-0.095 2.199,-0.237c0.368,-0.168 0.667,-0.504 0.894,-0.947c0.193,-0.735 0.286,-1.493 0.276,-2.254l-0,-24.382c-0,-1.285 -0.146,-2.2 -0.233,-2.578c-0.223,-0.492 -0.493,-0.817 -0.86,-0.909c-0.356,-0.264 -1.15,-0.34 -2.276,-0.34l-1.128,-0l0,-2.108l-0.003,-0Zm50.835,-0.608c3.326,-0 6.305,0.775 8.937,2.36c2.746,1.589 5.037,3.86 6.647,6.593c1.508,2.759 2.231,5.89 2.231,9.415c0,5.504 -1.685,10.055 -5.122,13.547c-3.434,3.453 -7.807,5.191 -13.128,5.191c-5.955,0 -10.664,-2.09 -14.176,-6.283c-2.777,-3.393 -4.182,-7.474 -4.182,-12.223c-0,-3.533 0.801,-6.738 2.406,-9.501c1.55,-2.804 3.848,-5.017 6.772,-6.663c2.9,-1.661 6.123,-2.436 9.615,-2.436m-0,2.792c-2.666,0 -4.92,0.661 -6.86,1.864c-1.984,1.227 -3.534,3.011 -4.676,5.381c-1.156,2.368 -1.696,5.364 -1.696,8.824c0,3.357 0.54,6.241 1.686,8.53c1.15,2.319 2.69,4.11 4.63,5.352c1.887,1.226 4.071,1.846 6.481,1.846c2.376,-0 4.507,-0.62 6.344,-1.846c1.843,-1.181 3.35,-3.098 4.577,-5.687c1.216,-2.589 1.806,-5.479 1.806,-8.665c0,-3.228 -0.589,-6.156 -1.806,-8.816c-1.047,-2.318 -2.399,-3.994 -4.107,-5.075c-1.684,-1.173 -3.792,-1.708 -6.379,-1.708m51.492,-2.184l1.875,-0l2.902,11.099l-2.421,0.769c-1.518,-3.535 -3.302,-6.04 -5.313,-7.518c-1.994,-1.496 -4.259,-2.242 -6.782,-2.242c-3.671,-0 -6.704,1.493 -9.179,4.541c-2.478,3.09 -3.706,6.702 -3.706,10.87c0,3.021 0.649,5.818 1.93,8.315c1.226,2.537 2.934,4.485 5.01,5.767c2.119,1.334 4.385,1.987 6.783,1.987c1.529,0 2.934,-0.236 4.307,-0.844c1.438,-0.546 2.545,-1.204 3.389,-1.979c0.649,-0.59 1.075,-1.212 1.296,-1.963c0.233,-0.634 0.335,-1.638 0.324,-2.865l-0,-1.737c-0,-1.344 -0.189,-2.279 -0.492,-2.887c-0.324,-0.547 -0.782,-0.932 -1.351,-1.155c-0.459,-0.179 -1.661,-0.291 -3.637,-0.291l0,-2.164l14.526,-0l0,2.164l-1.161,0c-0.982,0 -1.685,0.115 -2.01,0.291c-0.389,0.111 -0.655,0.509 -0.832,0.914c-0.168,0.347 -0.271,1.204 -0.271,2.433l0,12.425l-2.556,-0l-1.335,-3.136c-1.407,1.03 -2.96,1.839 -4.611,2.399c-2.464,0.872 -4.853,1.311 -7.26,1.311c-4.831,-0 -8.96,-1.769 -12.395,-5.305c-3.491,-3.572 -5.163,-7.959 -5.163,-13.247c-0,-5.233 1.741,-9.68 5.198,-13.235c3.503,-3.582 7.708,-5.325 12.582,-5.325c1.212,-0.009 2.42,0.11 3.605,0.36c1.12,0.224 2.214,0.56 3.265,1.004c0.703,0.328 1.563,0.83 2.568,1.605l0.915,-2.361Zm13.418,-0l13.556,-0l-0,2.108l-1.005,-0c-1.012,-0 -1.704,0.157 -2.131,0.423c-0.465,0.27 -0.746,0.676 -1.005,1.18c-0.163,0.527 -0.255,1.521 -0.255,2.991l-0,23.305c-0,1.138 0.092,1.928 0.302,2.439c0.211,0.451 0.569,0.809 0.958,1.02c0.367,0.195 1.059,0.291 2.131,0.291l1.005,0l-0,2.173l-13.553,-0l-0,-2.173l1.047,0c1.016,0 1.765,-0.096 2.154,-0.325c0.402,-0.195 0.703,-0.535 0.914,-0.971c0.156,-0.408 0.259,-1.26 0.259,-2.453l-0,-23.829c-0,-1.321 -0.103,-2.231 -0.259,-2.705c-0.211,-0.481 -0.512,-0.841 -0.914,-1.026c-0.389,-0.264 -1.138,-0.34 -2.154,-0.34l-1.047,-0l-0,-2.108l-0.003,-0Zm-308.213,47.084l11.411,0l10.475,33.556l10.307,-33.556l10.944,0l0,2.513l-0.949,0c-1.094,0 -1.875,0.11 -2.242,0.309c-0.404,0.275 -0.706,0.676 -0.859,1.139c-0.247,0.616 -0.337,1.471 -0.337,2.745l0,28.067c0,1.769 0.056,2.915 0.258,3.44c0.145,0.554 0.446,0.963 0.87,1.212c0.414,0.287 1.173,0.412 2.31,0.412l0.949,0l0,2.555l-13.564,0l-0,-2.555l0.935,0c0.837,0 1.496,-0.065 1.92,-0.272c0.322,-0.138 0.702,-0.389 0.971,-0.733c0.268,-0.429 0.389,-0.848 0.401,-1.237c0.078,-0.814 0.134,-1.46 0.134,-1.907l0,-31.276l-11.635,37.979l-2.71,0l-11.658,-37.425l0,30.133c0,1.485 0.09,2.525 0.314,3.098c0.233,0.488 0.568,0.935 1.025,1.194c0.48,0.321 1.383,0.444 2.578,0.444l0.848,-0l-0,2.556l-12.696,0l0,-2.556l0.726,-0c1.273,-0 2.12,-0.171 2.62,-0.444c0.537,-0.324 0.893,-0.771 1.116,-1.317c0.214,-0.558 0.347,-1.639 0.347,-3.301l0,-27.761c0,-1.555 -0.089,-2.6 -0.277,-3.051c-0.16,-0.469 -0.496,-0.857 -0.938,-1.082c-0.446,-0.259 -1.171,-0.366 -2.332,-0.366l-1.259,0l-0,-2.513l-0.003,0Zm61.877,6.426l4.217,-0l11.169,30.034c0.545,1.496 1.126,2.516 1.615,3.04c0.581,0.481 1.361,0.76 2.309,0.76l0.556,0l0,2.131l-12.792,0l-0,-2.131c0.444,-0.069 0.826,-0.069 1.238,-0.069c0.779,-0 1.36,-0.134 1.627,-0.291c0.469,-0.339 0.714,-0.714 0.714,-1.215c0,-0.35 -0.245,-1.284 -0.714,-2.704l-2.384,-6.936l-12.976,-0l-2.875,7.803c-0.247,0.786 -0.403,1.35 -0.403,1.684c0,0.298 0.121,0.645 0.3,0.893c0.159,0.265 0.408,0.464 0.703,0.557c0.324,0.179 0.779,0.223 1.54,0.223c0.411,-0 0.815,-0 1.091,0.057l0,2.13l-10.674,0l0,-2.13c1.047,-0 1.718,-0.103 2.164,-0.302c0.479,-0.187 0.814,-0.535 1.182,-0.983c0.279,-0.443 0.738,-1.343 1.293,-2.776l11.1,-29.775m-4.561,20.052l11.123,0l-5.555,-15.469l-5.568,15.469Zm27.128,-20.052l18.548,-0c3.529,-0 6.161,0.312 8.01,1.058c1.799,0.771 3.215,1.821 4.152,3.216c0.939,1.36 1.462,2.981 1.462,4.805c0,1.841 -0.523,3.517 -1.431,4.998c-0.903,1.428 -2.287,2.568 -4.092,3.427c-1.74,0.859 -4.08,1.241 -7.015,1.288l9.366,11.627c0.772,0.997 1.231,1.54 1.508,1.719c0.615,0.607 1.226,0.989 1.853,1.249c0.68,0.244 1.372,0.447 2.206,0.447l0.67,0l0,2.131l-8.118,0l-13.109,-17.173l-4.627,-0l0,11.217c0,1.202 0.034,1.951 0.099,2.25c0.18,0.561 0.524,0.955 0.894,1.212c0.435,0.16 1.229,0.363 2.41,0.363l0.961,0l0,2.131l-13.743,0l-0,-2.131l1.249,0c0.902,0 1.54,-0.069 1.853,-0.203c0.324,-0.099 0.612,-0.346 0.848,-0.634c0.255,-0.291 0.443,-0.665 0.558,-1.179c0.042,-0.179 0.042,-1.052 0.042,-2.56l-0,-23.623c-0,-1.084 -0.077,-1.776 -0.28,-2.231c-0.221,-0.458 -0.523,-0.825 -0.859,-1.005c-0.39,-0.167 -1.034,-0.244 -1.94,-0.244l-1.471,0l-0,-2.155m9.378,2.799l0,13.609l7.329,-0c2.566,-0 4.227,-0.226 5.287,-0.568c1.416,-0.347 2.555,-1.116 3.345,-2.231c0.837,-1.075 1.275,-2.465 1.275,-4.183c0,-1.421 -0.302,-2.686 -0.87,-3.671c-0.649,-0.986 -1.417,-1.73 -2.444,-2.215c-1.108,-0.484 -2.59,-0.741 -4.686,-0.741l-9.236,-0Zm41.897,-2.799l4.16,-0l11.169,30.034c0.568,1.496 1.103,2.516 1.67,3.04c0.615,0.481 1.329,0.76 2.254,0.76l0.545,0l0,2.131l-12.737,0l-0,-2.131c0.367,-0.069 0.805,-0.069 1.182,-0.069c0.826,-0 1.361,-0.134 1.651,-0.291c0.415,-0.339 0.703,-0.714 0.703,-1.215c-0,-0.35 -0.223,-1.284 -0.703,-2.704l-2.385,-6.936l-13.008,-0l-2.822,7.803c-0.302,0.786 -0.448,1.35 -0.448,1.684c-0,0.298 0.146,0.645 0.325,0.893c0.169,0.264 0.425,0.461 0.724,0.557c0.314,0.179 0.817,0.223 1.486,0.223c0.466,-0 0.823,-0 1.103,0.057l0,2.13l-10.652,0l-0,-2.13c1.005,-0 1.741,-0.103 2.184,-0.302c0.437,-0.187 0.826,-0.535 1.119,-0.983c0.298,-0.443 0.779,-1.343 1.326,-2.776l11.154,-29.775m-4.596,20.052l11.09,0l-5.479,-15.469l-5.611,15.469Z" style="fill-rule:nonzero;"/><g><path d="M335.054,15.02c1.314,-2.096 0.065,-1.319 0.065,-1.319c-0.436,1.063 -0.847,0.29 -0.847,0.29c-1.449,-1.282 1.605,-6.378 1.605,-6.378c0.469,-0.99 -0.58,-0 -0.58,-0c-3.838,6.263 -2.242,7.712 -2.242,7.712c0.827,1.732 1.999,-0.305 1.999,-0.305m209.703,26.627c-0,0 -1.493,-20.202 -2.709,-26.513c-0,0 -0.427,-1.857 0.611,-0.62l1.417,1.826c-0,-0 0.382,-1.826 -0.656,-3.39c-0,-0 -1.264,-2.634 -1.441,-3.536c0,-0 -0.746,-2.971 -1.448,-1.607c-0,-0 -1.529,2.627 -0.903,3.627l2.308,20.842c-0,-0 1.807,11.034 1.528,14.216c0,-0 1.415,-1.82 1.293,-4.845m-11.177,-27.846c-1.126,1.822 -9.213,8.197 -11.165,9.669c1.271,-0.793 4.606,-2.513 4.606,-2.513c2.89,-1.495 7.252,-6.528 7.252,-6.528c1.529,1.423 1.907,0.332 1.907,0.332c0.994,-1.478 -1.07,-2.563 -1.07,-2.563c0,0 0.648,-1.338 0.088,-4.017c-0.59,-2.632 -3.179,0.125 -3.179,0.125c-1.952,1.859 -0.801,3.49 -0.801,3.49l2.362,2.005Zm-0.168,-4.648c0.893,-0.136 0.893,2.404 0.893,2.404l-1.639,-1.237c-0.892,-0.911 0.746,-1.167 0.746,-1.167m-11.42,14.69l0.423,-0.372c-0.168,0.138 -0.37,0.252 -0.423,0.372m11.81,-1.151c0.703,-1.513 -0.2,-0.611 -0.2,-0.611l-2.498,4.558c-1.005,2.08 0.649,3.09 0.649,3.09c1.974,0.114 1.849,-2.563 1.849,-2.563c-0.492,0.942 -1.302,0.507 -1.302,0.507c-0.761,-0.223 -0,-1.599 -0,-1.599l1.502,-3.382Zm1.875,11.924c-3.27,-2.316 -5.578,3.298 -5.578,3.298c-1.584,4.524 2.567,4.801 2.567,4.801c1.46,-0.233 4.282,-0.039 4.282,-0.039c1.886,0.961 0.481,2.901 0.481,2.901c-2.231,3.377 -7.33,7.139 -7.33,7.139c-3.757,3.09 -7.528,1.72 -7.528,1.72c-5.799,-2.897 -2.21,-9.51 -2.21,-9.51c2.074,-0.149 3.371,-1.519 3.371,-1.519c2.429,-5.351 0.13,-8.379 0.13,-8.379c-1.302,-2.146 -1.817,2.49 -1.817,2.49c0.023,0.782 1.135,1.678 1.135,1.678c0.649,1.575 -3.124,1.772 -3.124,1.772c-2.696,-0.355 -2.15,-3.608 -2.15,-3.608c0.259,-2.094 -1.696,-0.512 -1.696,-0.512c-4.763,3.994 -6.616,3.706 -6.616,3.706c0.058,-1.467 -2.601,-3.678 -2.601,-3.678c-3.69,-2.58 -6.053,3.079 -6.053,3.079c-1.518,4.535 2.017,5.176 2.017,5.176c2.533,0.94 5.824,-0.365 5.824,-0.365l0.055,1.113c-3.627,5.048 -9.561,7.864 -9.561,7.864c-7.005,3.524 -8.981,-2.381 -8.981,-2.381c-1.584,-4.016 2.49,-7.465 2.49,-7.465c2.064,-1.717 2.12,-5.304 2.064,-6.768c0.034,-0.135 0.034,-0.349 0.034,-0.803c0.022,-1.922 -1.774,-4.081 -1.774,-4.081c-1.587,-1.682 -0.535,-1.934 -0.535,-1.934c1.537,0.617 1.082,-0.485 1.082,-0.485l-3.528,-3.079c-1.191,-1.171 -1.191,-0.108 -1.191,-0.108l-0.058,3.394l0.881,1.085c0.259,1.183 3.416,6.405 3.416,6.405c0.825,1.711 -0.67,2.681 -0.67,2.681c-2.887,3.592 -13.23,9.313 -13.23,9.313c-4.642,3.124 -17.647,8.217 -17.647,8.217c1.081,0.018 12.862,-2.448 12.862,-2.448c1.146,-0.303 3.301,-1.341 3.301,-1.341c2.753,-1.477 11.756,-6.971 11.756,-6.971c-3.2,9.429 3.816,11.613 3.816,11.613c7.463,1.379 15.262,-8.453 15.262,-8.453c1.513,-1.703 1.336,-5.204 1.336,-5.204l0.503,-0.783c0.859,-0 3.324,-2.226 3.324,-2.226c0.929,-1.017 2.567,-1.537 2.567,-1.537c-0,4.294 2.857,4.546 2.857,4.546c-0.826,1.329 -1.128,5.653 -1.128,5.653c-0.244,7.54 5.924,7.684 5.924,7.684c6.394,0.349 13.798,-9.533 13.798,-9.533c1.42,-1.601 1.584,-6.369 1.584,-6.369c0.145,-5.109 -3.713,-7.749 -3.713,-7.749m-0.222,4.497l-2.524,0.119c-0,-0 -1.157,-0.474 0.179,-1.286c-0,0 1.161,-0.651 2.567,0.577c0,0 0.815,0.399 -0.222,0.59m-32.096,2.376c0,-0 -0.779,-0.589 0.592,-1.108c0,0 1.284,-0.788 2.724,1.022l-3.316,0.086Z" style="fill:#61116a;fill-rule:nonzero;"/><path d="M473.108,40.045c3.313,0.462 5.676,-3.935 5.676,-3.935c0.447,1.204 2.287,2.005 2.287,2.005c4.041,1.674 4.832,-2.599 4.832,-2.599c1.015,-3.883 -1.372,-5.035 -1.372,-5.035c-1.562,2.62 -0.477,3.379 -0.477,3.379c0.779,1.171 -0.649,0.66 -0.649,0.66c-4.216,-0.038 -3.178,-2.44 -3.178,-2.44c0.656,-1.514 -0.426,-0.753 -0.426,-0.753c-1.773,3.648 -3.378,4.403 -3.378,4.403c-5.076,2.573 -4.908,-2.053 -4.908,-2.053c0.893,-2.065 -0.361,-1.427 -0.361,-1.427c-4.815,4.886 -11.153,5.355 -11.153,5.355c-6.913,0.678 -6.971,-3.902 -6.971,-3.902c0.346,-2.267 -1.135,-0.839 -1.135,-0.839c-3.225,5.292 -7.697,5.02 -7.697,5.02c-4.642,-0.407 -4.362,-5.398 -4.362,-5.398c0.936,-4.895 -3.281,-3.91 -3.281,-3.91c-6.749,2.26 -8.354,9.461 -8.354,9.461c-1.998,6.391 7.372,5.98 7.372,5.98c2.178,0.287 2.22,1.995 2.22,1.995c-2.241,2.455 -9.425,5.614 -9.425,5.614c-9.003,4.186 -14.16,-1.017 -14.16,-1.017c-6.379,-4.267 -1.092,-15.716 -1.092,-15.716c0.714,-2.322 -0.837,-0 -0.837,-0c-1.605,2.175 -2.54,8.218 -2.54,8.218c-2.658,13.701 10.317,14.226 10.317,14.226c7.998,0.212 17.692,-7.807 17.692,-7.807c4.282,-6.496 -0.512,-9.003 -0.512,-9.003c-2.356,-0.143 -5.97,-1.292 -5.97,-1.292c-4.183,-1.936 3.983,-6.453 3.983,-6.453c2.476,-1.776 3.155,1.479 3.155,1.479c-0.588,3.895 2.545,6.293 2.545,6.293c5.13,3.72 9.527,-2.878 9.527,-2.878c0.87,-1.011 1.114,-0.567 1.114,-0.567c1.686,4.811 6.539,4.2 6.539,4.2c4.996,0.219 11.387,-4.54 11.387,-4.54c0.258,3.52 3.592,3.276 3.592,3.276m45.713,-14.164c-0,0 -1.038,1.697 -1.482,3.301c0,0 1.897,1.131 2.898,2.04c0,-0 1.73,-0.445 2.01,-3.019c0,-0 -1.142,-1.563 -3.426,-2.322m-18.106,3.647c0,0 1.865,1.112 2.847,2.084c0,0 1.762,-0.449 1.994,-3.042c0,-0 -1.091,-1.646 -3.368,-2.306c0.002,-0.002 -1.094,1.584 -1.473,3.264m12.862,22.984c0,0 1.417,-2.091 1.751,-2.781c0,0 -1.584,-1.573 -3.423,-2.167l-1.875,3.154c-0,-0 2.509,1.123 2.923,1.793l0.043,0.633l-1.585,2.627c0,-0 3.045,1.77 3.4,2.434c0,-0 1.773,-2.434 1.773,-3.187l-2.621,-1.787l-0.386,-0.719Zm8.838,-2.82c-0,0 -0.168,0.787 0.971,-0.124c-0,0 3.098,-2.177 6.199,-3.233c0,0 1.696,-2.723 -0.109,-1.76l-6.517,3.536l-0.544,1.581Zm-13.074,-27.469c0.123,-0.393 0.826,-0.703 0.826,-0.703l4.469,-0l-5.221,3.673c5.588,-0.638 7.354,-4.454 7.354,-4.454c2.016,-2.086 0.568,-2.276 0.568,-2.276l-4.965,-0.542c-1.919,-0.159 -2.04,0.492 -2.04,0.492l-1.372,2.495c-0.915,1.315 0.381,1.315 0.381,1.315m8.609,-11.157c2.064,0.107 2.287,3.813 2.287,3.813c0.038,1.532 0.772,1.04 0.772,1.04c0.504,-0.691 0.692,-2.76 0.692,-2.76c0.179,-3.332 0.768,-4.083 0.768,-4.083c0.95,-1.243 2.296,1.585 2.296,1.585c0.749,-1.423 -0.589,-3.166 -0.589,-3.166c-2.422,-3.204 -2.8,2.587 -2.8,2.587c-0.102,2.804 -0.659,2.592 -0.659,2.592c-0.838,-4.552 -3.369,-4.494 -3.369,-4.494c-2.02,-0.817 -1.551,1.57 -1.551,1.57c-0.291,1.384 2.153,1.316 2.153,1.316m-67.954,-0.096c2.199,0.069 2.41,3.733 2.41,3.733c-0,1.652 0.836,1.04 0.836,1.04c0.579,-0.631 0.779,-2.73 0.779,-2.73c0.168,-3.329 0.86,-4.077 0.86,-4.077c1.015,-1.258 2.452,1.537 2.452,1.537c0.826,-1.395 -0.626,-3.116 -0.626,-3.116c-2.676,-3.18 -2.978,2.543 -2.978,2.543c-0.156,2.85 -0.768,2.643 -0.768,2.643c-0.948,-4.568 -3.614,-4.484 -3.614,-4.484c-2.22,-0.81 -1.751,1.535 -1.751,1.535c-0.302,1.387 2.4,1.376 2.4,1.376m58.841,-1.626c-0,0 0.245,0.235 0.983,-1.22c-0,-0 0.703,-1.743 -1.563,-0.625c0,-0 -13.563,6.735 -14.002,7.095c-0,-0 -0.768,0.999 -0.503,2.045c0.004,-0 12.086,-6.396 15.085,-7.295m-9.874,8.301c0,-0 -5.676,6.196 -2.528,7.836c-0,0 2.498,-0.085 1.896,-2.278c0,0 -0.458,-0.527 -0.626,0.411c0,-0 -1.74,1.017 -1.249,-0.845c0,-0.002 2.4,-3.942 2.507,-5.124m-16.887,-6.604c0,-0 0.638,0.131 1.215,-0.097c-0,-0 1.674,-0.589 3.426,-0.068c0,0 0.547,0.1 -0.426,0.782l-4.47,2.771c-0,0 -0.2,0.627 0.969,0.079c0,0 1.821,-0.901 3.014,-0.901c-0,-0 1.416,-0.245 3.076,-2.909c0,0 3.392,-3.277 0.545,-3.265c0,-0 -5.621,-1.281 -6.566,0.376c-0,0 -1.832,2.751 -0.783,3.232m-15.949,14.534c3.578,-0.179 3.8,-4.97 3.8,-4.97c0.393,-2.028 -1.001,-0.207 -1.001,-0.207c-0.604,1.682 -1.15,1.858 -1.15,1.858c-3.648,-0.529 -1.093,-6.242 -1.093,-6.242c1.875,-3.038 3.313,-8.179 3.313,-8.179c0.212,-0.734 -0.624,0.343 -0.624,0.343c-2.757,3.838 -5.287,12.22 -5.287,12.22c-0.762,4.647 2.042,5.177 2.042,5.177m10.484,2.146c0,0 1.047,0.241 4.113,-3.75c0,-0 2.48,-4.283 -1.081,-3.754c0,0 -2.108,1.455 -1.459,2.148c0,-0 0.379,0.144 0.669,-0.193c-0,0 1.827,-0.368 0.443,1.907l-2.685,3.642Zm-43.872,-12.947c-0,-0 0.935,0.194 4.059,-3.793c0,0 2.464,-4.209 -1.126,-3.727c0,-0 -2.086,1.438 -1.452,2.196c0,0 0.547,-0.138 0.859,-0.491c0,-0 2.308,-0.999 0.379,2.399l-2.719,3.416Zm48.111,26.382c-0,-0 -7.037,2.855 -8.621,3.77c-0,-0 -1.284,1.472 -0.573,2.203c0,0 7.219,-3.39 8.648,-4.098c-0,0 0.637,0.072 1.149,-0.851c0,0 0.489,-2.217 -0.603,-1.024m-14.847,3.612c-3.535,4.093 -2.276,6.665 -2.276,6.665c1.406,1.925 2.4,-0.13 2.4,-0.13c1.324,-2.086 -0.027,-1.456 -0.027,-1.456c-0.499,0.923 -1.013,0.438 -1.013,0.438c-1.026,-1.124 0.914,-5.157 0.914,-5.157c0.803,-1.114 0.002,-0.36 0.002,-0.36m-18.461,-24.031l4.561,0.023l-4.35,3.016c0,-0 -0.558,1 1.15,0.303c-0,0 2.06,-1.005 3.044,-0.827l2.074,-2.338c-0,-0 3.301,-3.608 0.259,-3.648l-5.489,-0.113c0,0 -2.14,1.864 -2.075,3.728c-0.002,-0.002 0.09,0.488 0.826,-0.144m-16.634,2.948c0,-0 2.254,1.585 2.578,1.981c-0,-0 1.282,-0.973 1.784,-2.468c-0,-0 -0.256,-1.029 0.982,-0.174l2.822,1.749l1.593,-2.949c0,0 -2.13,-2.099 -3.422,-2.399c0,0 -0.881,-0.29 -2.096,2.537l-2.713,-1.748c0,-0 -0.513,-0.582 -1.317,1.152c0,0.003 -1.605,1.549 -0.211,2.319" style="fill:#61116a;fill-rule:nonzero;"/><path d="M448.456,49.95c-0,0 1.282,-0.999 1.794,-2.558c-0,-0 -0.233,-0.953 0.983,-0.13l2.811,1.763l1.573,-2.895c-0,0 -2.085,-2.125 -3.324,-2.457c-0,0 -0.936,-0.268 -2.185,2.527l-2.722,-1.755c-0,0 -0.47,-0.544 -1.307,1.209c-0,0 -1.562,1.526 -0.153,2.245c-0.001,0 2.227,1.629 2.53,2.051m-6.551,2.247c-0,0 -1.347,3.204 -2.07,2.566l-2.778,-1.814c0,-0 -0.447,-0.513 -1.252,1.23c-0,-0 -1.605,1.527 -0.179,2.294c-0,0 2.187,1.599 2.513,1.969c-0,0 1.302,-0.975 1.794,-2.518c-0,-0 -0.221,-0.949 0.983,-0.12l2.833,1.793l1.585,-2.975c-0.003,0 -2.122,-2.11 -3.429,-2.425m-48.888,-1.478c0,-0 -1.34,3.141 -2.134,2.513l-2.757,-1.691c-0,0 -0.412,-0.583 -1.238,1.124c0,-0 -1.605,1.594 -0.167,2.315c-0,0 2.154,1.547 2.523,1.963c-0,0 1.272,-0.987 1.784,-2.512c-0,-0 -0.256,-0.986 0.913,-0.08l2.891,1.737l1.574,-2.942c-0,-0.002 -2.131,-2.137 -3.389,-2.427m4.36,-21.903c-0,0 2.296,1.456 2.621,1.85c-0,0 1.226,-1.05 1.661,-2.564c-0,0 -0.267,-0.975 0.97,-0.252l2.899,1.679l1.383,-3.026c0,0 -2.162,-1.982 -3.48,-2.228c0,0 -1.18,3.193 -1.974,2.628l-2.854,-1.634c-0,-0 -0.436,-0.508 -1.161,1.241c0.002,-0 -1.517,1.642 -0.065,2.306m51.49,26.849l-0.714,1.187c0,0 -0.355,1.28 1.07,0.332c0,0 5.592,-3.039 8.278,-3.988c-0,0 0.335,-0.633 0.211,-1.623c0.002,0 -4.994,1.948 -8.845,4.092m-48.046,-0.418l-0.665,1.176c0,0 -0.405,1.309 1.07,0.303c0,-0 5.545,-3.048 8.274,-3.947c0,-0 0.271,-0.659 0.18,-1.62c-0,0 -4.941,1.919 -8.859,4.088m16.343,-43.922c0,-0 0.994,-0.664 2.601,-0.629l2.043,0.194l-4.787,3.874c-0,-0 3.247,-1.24 4.863,-1.487c0,0 6.485,-5.778 2.567,-6.023l-4.939,-0.109c-0,0 -1.216,-0.175 -1.94,1.118c-0.005,-0.001 -2.672,3.852 -0.408,3.062m-57.39,-0.379c0,-0 0.845,-0.626 2.374,-0.594l1.864,0.206l-4.394,3.871c-0,0 2.91,-1.27 4.461,-1.5c-0,0 5.835,-5.728 2.299,-6.037l-4.544,-0.111c0,0 -1.058,-0.18 -1.75,1.146c0,-0 -2.374,3.836 -0.31,3.019m62.669,9.791c-1.528,0 -4.652,10.983 -4.652,10.983c-1.092,3.623 0.936,6.873 0.936,6.873c2.544,3.325 4.786,-4.077 4.786,-4.077c0.482,-2.578 -1.127,-0.916 -1.127,-0.916c-0.78,2.704 -2.12,1.984 -2.12,1.984c-3.388,-1.896 1.307,-11.502 1.307,-11.502c1.114,-2.402 0.87,-3.345 0.87,-3.345m1.238,22.998c-0,-0 -0.356,-1.923 -2.176,-0.491c-0,0 -1.807,1.68 -0.191,1.692c0,-0 1.719,-0.578 0.459,1.422l-2.923,3.981l1.26,-0.896c-0,-0 4.084,-3.904 3.571,-5.708m-23.348,-32.18c0,-0 1.271,0.743 2.287,0.6c0,-0 1.093,1.269 1.26,4.397c0,0 1.806,-1.564 1.508,-6.546c0,-0 0.692,-2.905 2.152,1.298c-0,0 1.047,-2.627 -0.628,-3.885c0,0 -2.049,-1.511 -2.173,2.936c0,0 -0.102,2.529 -0.367,3.501c0,-0 -1.394,-5.599 -4.139,-4.923c-0,0.002 -1.141,1.955 0.1,2.622m-21.822,37.176c0,-0 -2.253,-1.467 -2.398,2.992c-0,-0 -0.077,2.478 -0.39,3.433c-0,0 -1.529,-5.593 -4.416,-4.823c0,0 -1.284,1.934 0.054,2.566c-0,-0 1.405,0.714 2.444,0.611c0,0 1.183,1.27 1.361,4.388c-0,0 1.952,-1.575 1.653,-6.513c-0,0 0.757,-2.923 2.352,1.253c-0,-0 1.07,-2.66 -0.66,-3.907" style="fill:#61116a;fill-rule:nonzero;"/><path d="M403.432,43.69c0,0 3.783,-1.176 2.556,-7.478c0,0 -1.195,-2.516 -1.74,-1.184c-0,0 -0.937,2.393 0.033,3.442c-0,-0 1.394,1.493 -1.562,1.748c0,0 -3.112,0.553 -3.682,-2.159c0,-0 0.437,-3.363 -1.66,-1.28c-0,0 -3.739,6.833 -8.804,4.071c0,0 -4.718,-2.4 -8.766,-7.613l-14.057,-13.197c-0,0 -0.668,-1.219 0.638,-1.629c-0,0 17.646,-8.949 25.007,-8.522c0,-0 2.912,0.052 0.493,3.032c-0,0 -3.771,5.541 -3.091,7.346c-0,0 0.313,0.252 1.383,-2.046c0,-0 2.166,-4.867 3.56,-6.431c0,-0 3.534,-6.241 -3.147,-5.238c0,0 -11.214,1.51 -24.242,8.67c0,0 -1.192,0.622 -1.807,3.301l-0.47,3.022c0,-0 0.023,1.294 1.563,2.913c0,-0 11.057,11.86 11.446,14.906c0,-0 -0.335,3.597 -4.415,2.251c-0,0 -1.664,-0.484 -2.086,-3.118c-0,-0 -0.037,-2.896 -1.318,-1.244c0,-0 -3.389,3.215 -5.011,3.878c0,-0 -0.622,-0.184 -1.114,-1.051c0,0 -2.701,-5.111 -5.546,-2.485c0,-0 -5.209,5.079 -0.713,8.094c0,-0 3.357,1.341 5.733,0.154c0,-0 1.017,0.281 -0.179,1.84c0,-0 -5.3,6.492 -10.9,7.564c0,0 -9.561,1.603 -7.631,-8.621l1.329,-3.912c0,-0 0.389,-1.907 -0.681,-0.44c0,-0 -4.962,8.735 -0.312,14.839c-0,0 3.994,4.02 9.192,1.006c0,0 11.624,-5.448 11.112,-13.109c0,0 3.491,-2.53 4.874,-4.203c0,-0 0.638,4.323 3.681,4.615c-0,-0 7.54,-0.292 4.474,-8.642l-1.394,-2.808l6.993,6.997c-0,-0 3.557,5.56 8.712,3.957c0,-0 3.762,-1.095 4.955,-4.199c0,-0 0.665,-1.558 1.012,0.124c0.003,0 1.311,4.997 5.582,2.839m-46.425,-1.586c2.161,-2.359 3.924,0.332 3.924,0.332c-2.767,0.457 -3.924,-0.332 -3.924,-0.332" style="fill:#61116a;fill-rule:nonzero;"/><path d="M391.52,24.48c-4.237,7.117 -2.432,8.819 -2.432,8.819c0.902,1.935 2.151,-0.376 2.151,-0.376c1.452,-2.446 0.068,-1.537 0.068,-1.537c-0.301,1.096 -1.058,0.828 -1.058,0.828c-1.674,-1.525 1.883,-7.75 1.883,-7.75c0.503,-1.046 -0.612,0.016 -0.612,0.016m-39.578,-9.46c1.383,-2.096 0.11,-1.319 0.11,-1.319c-0.412,1.063 -0.837,0.29 -0.837,0.29c-1.471,-1.282 1.589,-6.378 1.589,-6.378c0.499,-0.99 -0.55,-0 -0.55,-0c-3.838,6.263 -2.216,7.712 -2.216,7.712c0.799,1.732 1.904,-0.305 1.904,-0.305m28.845,10.377l-7.93,-2.277c-1.841,-0.499 -1.183,0.294 -1.183,0.294c0.612,-0.164 1.638,1.35 1.638,1.35l6.795,1.876c2.123,0.72 2.323,-1.597 2.323,-1.597c1.886,-2.604 -3.637,-3.003 -3.637,-3.003c-2.513,-0.807 -1.416,-1.601 -1.416,-1.601c1.458,-1.227 2.756,-0.164 2.756,-0.164c0.813,0.841 1.18,-0.232 1.18,-0.232c1.005,-1.216 -0.756,-1.39 -0.756,-1.39c-4.622,0.077 -4.788,2.658 -4.788,2.658c-0.199,2.272 5.188,2.757 5.188,2.757c1.484,1.329 -0.17,1.329 -0.17,1.329m-64.231,0.978l-7.081,-3.701c-1.664,-0.867 -1.184,-0 -1.184,-0c0.649,-0 1.303,1.597 1.303,1.597l6.016,3.138c1.973,1.158 2.566,-1.035 2.566,-1.035c2.33,-2.103 -2.857,-3.603 -2.857,-3.603c-2.231,-1.264 -1.049,-1.81 -1.049,-1.81c1.675,-0.859 2.702,0.393 2.702,0.393c0.569,0.977 1.195,0 1.195,0c1.126,-0.954 -0.513,-1.476 -0.513,-1.476c-4.361,-0.82 -5.122,1.629 -5.122,1.629c-0.579,2.102 4.495,3.603 4.495,3.603c1.102,1.581 -0.471,1.265 -0.471,1.265m45.079,3.216c-1.693,2.377 -0.892,3.062 -0.892,3.062c0.679,0.344 2.355,1.604 2.355,1.604c0.914,0.771 1.693,-0.787 1.693,-0.787c1.42,-1.961 0.346,-2.692 0.346,-2.692l-2.788,-1.679c-0.58,-0.267 -0.714,0.492 -0.714,0.492m-6.427,-7.173l1.906,1.361c0,0 0.94,0.209 -0.244,1.553c0,-0 -6.035,5.596 -7.005,6.184c0,0 1.326,-0.297 2.622,-1.388c-0,0 4.438,-2.463 5.832,-5.215c-0,0 0.848,0.201 1.081,0.747c0,0 0.94,0.104 0.971,-1.455c-0,-0 -0.368,-0.776 -1.195,-1.36c0,0 -0.355,-0.326 0.092,-1.479c-0,-0 -0.092,-5.494 -1.978,-4.038c0.006,0.002 -4.412,3.553 -2.082,5.09m1.832,-2.986c0.859,-0.37 0.893,2.536 0.893,2.536l-1.73,-1.205c-0.747,-0.705 0.837,-1.331 0.837,-1.331m-16.398,23.667c0,0 5.233,-2.151 5.131,-5.699c-0,-0 0.892,-6.817 -1.952,-22.523c0,-0 -0.546,-1.271 0.423,-0.233l1.463,1.714c-0,0 0.958,0.552 -0.469,-2.996c-0,-0 -2.545,-7.495 -3.179,-6.387c-0,0 -1.15,2.928 -0.913,3.804c0,0 0.321,0.197 0.368,1.925l2.787,22.812c0,0 1.406,2.399 -5.981,4.568c-0,-0 -0.882,-6.179 -6.135,-4.503c0,0 -2.566,0.847 -2.864,4.638c0,0 -0.692,3.794 2.676,4.136c0,0 3.448,0.378 5.119,-0.13c0,0 0.76,1.29 -0.557,2.452c-0,-0 -6.593,6.945 -12.571,7.593c-0,-0 -5.087,1.503 -5.935,-4.631c-0,-0 -0.233,-4.711 1.719,-7.213c-0,0 0.978,-3.404 -0.302,-1.455c-0,0 -5.242,8.251 -1.417,14.864c-0,-0 3.091,5.125 10.107,0.973c0,-0 8.956,-5.443 9.804,-9.123c-0,-0 0.928,-2.851 0.738,-3.712c-0,0 0.32,-0.359 1.94,-0.874m-9.181,-2.674c1.853,-2.604 3.927,0.19 3.927,0.19c-1.517,0.489 -3.927,-0.19 -3.927,-0.19" style="fill:#61116a;fill-rule:nonzero;"/><path d="M316.377,40.045c0,-0 5.241,-3.582 7.799,-4.776c-0,-0 0.26,-0.697 -0,-1.652c-0,0 -4.675,2.469 -8.334,4.964l-0.568,1.282c0.001,0.003 -0.291,1.358 1.103,0.182m0.136,15.467l-1.952,-1.405c-1.138,-0.84 -1.27,-0.105 -1.27,-0.105l-0.962,1.698c-0.59,1.37 -1.195,0.359 -1.195,0.359l-1.918,-1.229c-0.86,-0.89 -1.115,-0.073 -1.115,-0.073l-1.059,2.089c-0.637,0.904 0.179,1.253 0.179,1.253c0.681,0.268 1.796,1.226 1.796,1.226c0.745,0.789 1.183,0.194 1.183,0.194c0.825,-0.744 1.26,-2.167 1.26,-2.167c0.39,-1.037 2.633,1.161 2.633,1.161c1.149,0.788 1.27,0.251 1.27,0.251l1.074,-1.651c0.757,-1.253 0.076,-1.601 0.076,-1.601m20.504,-31.056c0,-0 0.267,-0 0.623,0.714c-0,-0 0.668,-0.194 0.962,-0.833c0.423,-0.861 -0.569,-1.646 -0.569,-1.646c0.791,-1.461 0.18,-3.997 0.18,-3.997c-0.291,-3.64 -3.595,0.823 -3.595,0.823c-2.13,2.158 1.459,4.024 1.459,4.024c0,-0 0.849,0.041 -0.13,0.937c0,0 -7.128,5.706 -8.121,6.524c-0.002,-0 6.235,-2.894 9.191,-6.546m-1.363,-3.933c0,-0 -0.668,-0.714 0.692,-1.255c0,0 0.871,-0.439 0.757,2.369l-1.449,-1.114Z" style="fill:#61116a;fill-rule:nonzero;"/><path d="M311.85,44.578c0,-0 1.238,0.097 2.176,1.102c0,-0 -1.003,1.758 -5.198,3.639c0,0 -9.404,5.659 -15.63,4.426c0,0 -11.802,-2.513 -5.511,-17.185c-0,0 1.275,-2.251 0.36,-2.39c0,0 -0.795,-0.06 -1.598,2.61c0,0 -5.264,12.698 0.729,18.124c-0,-0 5.087,5.449 12.869,2.107c-0,-0 9.717,-4.107 13.244,-6.98c-0,0 5.464,-8.475 -2.097,-9.527c0,0 4.827,-3.551 2.017,-9.726c-0,0 -2.666,-3.654 -4.653,-4.818c0,0 -4.415,-3.4 -4.828,-4.73c-0,-0 0.802,-0.152 2.297,0.577c0,0 1.249,0.023 -0.043,-0.926l-4.863,-3.279c0,-0 -1.074,-0.627 0.503,-1.26c0,0 11.241,-5.088 19.965,-6.877c-0,0 5.578,-0.965 4.038,1.972c-0,0 -2.364,3.833 -3.301,7.03c-0,0 -0.612,2.085 0.749,0c0,0 2.922,-6.671 4.015,-8.224c0,0 1.605,-3.265 -1.093,-4.181c0,-0 -1.907,-0.507 -4.976,0.199c-0,0 -8.355,1.395 -20.013,6.955c0,-0 -3.479,4.406 -1.339,7.335c0,0 2.134,2.365 3.102,3.661c-0,-0 3.826,3.968 5.285,4.961c0,0 5.792,4.285 4.61,6.435c-0,-0 -1.773,2.262 -7.562,4.437c0,-0 -0.55,-0 -0.837,2.393c0,-0 -0.047,1.176 2.086,1.358l5.497,0.782Zm-16.451,-34.476c0.714,0.371 2.398,1.662 2.398,1.662c0.882,0.754 1.703,-0.783 1.703,-0.783c1.407,-1.963 0.291,-2.672 0.291,-2.672l-2.766,-1.678c-0.568,-0.288 -0.714,0.473 -0.714,0.473c-1.676,2.414 -0.912,2.998 -0.912,2.998" style="fill:#61116a;fill-rule:nonzero;"/><path d="M294.159,31.847c-0,0 0.87,-0.646 2.34,-0.622l1.887,0.208l-4.351,3.692c0,0 2.913,-1.223 4.416,-1.45c-0,0 5.837,-5.396 2.301,-5.67l-4.507,-0.046c-0,-0 -1.119,-0.235 -1.762,1.028c-0,-0.002 -2.376,3.584 -0.324,2.86m4.038,12.425c-0,0 0.289,-3.983 -1.887,-2.622c-0,-0 -1.807,1.679 -1.282,2.696c-0,0 0.168,0.323 0.611,-0.124c0,-0 1.664,-1.117 0.913,0.791c-0,0 -1.448,3.576 -3.455,5.526c0.003,-0 4.04,-2.774 5.1,-6.267m-12.818,-19.576c0,0 -1.058,2.949 -2.242,2.284c-0,-0 -1.974,-2.334 -0.736,-7.342c-0,-0 2.967,-6.958 3.323,-8.42l3.335,-1.412c-0,0 1.62,-1.503 0.512,-3.039c0,-0 -24.908,12.097 -27.386,14.137c0,-0 -0.78,0.861 -0.767,2.411c-0,0 0.423,0.529 1.07,-0.287c-0,-0 12.403,-7.471 21.932,-11.107c-0,0 0.13,0.594 -0.893,2.164c-0,-0 -3.805,6.997 -2.903,12.66c-0,-0 0.367,5.782 3.08,3.732c-0,0 2.275,-1.59 2.318,-5.542c0.004,0.002 -0.396,-0.947 -0.643,-0.239" style="fill:#61116a;fill-rule:nonzero;"/><path d="M270.52,30.272c-0,-0 -0.067,0.806 1.07,-0.371c-0,0 3.939,-4.884 1.976,-6.216c-0,-0 -1.049,-1.319 -2.23,0.87c-0,-0 -0.938,1.209 0.132,1.085c-0,-0 1.495,-1.108 1.249,0.659c-0,0.002 -0.78,2.517 -2.197,3.973m-6.202,-19.14c0,-0 1.495,0.567 2.531,0.332c0,-0 1.317,1.154 1.898,4.283c0,-0 1.82,-1.782 0.859,-6.785c0,0 0.424,-3.095 2.531,1.005c0,0 0.824,-2.768 -1.105,-3.859c0,0 -2.432,-1.241 -2.075,3.272c0,-0 0.214,2.55 0,3.58c0,0 -2.13,-5.526 -4.985,-4.457c0.002,-0.003 -1.026,2.155 0.346,2.629m-0.781,23.767c-1.461,2.519 -0.21,4.023 -0.21,4.023c1.839,1.411 2.71,-1.416 2.71,-1.416c0.389,-1.726 -0.381,-0.876 -0.381,-0.876c-0.268,0.973 -1.237,0.773 -1.237,0.773c-1.515,-1.434 1.439,-6.244 1.439,-6.244c-0.737,-0.258 -2.321,3.74 -2.321,3.74m-6.615,20.031c-0.224,0.932 -1.125,0.747 -1.125,0.747c-1.328,-1.422 1.259,-6.197 1.259,-6.197c-0.6,-0.317 -2.029,3.663 -2.029,3.663c-1.261,2.557 -0.168,4.048 -0.168,4.048c1.64,1.417 2.387,-1.422 2.387,-1.422c0.336,-1.754 -0.324,-0.839 -0.324,-0.839" style="fill:#61116a;fill-rule:nonzero;"/><path d="M278.898,35.869c-2.845,-3.26 -5.8,2.777 -5.8,2.777c-0.961,-0.119 -1.251,0.673 -1.251,0.673c-0.347,1.297 -1.283,3.199 -1.283,3.199c-4.664,5.455 -9.449,1.292 -9.449,1.292c-2.911,-2.159 -2.889,-20.698 -2.889,-20.698c-0.324,-6.343 -1.729,-14.987 -1.729,-14.987c-0.121,-1.782 -0.737,-0.98 -0.737,-0.98l-1.227,2.878c0.279,0.451 0.704,3.895 0.704,3.895c1.506,5.043 1.437,19.47 2.453,27.491c1.014,8.077 7.607,7.624 7.607,7.624c4.507,0.154 6.682,-6.312 6.682,-6.312c1.584,1.702 5.902,2.822 5.902,2.822c1.237,0.382 2.512,-0.354 2.512,-0.354l1.059,-2.822c-0,-0.125 -0,-0.155 -0.058,-0.258c-0.322,-2.064 -2.496,-6.24 -2.496,-6.24m-4.974,3.998c0.87,-1.564 2.487,-1.124 2.487,-1.124c1.563,0.782 1.608,2.787 1.608,2.787l-4.095,-1.663Zm2.175,10.258c-0,-0 -0.269,-0.438 -0.546,0.162c-0,-0 -0.626,2.535 -3.783,3.89c0,0 -5.397,2.634 -7.461,3.293c0,0 3.189,-0.62 4.138,-0.392c0,0 4.519,-2.057 5.712,-2.873c-0,-0 1.125,-1.383 1.259,-2.091c-0,-0 0.669,-0.326 2.189,0.867c-0,-0 0.958,0.544 1.416,-0.513c0,-0 0.58,-1.27 -0.725,-3.734c0,-0.002 -1.096,-1.099 -2.199,1.391m1.54,1.034l-1.017,-0.512c1.303,-1.12 1.017,0.512 1.017,0.512m-23.629,-14.39l-2.799,-4.889l1.183,-0.097c0,0 0.079,-0.623 -1.203,-1.591c-0,-0 -2.254,-3.818 -2.566,-2.222c0,-0 -0.792,3.396 0,3.968c0,0 0.368,0.309 0.835,1.564c0,0 4.351,5.962 2.61,7.74c0,0 -2.41,2.771 -4.418,3.817c0,0 -16.465,10.415 -22.945,12.54c0,0 7.049,-1.897 9.603,-1.793c0,0 3.169,-0.332 4.54,-1.411l11.96,-7.864c-0,-0 5.076,-4.501 3.2,-9.762m-1.237,-17.204c-0,-0 0.637,-0.175 0.859,-1.143c-0,-0 0.613,-1.871 -0.669,-0.656l-11.759,6.219c0,-0 -0.646,1.284 -0.556,1.895l12.125,-6.315Zm-5.924,-5.685c0.302,-1.264 -0.269,-1.074 -0.557,-0.211c-0.258,0.896 -0.838,0.298 -0.838,0.298c-1.794,-2.174 1.395,-6.489 1.395,-6.489c0.445,-1.563 -0.815,-0.113 -0.815,-0.113c-3.423,5.525 -1.315,8.729 -1.315,8.729c1.863,0.739 2.13,-2.214 2.13,-2.214" style="fill:#61116a;fill-rule:nonzero;"/><path d="M236.028,37.355c0,0 1.73,8.796 0.726,11.165c-0,-0 2.656,-4.25 1.226,-13.7l-2.319,-20.367c-0,0 1.395,1.375 1.762,2.187c0,-0 0.424,-1.046 -0.57,-2.758c-0,-0 -2.42,-8.333 -3.136,-7.151c0,0 -1.761,2.923 -0.835,3.598l3.146,27.026Z" style="fill:#61116a;fill-rule:nonzero;"/></g><g><path d="M65.558,126.921l-23.648,-0l133.021,67.154c2.045,-2.857 3.924,-5.829 5.628,-8.901l-115.001,-58.253Z" style="fill:#fff;fill-rule:nonzero;"/></g><g><path d="M135.353,126.921l-114.99,58.249c1.703,3.073 3.583,6.044 5.631,8.899l133.009,-67.148l-23.65,-0Z" style="fill:#fff;fill-rule:nonzero;"/></g><path d="M141.184,152.467l1.07,-5.477l14.68,-4.561l7.018,1.616l10.017,7.33l-0.535,1.183l2.508,6.107l-5.865,6.385l-7.351,-10.473l-6.246,-2.744l-3.75,3.413l-3.347,1.359c-0,-0 0.546,1.791 -0.971,2.387l-4.507,-1.917l7.698,11.478c0,0 -9.684,-8.262 -30.053,3.815c-0,0 -9.903,7.986 -22.408,11.334c-0,-0 -9.426,1.705 -19.855,10.106c-10.452,8.365 -27.543,11.868 -38.308,16.26c0,-0 16.945,-13.449 23.112,-15.986c0,-0 6.716,-3.089 14.714,-9.096c9.695,-7.218 15.361,-8.737 21.543,-10.392c-0,-0 8.544,-2.6 16.819,-10.635c0,-0 7.753,-4.301 9.349,-5.914c0,0 2.778,-3.384 5.053,-8.911l0.747,3.062c0,0 4.843,-5.305 3.459,-8.723l5.409,8.994Z" style="fill:#fff;fill-rule:nonzero;"/><path d="M59.727,152.467l-1.07,-5.477l-14.68,-4.561l-7.018,1.616l-10.018,7.33l0.535,1.183l-2.508,6.107l5.865,6.385l7.353,-10.473l6.246,-2.744l3.748,3.413l3.348,1.359c0,-0 -0.546,1.791 0.971,2.387l4.508,-1.917l-7.699,11.478c0,0 9.683,-8.262 30.053,3.815c-0,0 9.903,7.986 22.409,11.334c-0,-0 9.426,1.705 19.855,10.106c10.451,8.365 27.542,11.868 38.306,16.26c0,-0 -16.943,-13.449 -23.111,-15.986c-0,-0 -6.717,-3.089 -14.715,-9.096c-9.694,-7.218 -15.361,-8.737 -21.542,-10.392c0,-0 -8.544,-2.6 -16.82,-10.635c0,-0 -7.753,-4.301 -9.347,-5.914c-0,0 -2.778,-3.384 -5.055,-8.911l-0.747,3.062c0,0 -4.842,-5.305 -3.457,-8.723l-5.41,8.994Z" style="fill:#fff;fill-rule:nonzero;"/></g></g></svg>