<?xml version="1.0" encoding="UTF-8" standalone="no"?>
<!DOCTYPE svg PUBLIC "-//W3C//DTD SVG 1.1//EN" "http://www.w3.org/Graphics/SVG/1.1/DTD/svg11.dtd">
<svg width="100%" height="100%" viewBox="0 0 798 239" version="1.1" xmlns="http://www.w3.org/2000/svg" xmlns:xlink="http://www.w3.org/1999/xlink" xml:space="preserve" xmlns:serif="http://www.serif.com/" style="fill-rule:evenodd;clip-rule:evenodd;stroke-linejoin:round;stroke-miterlimit:2;">
    <g id="Artboard1" transform="matrix(0.738603,0,0,0.220731,0,0)">
        <rect x="0" y="0" width="1080" height="1080" style="fill:none;"/>
        <g id="Layer-1" serif:id="Layer 1" transform="matrix(4.74611,0,0,15.8813,-1461.76,-4196.54)">
            <g transform="matrix(1,0,0,1,0,-23.669)">
                <rect x="377.405" y="295.987" width="155.674" height="26.975" style="fill:rgb(63,54,139);"/>
            </g>
            <g transform="matrix(1,0,0,1,0,29.781)">
                <rect x="377.405" y="269.015" width="155.674" height="27.469" style="fill:rgb(241,141,36);"/>
            </g>
            <g transform="matrix(1,0,0,1,395.727,287.287)">
                <path d="M0,-3.75C0,-5.119 -0.044,-7.633 -0.419,-8.297C-0.569,-8.557 -0.969,-8.714 -1.515,-8.76L-2.06,-8.807C-2.192,-8.952 -2.148,-9.245 -2.017,-9.329C-1.181,-9.288 -0.373,-9.265 0.482,-9.265C1.406,-9.265 1.994,-9.288 2.782,-9.329C2.964,-9.219 2.939,-8.934 2.827,-8.807L2.307,-8.76C1.754,-8.714 1.319,-8.514 1.205,-8.233C0.876,-7.511 0.897,-4.979 0.897,-3.75L0.897,-1.272C0.897,0.641 0.594,2.659 -0.635,3.973C-1.577,5.005 -3.201,5.579 -4.825,5.579C-6.338,5.579 -7.851,5.292 -8.926,4.371C-10.087,3.408 -10.64,1.801 -10.64,-0.812L-10.64,-5.987C-10.64,-8.276 -10.679,-8.65 -11.951,-8.76L-12.499,-8.807C-12.632,-8.888 -12.587,-9.265 -12.457,-9.329C-11.359,-9.288 -10.614,-9.265 -9.737,-9.265C-8.84,-9.265 -8.114,-9.288 -7.038,-9.329C-6.912,-9.265 -6.866,-8.888 -6.99,-8.807L-7.519,-8.76C-8.795,-8.65 -8.84,-8.276 -8.84,-5.987L-8.84,-1.25C-8.84,2.286 -7.741,4.614 -4.381,4.614C-1.209,4.614 0,2.112 0,-1.229L0,-3.75" style="fill:white;fill-rule:nonzero;"/>
            </g>
            <g transform="matrix(1,0,0,1,399.195,289.617)">
                <path d="M0,-3.407C0,-4.258 0,-4.369 -0.595,-4.769L-0.79,-4.896C-0.879,-4.983 -0.879,-5.224 -0.769,-5.295C-0.263,-5.469 0.986,-6.038 1.422,-6.369C1.514,-6.369 1.624,-6.323 1.669,-6.215C1.624,-5.711 1.624,-5.377 1.624,-5.181C1.624,-5.05 1.714,-4.943 1.862,-4.943C2.789,-5.512 3.817,-6.062 4.933,-6.062C6.756,-6.062 7.498,-4.81 7.498,-3.337L7.498,0.434C7.498,2.023 7.543,2.238 8.333,2.347L8.814,2.411C8.967,2.521 8.924,2.899 8.773,2.962C8.11,2.921 7.481,2.899 6.708,2.899C5.922,2.899 5.262,2.921 4.671,2.962C4.519,2.899 4.475,2.521 4.626,2.411L5.042,2.347C5.857,2.217 5.878,2.023 5.878,0.434L5.878,-2.835C5.878,-4.088 5.306,-5.007 3.817,-5.007C2.978,-5.007 2.263,-4.658 1.951,-4.242C1.669,-3.867 1.624,-3.56 1.624,-2.919L1.624,0.434C1.624,2.023 1.669,2.217 2.457,2.347L2.851,2.411C3.006,2.521 2.96,2.899 2.802,2.962C2.216,2.921 1.575,2.899 0.808,2.899C0.021,2.899 -0.638,2.921 -1.25,2.962C-1.402,2.899 -1.443,2.521 -1.292,2.411L-0.831,2.347C-0.024,2.238 0,2.023 0,0.434L0,-3.407" style="fill:white;fill-rule:nonzero;"/>
            </g>
            <g transform="matrix(1,0,0,1,409.723,284.349)">
                <path d="M0,1.861C0,1.01 0,0.899 -0.595,0.499L-0.794,0.372C-0.881,0.285 -0.881,0.044 -0.768,-0.027C-0.265,-0.201 0.986,-0.77 1.487,-1.101C1.6,-1.101 1.683,-1.055 1.711,-0.974C1.665,-0.201 1.621,0.853 1.621,1.751L1.621,5.702C1.621,7.291 1.665,7.506 2.454,7.615L2.916,7.679C3.071,7.789 3.026,8.167 2.87,8.23C2.209,8.189 1.575,8.167 0.808,8.167C0.021,8.167 -0.635,8.189 -1.254,8.23C-1.408,8.167 -1.446,7.789 -1.297,7.679L-0.838,7.615C-0.021,7.506 0,7.291 0,5.702L0,1.861ZM1.793,-5.249C1.793,-4.483 1.246,-4.132 0.652,-4.132C-0.021,-4.132 -0.463,-4.613 -0.463,-5.203C-0.463,-5.933 0.086,-6.369 0.725,-6.369C1.38,-6.369 1.793,-5.869 1.793,-5.249" style="fill:white;fill-rule:nonzero;"/>
            </g>
            <g transform="matrix(1,0,0,1,414.02,290.631)">
                <path d="M0,-4.594C-0.327,-5.406 -0.527,-6.107 -1.314,-6.219L-1.755,-6.28C-1.887,-6.461 -1.865,-6.768 -1.687,-6.829C-1.141,-6.789 -0.372,-6.768 0.38,-6.768C0.965,-6.768 1.407,-6.789 2.15,-6.829C2.3,-6.745 2.325,-6.391 2.167,-6.28L1.908,-6.24C1.229,-6.13 1.209,-6.02 1.428,-5.358C1.93,-3.848 2.567,-2.309 3.07,-1.17C3.267,-0.731 3.354,-0.531 3.423,-0.47C3.513,-0.531 3.667,-0.841 3.84,-1.299C4.124,-2.047 4.868,-3.958 5.088,-4.53C5.398,-5.295 5.487,-5.753 5.487,-5.886C5.487,-6.087 5.353,-6.177 5.088,-6.219L4.584,-6.28C4.454,-6.44 4.474,-6.745 4.629,-6.829C5.309,-6.789 5.856,-6.768 6.274,-6.768C6.82,-6.768 7.194,-6.789 7.81,-6.829C7.961,-6.745 7.982,-6.414 7.853,-6.28L7.522,-6.24C6.752,-6.13 6.559,-5.562 5.925,-4.332C5.616,-3.737 4.259,-0.556 3.904,0.347C3.68,0.9 3.465,1.403 3.18,2.147L2.962,2.235C2.847,2.235 2.74,2.213 2.672,2.147C2.499,1.532 2.167,0.673 1.844,-0.136L0,-4.594" style="fill:white;fill-rule:nonzero;"/>
            </g>
            <g transform="matrix(1,0,0,1,423.232,290.137)">
                <path d="M0,-3.899C-0.155,-3.899 -0.155,-3.965 -0.155,-4.012C-0.129,-4.737 0.988,-5.921 2.281,-5.921C3.557,-5.921 3.974,-5.152 3.974,-4.537C3.974,-4.256 3.904,-4.163 3.842,-4.121C3.666,-3.992 3.181,-3.899 1.559,-3.899L0,-3.899ZM4.26,-3.241C5.181,-3.241 5.481,-3.265 5.549,-3.4C5.594,-3.485 5.639,-3.658 5.639,-3.965C5.639,-5.285 4.41,-6.582 2.523,-6.582C-0.109,-6.582 -1.881,-4.32 -1.881,-1.617C-1.881,-0.651 -1.623,0.378 -0.961,1.236C-0.324,2.068 0.791,2.683 2.218,2.683C3.359,2.683 4.937,2.138 5.66,0.645C5.639,0.444 5.481,0.312 5.267,0.378C4.584,1.236 3.974,1.457 3.25,1.457C0.904,1.457 -0.39,-0.434 -0.39,-2.649C-0.39,-3.2 -0.369,-3.241 0.201,-3.241L4.26,-3.241" style="fill:white;fill-rule:nonzero;"/>
            </g>
            <g transform="matrix(1,0,0,1,430.425,289.617)">
                <path d="M0,-3.407C0,-4.258 0,-4.369 -0.592,-4.769L-0.786,-4.896C-0.876,-4.983 -0.876,-5.224 -0.762,-5.295C-0.262,-5.469 0.903,-6.038 1.45,-6.369C1.56,-6.347 1.624,-6.302 1.624,-6.215L1.624,-4.943C1.624,-4.835 1.654,-4.769 1.687,-4.74C2.454,-5.377 3.289,-6.062 4.103,-6.062C4.655,-6.062 5.089,-5.711 5.089,-5.181C5.089,-4.459 4.497,-4.171 4.144,-4.171C3.927,-4.171 3.817,-4.242 3.666,-4.324C3.339,-4.549 3.005,-4.679 2.7,-4.679C2.351,-4.679 2.089,-4.48 1.908,-4.242C1.687,-3.933 1.624,-3.296 1.624,-2.547L1.624,0.434C1.624,2.023 1.664,2.284 2.505,2.347L3.289,2.411C3.446,2.521 3.399,2.899 3.248,2.962C2.216,2.921 1.581,2.899 0.812,2.899C0.025,2.899 -0.632,2.921 -1.206,2.962C-1.356,2.899 -1.401,2.521 -1.245,2.411L-0.829,2.347C-0.018,2.217 0,2.023 0,0.434L0,-3.407" style="fill:white;fill-rule:nonzero;"/>
            </g>
            <g transform="matrix(1,0,0,1,440.581,292.426)">
                <path d="M0,-8.477C0.196,-7.99 0.349,-7.292 0.349,-6.693C0.267,-6.546 -0.065,-6.499 -0.175,-6.626C-0.545,-7.595 -1.206,-8.233 -2.106,-8.233C-2.957,-8.233 -3.506,-7.679 -3.506,-6.893C-3.506,-5.995 -2.587,-5.513 -1.821,-5.072C-0.658,-4.411 0.418,-3.67 0.418,-2.105C0.418,-0.439 -1.122,0.394 -2.74,0.394C-3.772,0.394 -4.544,0.177 -5.093,-0.262C-5.263,-0.682 -5.394,-1.755 -5.353,-2.48C-5.242,-2.607 -4.959,-2.637 -4.849,-2.5C-4.472,-1.297 -3.772,-0.243 -2.519,-0.243C-1.731,-0.243 -1.056,-0.698 -1.056,-1.645C-1.056,-2.654 -1.931,-3.208 -2.74,-3.67C-4.013,-4.393 -4.913,-5.16 -4.913,-6.371C-4.913,-7.972 -3.589,-8.871 -1.931,-8.871C-1.009,-8.871 -0.198,-8.651 0,-8.477" style="fill:white;fill-rule:nonzero;"/>
            </g>
            <g transform="matrix(1,0,0,1,442.82,284.349)">
                <path d="M0,1.861C0,1.01 0,0.899 -0.592,0.499L-0.789,0.372C-0.883,0.285 -0.883,0.044 -0.773,-0.027C-0.268,-0.201 0.986,-0.77 1.49,-1.101C1.605,-1.101 1.689,-1.055 1.711,-0.974C1.664,-0.201 1.623,0.853 1.623,1.751L1.623,5.702C1.623,7.291 1.664,7.506 2.453,7.615L2.91,7.679C3.066,7.789 3.027,8.167 2.867,8.23C2.213,8.189 1.574,8.167 0.803,8.167C0.021,8.167 -0.635,8.189 -1.247,8.23C-1.41,8.167 -1.45,7.789 -1.299,7.679L-0.838,7.615C-0.024,7.506 0,7.291 0,5.702L0,1.861ZM1.795,-5.249C1.795,-4.483 1.246,-4.132 0.656,-4.132C-0.024,-4.132 -0.461,-4.613 -0.461,-5.203C-0.461,-5.933 0.086,-6.369 0.719,-6.369C1.378,-6.369 1.795,-5.869 1.795,-5.249" style="fill:white;fill-rule:nonzero;"/>
            </g>
            <g transform="matrix(1,0,0,1,449.264,290.347)">
                <path d="M0,-5.565C-0.369,-5.565 -0.395,-5.499 -0.395,-5.033L-0.395,-0.928C-0.395,0.352 -0.244,1.508 1.209,1.508C1.43,1.508 1.623,1.467 1.803,1.397C1.993,1.331 2.278,1.09 2.348,1.09C2.522,1.09 2.609,1.331 2.568,1.467C2.174,1.925 1.387,2.473 0.266,2.473C-1.625,2.473 -2.02,1.42 -2.02,0.102L-2.02,-4.924C-2.02,-5.515 -2.039,-5.565 -2.477,-5.565L-3.09,-5.565C-3.225,-5.649 -3.244,-5.892 -3.154,-6.02C-2.521,-6.217 -1.974,-6.501 -1.748,-6.702C-1.469,-6.972 -1.051,-7.554 -0.834,-7.998C-0.72,-8.038 -0.457,-8.038 -0.369,-7.89L-0.369,-6.895C-0.369,-6.501 -0.349,-6.485 0.028,-6.485L2.457,-6.485C2.719,-6.284 2.678,-5.693 2.475,-5.565L0,-5.565" style="fill:white;fill-rule:nonzero;"/>
            </g>
            <g transform="matrix(1,0,0,1,453.212,284.349)">
                <path d="M0,1.861C0,1.01 0,0.899 -0.591,0.499L-0.787,0.372C-0.881,0.285 -0.881,0.044 -0.764,-0.027C-0.263,-0.201 0.987,-0.77 1.494,-1.101C1.601,-1.101 1.688,-1.055 1.712,-0.974C1.667,-0.201 1.629,0.853 1.629,1.751L1.629,5.702C1.629,7.291 1.667,7.506 2.455,7.615L2.917,7.679C3.074,7.789 3.032,8.167 2.871,8.23C2.216,8.189 1.577,8.167 0.813,8.167C0.026,8.167 -0.631,8.189 -1.253,8.23C-1.403,8.167 -1.448,7.789 -1.295,7.679L-0.832,7.615C-0.028,7.506 0,7.291 0,5.702L0,1.861ZM1.793,-5.249C1.793,-4.483 1.247,-4.132 0.657,-4.132C-0.028,-4.132 -0.457,-4.613 -0.457,-5.203C-0.457,-5.933 0.087,-6.369 0.72,-6.369C1.384,-6.369 1.793,-5.869 1.793,-5.249" style="fill:white;fill-rule:nonzero;"/>
            </g>
            <g transform="matrix(1,0,0,1,468.74,284.043)">
                <path d="M0,2.609C0.505,3.642 0.988,4.651 1.515,5.619L1.557,5.619C2.154,4.588 2.701,3.445 3.251,2.323L5.309,-1.874C6.312,-3.868 6.933,-5.074 6.972,-6.085C7.723,-6.021 8.177,-6.021 8.621,-6.021C9.167,-6.021 9.891,-6.045 10.576,-6.085C10.703,-5.998 10.703,-5.624 10.592,-5.54L10.132,-5.49C8.752,-5.336 8.574,-4.942 8.6,-3.405C8.644,-1.078 8.664,2.979 8.844,6.144C8.9,7.241 8.884,7.812 9.917,7.923L10.615,7.989C10.746,8.119 10.723,8.449 10.576,8.536C9.67,8.493 8.773,8.473 7.982,8.473C7.218,8.473 6.23,8.493 5.326,8.536C5.179,8.427 5.154,8.119 5.289,7.989L5.926,7.923C6.998,7.812 6.998,7.464 6.998,6.055L6.933,-3.098L6.885,-3.098C6.738,-2.854 5.9,-1.102 5.463,-0.244L3.508,3.601C2.529,5.53 1.533,7.595 1.142,8.602L0.927,8.694L0.725,8.602C0.35,7.44 -0.702,5.288 -1.207,4.21L-3.18,-0.023C-3.637,-1.036 -4.1,-2.176 -4.579,-3.183L-4.629,-3.183C-4.717,-1.827 -4.78,-0.552 -4.848,0.724C-4.913,2.058 -5,4.016 -5,5.883C-5,7.505 -4.867,7.859 -4.012,7.923L-3.18,7.989C-3.028,8.119 -3.047,8.473 -3.196,8.536C-3.944,8.493 -4.801,8.473 -5.639,8.473C-6.338,8.473 -7.127,8.493 -7.871,8.536C-8.004,8.427 -8.049,8.096 -7.917,7.989L-7.436,7.923C-6.512,7.812 -6.206,7.654 -6.073,6.122C-5.946,4.675 -5.836,3.469 -5.703,1.293C-5.592,-0.534 -5.504,-2.395 -5.458,-3.602C-5.42,-4.988 -5.592,-5.27 -6.932,-5.49L-7.28,-5.54C-7.391,-5.667 -7.367,-5.998 -7.192,-6.085C-6.537,-6.045 -6.01,-6.021 -5.458,-6.021C-4.958,-6.021 -4.363,-6.021 -3.637,-6.085C-3.727,-5.225 -3.18,-3.868 -2.5,-2.465L0,2.609" style="fill:white;fill-rule:nonzero;"/>
            </g>
            <g transform="matrix(1,0,0,1,481.417,285.853)">
                <path d="M0,4.665C0,3.806 0.635,3.479 1.926,3.041C2.321,2.903 2.694,2.821 2.824,2.821C2.96,2.821 3.047,2.864 3.047,3.108L3.005,4.401C3.005,4.858 2.981,5.169 2.716,5.431C2.502,5.654 1.821,5.979 1.38,5.979C0.265,5.979 0,5.035 0,4.665M0.132,3.058C-1.271,3.562 -1.692,4.072 -1.692,4.926C-1.692,5.54 -1.421,6.088 -1.013,6.459C-0.638,6.79 -0.108,6.963 0.524,6.963C1.14,6.963 1.627,6.686 2.103,6.421C2.543,6.178 2.801,5.979 2.96,5.979C3.097,5.979 3.222,6.156 3.312,6.286C3.688,6.77 4.21,6.963 4.735,6.963C5.812,6.963 6.58,6.112 6.58,6.001C6.58,5.844 6.513,5.718 6.418,5.718C6.358,5.718 6.25,5.805 6.14,5.868C6.009,5.944 5.812,6.001 5.591,6.001C4.735,6.001 4.536,5.103 4.581,4.093L4.716,0.272C4.78,-1.376 4.008,-2.298 2.433,-2.298C0.83,-2.298 -1.646,-0.739 -1.646,0.404C-1.646,0.599 -1.535,0.713 -1.336,0.713C-1.013,0.713 -0.418,0.558 -0.09,0.29C0.085,0.161 0.108,-0.106 0.132,-0.453C0.177,-1.133 0.923,-1.445 1.534,-1.445C2.894,-1.445 3.158,-0.337 3.138,0.465L3.115,1.477C3.097,1.808 3.065,2.006 2.746,2.121L0.132,3.058" style="fill:white;fill-rule:nonzero;"/>
            </g>
            <g transform="matrix(1,0,0,1,490.384,279.342)">
                <path d="M0,10.711C0,12.295 0.046,12.512 0.834,12.623L1.362,12.689C1.515,12.796 1.47,13.174 1.314,13.237C0.595,13.194 -0.043,13.174 -0.812,13.174C-1.593,13.174 -2.257,13.194 -2.911,13.237C-3.065,13.174 -3.116,12.796 -2.958,12.689L-2.454,12.623C-1.64,12.512 -1.622,12.295 -1.622,10.711L-1.622,0.791C-1.622,-0.503 -1.64,-0.636 -2.304,-1.033L-2.518,-1.167C-2.63,-1.228 -2.63,-1.537 -2.518,-1.604C-1.969,-1.781 -0.942,-2.109 -0.151,-2.526C-0.059,-2.526 0.023,-2.48 0.071,-2.396C0.046,-1.739 0,-0.636 0,0.327L0,10.711" style="fill:white;fill-rule:nonzero;"/>
            </g>
            <g transform="matrix(1,0,0,1,493.718,285.853)">
                <path d="M0,4.665C0,3.806 0.638,3.479 1.933,3.041C2.326,2.903 2.701,2.821 2.828,2.821C2.964,2.821 3.052,2.864 3.052,3.108L3.009,4.401C3.009,4.858 2.987,5.169 2.724,5.431C2.503,5.654 1.822,5.979 1.384,5.979C0.265,5.979 0,5.035 0,4.665M0.13,3.058C-1.272,3.562 -1.684,4.072 -1.684,4.926C-1.684,5.54 -1.423,6.088 -1.012,6.459C-0.637,6.79 -0.1,6.963 0.525,6.963C1.14,6.963 1.622,6.686 2.108,6.421C2.542,6.178 2.808,5.979 2.964,5.979C3.091,5.979 3.228,6.156 3.312,6.286C3.681,6.77 4.216,6.963 4.74,6.963C5.817,6.963 6.587,6.112 6.587,6.001C6.587,5.844 6.513,5.718 6.425,5.718C6.364,5.718 6.253,5.805 6.142,5.868C6.011,5.944 5.817,6.001 5.597,6.001C4.74,6.001 4.541,5.103 4.579,4.093L4.718,0.272C4.779,-1.376 4.013,-2.298 2.431,-2.298C0.837,-2.298 -1.644,-0.739 -1.644,0.404C-1.644,0.599 -1.536,0.713 -1.34,0.713C-1.012,0.713 -0.413,0.558 -0.087,0.29C0.091,0.161 0.116,-0.106 0.13,-0.453C0.175,-1.133 0.921,-1.445 1.537,-1.445C2.897,-1.445 3.156,-0.337 3.138,0.465L3.112,1.477C3.091,1.808 3.074,2.006 2.746,2.121L0.13,3.058" style="fill:white;fill-rule:nonzero;"/>
            </g>
            <g transform="matrix(1,0,0,1,499.66,284.747)">
                <path d="M0,12.287C0,11.701 0.392,11.411 0.884,11.411L1.297,11.411C1.645,11.411 1.869,11.255 2.021,11.017C2.658,10.028 3.094,9.103 3.292,8.581C3.359,8.404 3.51,7.943 3.51,7.638C3.51,7.201 3.427,6.932 3.132,6.122L1.425,1.425C1.05,0.392 0.898,-0.139 0.133,-0.289L-0.42,-0.4C-0.542,-0.51 -0.523,-0.884 -0.346,-0.948C0.349,-0.901 1.016,-0.884 1.738,-0.884C2.324,-0.884 2.943,-0.901 3.643,-0.948C3.818,-0.884 3.84,-0.51 3.689,-0.4L3.132,-0.289C2.833,-0.223 2.658,-0.159 2.658,-0.001C2.658,0.259 3.158,1.688 3.292,2.059L3.999,4.077C4.129,4.432 4.544,5.594 4.632,5.634C4.695,5.594 5.043,4.916 5.443,4.01L6.189,2.276C6.668,1.134 6.957,0.322 6.957,0.084C6.957,-0.072 6.818,-0.223 6.429,-0.289L5.752,-0.4C5.594,-0.51 5.617,-0.884 5.791,-0.948C6.492,-0.901 7.154,-0.884 7.72,-0.884C8.271,-0.884 8.775,-0.901 9.39,-0.948C9.566,-0.858 9.587,-0.531 9.426,-0.4L9.063,-0.333C8.334,-0.206 7.937,0.433 7.195,1.99L5.969,4.515C5.244,5.99 3.441,9.811 2.369,12.2C2.002,13.036 1.473,13.235 0.967,13.235C0.33,13.235 0,12.838 0,12.287" style="fill:white;fill-rule:nonzero;"/>
            </g>
            <g transform="matrix(1,0,0,1,513.762,292.426)">
                <path d="M0,-8.477C0.194,-7.99 0.352,-7.292 0.352,-6.693C0.262,-6.546 -0.061,-6.499 -0.174,-6.626C-0.541,-7.595 -1.205,-8.233 -2.104,-8.233C-2.96,-8.233 -3.509,-7.679 -3.509,-6.893C-3.509,-5.995 -2.591,-5.513 -1.82,-5.072C-0.652,-4.411 0.422,-3.67 0.422,-2.105C0.422,-0.439 -1.117,0.394 -2.738,0.394C-3.767,0.394 -4.535,0.177 -5.086,-0.262C-5.258,-0.682 -5.387,-1.755 -5.348,-2.48C-5.238,-2.607 -4.957,-2.637 -4.847,-2.5C-4.474,-1.297 -3.767,-0.243 -2.518,-0.243C-1.732,-0.243 -1.046,-0.698 -1.046,-1.645C-1.046,-2.654 -1.934,-3.208 -2.738,-3.67C-4.008,-4.393 -4.904,-5.16 -4.904,-6.371C-4.904,-7.972 -3.599,-8.871 -1.934,-8.871C-1.006,-8.871 -0.199,-8.651 0,-8.477" style="fill:white;fill-rule:nonzero;"/>
            </g>
            <g transform="matrix(1,0,0,1,516.005,284.349)">
                <path d="M0,1.861C0,1.01 0,0.899 -0.596,0.499L-0.791,0.372C-0.878,0.285 -0.878,0.044 -0.771,-0.027C-0.272,-0.201 0.989,-0.77 1.487,-1.101C1.595,-1.101 1.685,-1.055 1.705,-0.974C1.665,-0.201 1.622,0.853 1.622,1.751L1.622,5.702C1.622,7.291 1.665,7.506 2.458,7.615L2.917,7.679C3.065,7.789 3.022,8.167 2.867,8.23C2.216,8.189 1.571,8.167 0.806,8.167C0.021,8.167 -0.642,8.189 -1.257,8.23C-1.401,8.167 -1.453,7.789 -1.299,7.679L-0.838,7.615C-0.022,7.506 0,7.291 0,5.702L0,1.861ZM1.792,-5.249C1.792,-4.483 1.243,-4.132 0.652,-4.132C-0.022,-4.132 -0.461,-4.613 -0.461,-5.203C-0.461,-5.933 0.084,-6.369 0.722,-6.369C1.378,-6.369 1.792,-5.869 1.792,-5.249" style="fill:white;fill-rule:nonzero;"/>
            </g>
            <g transform="matrix(1,0,0,1,520.955,285.853)">
                <path d="M0,4.665C0,3.806 0.641,3.479 1.934,3.041C2.331,2.903 2.699,2.821 2.834,2.821C2.966,2.821 3.048,2.864 3.048,3.108L3.006,4.401C3.006,4.858 2.984,5.169 2.725,5.431C2.504,5.654 1.824,5.979 1.391,5.979C0.27,5.979 0,5.035 0,4.665M0.138,3.058C-1.266,3.562 -1.687,4.072 -1.687,4.926C-1.687,5.54 -1.428,6.088 -1.003,6.459C-0.632,6.79 -0.105,6.963 0.523,6.963C1.143,6.963 1.622,6.686 2.105,6.421C2.549,6.178 2.809,5.979 2.966,5.979C3.1,5.979 3.227,6.156 3.314,6.286C3.682,6.77 4.213,6.963 4.734,6.963C5.814,6.963 6.585,6.112 6.585,6.001C6.585,5.844 6.52,5.718 6.432,5.718C6.365,5.718 6.252,5.805 6.141,5.868C6.011,5.944 5.814,6.001 5.594,6.001C4.734,6.001 4.545,5.103 4.583,4.093L4.719,0.272C4.779,-1.376 4.016,-2.298 2.439,-2.298C0.836,-2.298 -1.643,-0.739 -1.643,0.404C-1.643,0.599 -1.532,0.713 -1.337,0.713C-1.003,0.713 -0.415,0.558 -0.082,0.29C0.092,0.161 0.113,-0.106 0.138,-0.453C0.178,-1.133 0.923,-1.445 1.54,-1.445C2.896,-1.445 3.158,-0.337 3.134,0.465L3.117,1.477C3.1,1.808 3.076,2.006 2.74,2.121L0.138,3.058" style="fill:white;fill-rule:nonzero;"/>
            </g>
            <g transform="matrix(1,0,0,1,386.121,317.232)">
                <path d="M0,-10.096C0,-13.041 -0.056,-13.489 -1.68,-13.627L-2.383,-13.682C-2.55,-13.793 -2.494,-14.299 -2.325,-14.381C-0.952,-14.326 -0.056,-14.299 1.204,-14.299C2.293,-14.299 3.251,-14.326 4.455,-14.381C4.619,-14.299 4.678,-13.793 4.506,-13.682L3.974,-13.627C2.352,-13.459 2.293,-13.041 2.293,-10.096L2.293,-6.875C2.293,-6.338 2.352,-5.811 2.661,-5.811C2.908,-5.811 3.251,-5.973 3.443,-6.113C3.837,-6.453 4.592,-7.15 4.872,-7.463L7.894,-10.461C8.425,-10.965 9.797,-12.391 10.08,-12.786C10.219,-12.985 10.272,-13.123 10.272,-13.234C10.272,-13.346 10.162,-13.432 9.797,-13.512L9.046,-13.682C8.847,-13.883 8.878,-14.242 9.099,-14.381C10.08,-14.326 11.199,-14.299 12.179,-14.299C13.165,-14.299 14.115,-14.326 14.953,-14.381C15.149,-14.242 15.172,-13.854 15.007,-13.682C14.283,-13.627 13.188,-13.346 12.402,-12.903C11.623,-12.447 10.056,-11.135 8.485,-9.65L5.963,-7.264C5.568,-6.875 5.32,-6.622 5.32,-6.393C5.32,-6.198 5.492,-5.973 5.851,-5.528C8.506,-2.469 10.668,0.055 12.85,2.35C13.525,3.02 14.138,3.388 15.092,3.502L15.846,3.58C16.044,3.724 15.987,4.201 15.79,4.285C15.065,4.232 13.972,4.201 12.654,4.201C11.508,4.201 10.531,4.232 9.242,4.285C9.046,4.232 8.964,3.758 9.127,3.58L9.774,3.47C10.162,3.418 10.445,3.336 10.445,3.191C10.445,3.02 10.246,2.8 10.056,2.549C9.52,1.875 8.79,1.115 7.731,-0.088L5.492,-2.609C3.891,-4.404 3.443,-4.969 2.772,-4.969C2.352,-4.969 2.293,-4.598 2.293,-3.617L2.293,-0.006C2.293,2.941 2.352,3.336 3.92,3.502L4.678,3.58C4.842,3.703 4.784,4.201 4.619,4.285C3.251,4.232 2.293,4.201 1.204,4.201C0.057,4.201 -0.899,4.232 -2.043,4.285C-2.215,4.201 -2.268,3.777 -2.102,3.58L-1.543,3.502C-0.056,3.279 0,2.941 0,-0.006L0,-10.096" style="fill:white;fill-rule:nonzero;"/>
            </g>
            <g transform="matrix(1,0,0,1,404.88,317.232)">
                <path d="M0,-10.096C0,-13.012 -0.057,-13.432 -1.708,-13.627L-2.156,-13.682C-2.322,-13.793 -2.268,-14.299 -2.103,-14.381C-0.893,-14.326 0.06,-14.299 1.207,-14.299L6.471,-14.299C8.265,-14.299 9.911,-14.299 10.248,-14.381C10.416,-13.907 10.586,-11.889 10.697,-10.658C10.586,-10.485 10.138,-10.432 9.996,-10.602C9.576,-11.91 9.333,-12.903 7.869,-13.262C7.284,-13.402 6.386,-13.432 5.151,-13.432L3.139,-13.432C2.296,-13.432 2.296,-13.379 2.296,-12.313L2.296,-6.703C2.296,-5.916 2.378,-5.916 3.219,-5.916L4.843,-5.916C6.019,-5.916 6.889,-5.973 7.222,-6.088C7.56,-6.198 7.759,-6.367 7.896,-7.068L8.122,-8.213C8.265,-8.385 8.736,-8.385 8.85,-8.188C8.85,-7.518 8.736,-6.418 8.736,-5.357C8.736,-4.348 8.85,-3.284 8.85,-2.666C8.736,-2.469 8.265,-2.469 8.122,-2.637L7.869,-3.727C7.759,-4.232 7.56,-4.656 7.003,-4.795C6.608,-4.904 5.936,-4.941 4.843,-4.941L3.219,-4.941C2.378,-4.941 2.296,-4.904 2.296,-4.18L2.296,-0.227C2.296,1.263 2.378,2.212 2.833,2.686C3.165,3.02 3.757,3.336 6.216,3.336C8.371,3.336 9.188,3.22 9.802,2.91C10.305,2.632 11.065,1.648 11.787,0.191C11.987,0.055 12.376,0.135 12.492,0.39C12.292,1.371 11.592,3.529 11.228,4.285C8.713,4.232 6.216,4.201 3.727,4.201L1.207,4.201C0,4.201 -0.95,4.232 -2.601,4.285C-2.772,4.201 -2.827,3.758 -2.664,3.58L-1.734,3.502C-0.137,3.359 0,2.941 0,-0.006L0,-10.096" style="fill:white;fill-rule:nonzero;"/>
            </g>
            <g transform="matrix(1,0,0,1,421.093,317.232)">
                <path d="M0,-10.096C0,-13.041 -0.057,-13.489 -1.821,-13.627L-2.524,-13.682C-2.691,-13.793 -2.631,-14.299 -2.462,-14.381C-0.897,-14.326 0.057,-14.299 1.177,-14.299C2.271,-14.299 3.22,-14.326 4.623,-14.381C4.791,-14.299 4.843,-13.793 4.677,-13.682L4.003,-13.627C2.353,-13.489 2.291,-13.041 2.291,-10.096L2.291,-0.34C2.291,1.426 2.382,2.156 2.886,2.686C3.193,2.996 3.724,3.336 5.937,3.336C8.317,3.336 8.906,3.22 9.355,2.966C9.915,2.632 10.642,1.625 11.196,0.191C11.368,0.055 11.898,0.166 11.898,0.361C11.898,0.671 11.113,3.529 10.724,4.285C9.298,4.232 6.636,4.201 3.753,4.201L1.177,4.201C0,4.201 -0.897,4.232 -2.462,4.285C-2.631,4.201 -2.691,3.758 -2.524,3.58L-1.675,3.502C-0.057,3.336 0,2.941 0,-0.006L0,-10.096" style="fill:white;fill-rule:nonzero;"/>
            </g>
            <g transform="matrix(1,0,0,1,441.021,316.437)">
                <path d="M0,-8.877C0.308,-9.717 0.592,-10.398 0.672,-10.535L0.729,-10.535C0.894,-10.196 1.146,-9.439 1.369,-8.766L2.883,-4.198C3.131,-3.437 3.08,-3.326 2.268,-3.326L-1.174,-3.326C-1.961,-3.326 -1.992,-3.362 -1.767,-4L0,-8.877ZM5.006,2.306C5.235,2.982 5.377,3.482 5.377,3.791C5.377,4.072 4.983,4.236 4.395,4.297L3.58,4.375C3.387,4.519 3.416,4.967 3.64,5.082C4.451,5.051 5.516,4.996 6.86,4.996C8.121,4.996 9.098,5.027 10.242,5.082C10.383,4.967 10.442,4.519 10.242,4.375L9.488,4.297C8.289,4.154 7.922,3.736 7.113,1.328L3.279,-9.944C2.854,-11.178 2.408,-12.467 2.043,-13.703C1.986,-13.898 1.787,-13.959 1.619,-13.959C1.312,-13.588 0.836,-13.088 0.168,-12.889C0.25,-12.438 0.088,-11.908 -0.308,-10.898L-3.164,-3.326C-4.34,-0.189 -5.127,1.632 -5.629,2.922C-6.022,3.93 -6.638,4.236 -7.31,4.297L-8.235,4.375C-8.403,4.519 -8.345,4.967 -8.178,5.082C-7.424,5.051 -6.414,4.996 -5.485,4.996C-4.176,5.027 -3.304,5.027 -2.578,5.082C-2.326,4.967 -2.326,4.519 -2.522,4.375L-3.441,4.297C-4.114,4.236 -4.258,4.072 -4.258,3.736C-4.258,3.427 -4.065,2.67 -3.643,1.412L-2.658,-1.535C-2.465,-2.123 -2.303,-2.207 -1.595,-2.207L2.633,-2.207C3.471,-2.207 3.58,-2.123 3.783,-1.512L5.006,2.306" style="fill:white;fill-rule:nonzero;"/>
            </g>
            <g transform="matrix(1,0,0,1,469.568,308.066)">
                <path d="M0,8.601C0,9.446 0,12.782 0.086,13.506C0.029,13.675 -0.137,13.815 -0.444,13.815C-0.777,13.338 -1.596,12.358 -4.025,9.587L-10.521,2.185C-11.284,1.317 -13.189,-0.981 -13.775,-1.599L-13.834,-1.599C-13.938,-1.265 -13.965,-0.618 -13.965,0.223L-13.965,6.33C-13.965,7.653 -13.918,11.291 -13.461,12.136C-13.268,12.446 -12.736,12.61 -12.041,12.671L-11.17,12.747C-11.004,12.979 -11.032,13.31 -11.229,13.454C-12.486,13.403 -13.461,13.372 -14.506,13.372C-15.676,13.372 -16.43,13.403 -17.416,13.454C-17.611,13.31 -17.637,12.921 -17.473,12.747L-16.713,12.671C-16.071,12.61 -15.625,12.411 -15.486,12.11C-15.088,11.1 -15.116,7.674 -15.116,6.33L-15.116,-1.769C-15.116,-2.552 -15.146,-3.144 -15.732,-3.783C-16.123,-4.181 -16.799,-4.378 -17.473,-4.461L-17.945,-4.519C-18.113,-4.687 -18.113,-5.105 -17.887,-5.214C-16.713,-5.132 -15.229,-5.132 -14.728,-5.132C-14.277,-5.132 -13.805,-5.157 -13.439,-5.214C-12.879,-3.783 -9.547,-0.087 -8.65,0.952L-5.937,4.006C-4.025,6.19 -2.633,7.737 -1.312,9.077L-1.26,9.077C-1.149,8.942 -1.149,8.491 -1.149,7.901L-1.149,1.901C-1.149,0.584 -1.172,-3.058 -1.709,-3.898C-1.875,-4.154 -2.32,-4.321 -3.439,-4.461L-3.909,-4.519C-4.113,-4.687 -4.084,-5.132 -3.863,-5.214C-2.576,-5.157 -1.619,-5.132 -0.559,-5.132C0.65,-5.132 1.377,-5.157 2.328,-5.214C2.552,-5.076 2.552,-4.687 2.387,-4.519L1.99,-4.461C1.094,-4.321 0.537,-4.095 0.423,-3.877C-0.053,-2.861 0,0.61 0,1.901L0,8.601" style="fill:white;fill-rule:nonzero;"/>
            </g>
            <g transform="matrix(1,0,0,1,482.574,306.265)">
                <path d="M0,10.963C0,13.908 0.064,14.303 1.691,14.469L2.584,14.547C2.752,14.67 2.697,15.174 2.531,15.252C0.931,15.196 -0.018,15.174 -1.141,15.174C-2.262,15.174 -3.236,15.196 -5.036,15.252C-5.199,15.174 -5.258,14.692 -5.036,14.547L-4.025,14.469C-2.428,14.326 -2.287,13.908 -2.287,10.963L-2.287,-1.567C-2.287,-2.437 -2.287,-2.461 -3.129,-2.461L-4.668,-2.461C-5.877,-2.461 -7.414,-2.41 -8.114,-1.762C-8.784,-1.146 -9.067,-0.533 -9.373,0.17C-9.598,0.338 -9.99,0.203 -10.098,-0.027C-9.654,-1.287 -9.23,-3.078 -9.036,-4.197C-8.948,-4.256 -8.586,-4.289 -8.502,-4.197C-8.334,-3.304 -7.414,-3.33 -6.129,-3.33L5.214,-3.33C6.732,-3.33 6.978,-3.385 7.4,-4.123C7.541,-4.174 7.853,-4.144 7.9,-4.029C7.595,-2.887 7.4,-0.61 7.484,0.228C7.375,0.455 6.898,0.455 6.755,0.283C6.673,-0.416 6.476,-1.457 6.058,-1.762C5.41,-2.238 4.348,-2.461 2.81,-2.461L0.82,-2.461C-0.018,-2.461 0,-2.437 0,-1.514L0,10.963" style="fill:white;fill-rule:nonzero;"/>
            </g>
            <g transform="matrix(1,0,0,1,496.415,316.437)">
                <path d="M0,-8.877C0.312,-9.717 0.587,-10.398 0.673,-10.535L0.731,-10.535C0.897,-10.196 1.147,-9.439 1.368,-8.766L2.886,-4.198C3.137,-3.437 3.079,-3.326 2.272,-3.326L-1.175,-3.326C-1.957,-3.326 -1.985,-3.362 -1.765,-4L0,-8.877ZM5.015,2.306C5.245,2.982 5.382,3.482 5.382,3.791C5.382,4.072 4.981,4.236 4.396,4.297L3.583,4.375C3.387,4.519 3.419,4.967 3.637,5.082C4.454,5.051 5.512,4.996 6.86,4.996C8.119,4.996 9.104,5.027 10.245,5.082C10.39,4.967 10.44,4.519 10.245,4.375L9.493,4.297C8.287,4.154 7.922,3.736 7.116,1.328L3.276,-9.944C2.858,-11.178 2.403,-12.467 2.042,-13.703C1.992,-13.898 1.792,-13.959 1.629,-13.959C1.317,-13.588 0.839,-13.088 0.169,-12.889C0.253,-12.438 0.085,-11.908 -0.308,-10.898L-3.163,-3.326C-4.341,-0.189 -5.121,1.632 -5.628,2.922C-6.021,3.93 -6.636,4.236 -7.308,4.297L-8.231,4.375C-8.404,4.519 -8.343,4.967 -8.175,5.082C-7.421,5.051 -6.408,4.996 -5.488,4.996C-4.173,5.027 -3.302,5.027 -2.575,5.082C-2.327,4.967 -2.327,4.519 -2.521,4.375L-3.444,4.297C-4.118,4.236 -4.253,4.072 -4.253,3.736C-4.253,3.427 -4.06,2.67 -3.64,1.412L-2.656,-1.535C-2.465,-2.123 -2.296,-2.207 -1.595,-2.207L2.636,-2.207C3.47,-2.207 3.583,-2.123 3.782,-1.512L5.015,2.306" style="fill:white;fill-rule:nonzero;"/>
            </g>
            <g transform="matrix(1,0,0,1,524.759,308.066)">
                <path d="M0,8.601C0,9.446 0,12.782 0.077,13.506C0.024,13.675 -0.142,13.815 -0.452,13.815C-0.792,13.338 -1.597,12.358 -4.032,9.587L-10.532,2.185C-11.292,1.317 -13.194,-0.981 -13.78,-1.599L-13.839,-1.599C-13.95,-1.265 -13.983,-0.618 -13.983,0.223L-13.983,6.33C-13.983,7.653 -13.918,11.291 -13.476,12.136C-13.278,12.446 -12.751,12.61 -12.043,12.671L-11.181,12.747C-11.015,12.979 -11.04,13.31 -11.235,13.454C-12.497,13.403 -13.476,13.372 -14.512,13.372C-15.688,13.372 -16.446,13.403 -17.423,13.454C-17.62,13.31 -17.643,12.921 -17.478,12.747L-16.725,12.671C-16.079,12.61 -15.627,12.411 -15.489,12.11C-15.098,11.1 -15.126,7.674 -15.126,6.33L-15.126,-1.769C-15.126,-2.552 -15.155,-3.144 -15.737,-3.783C-16.138,-4.181 -16.808,-4.378 -17.478,-4.461L-17.954,-4.519C-18.12,-4.687 -18.12,-5.105 -17.903,-5.214C-16.725,-5.132 -15.235,-5.132 -14.737,-5.132C-14.286,-5.132 -13.812,-5.157 -13.448,-5.214C-12.887,-3.783 -9.561,-0.087 -8.659,0.952L-5.942,4.006C-4.032,6.19 -2.642,7.737 -1.319,9.077L-1.267,9.077C-1.153,8.942 -1.153,8.491 -1.153,7.901L-1.153,1.901C-1.153,0.584 -1.183,-3.058 -1.711,-3.898C-1.875,-4.154 -2.327,-4.321 -3.446,-4.461L-3.922,-4.519C-4.127,-4.687 -4.094,-5.132 -3.87,-5.214C-2.579,-5.157 -1.627,-5.132 -0.569,-5.132C0.636,-5.132 1.365,-5.157 2.317,-5.214C2.542,-5.076 2.542,-4.687 2.372,-4.519L1.983,-4.461C1.085,-4.321 0.524,-4.095 0.413,-3.877C-0.059,-2.861 0,0.61 0,1.901L0,8.601" style="fill:white;fill-rule:nonzero;"/>
            </g>
            <g transform="matrix(1,0,0,1,338.896,276.176)">
                <path d="M0,44.144C0,45.102 -0.779,45.876 -1.732,45.876C-2.684,45.876 -3.463,45.102 -3.463,44.144L-3.463,-5.636C-3.463,-8.675 -5.922,-11.136 -8.954,-11.136C-11.988,-11.136 -14.446,-8.675 -14.446,-5.636L-14.446,45.522C-14.446,50.019 -11.122,55.28 -1.736,55.28C7.649,55.28 10.979,50.019 10.979,45.522L10.979,-5.636C10.979,-8.675 8.522,-11.136 5.487,-11.136C2.457,-11.136 -0.005,-8.675 -0.005,-5.636L0,44.144" style="fill:rgb(63,54,139);fill-rule:nonzero;"/>
            </g>
            <g transform="matrix(1,0,0,1,320.209,294.667)">
                <path d="M0,7.053C-4.341,10.52 -9.752,14.848 -9.752,21.62L-9.752,31.18C-9.752,34.217 -7.289,36.682 -4.262,36.682C-1.224,36.682 1.235,34.217 1.235,31.18L1.235,21.62C1.235,20.137 4.755,17.324 6.86,15.641C10.773,12.504 15.225,8.949 15.225,3.525C15.225,-1.899 10.773,-5.452 6.86,-8.591C4.755,-10.272 1.235,-13.085 1.235,-14.57L1.235,-24.127C1.235,-27.167 -1.224,-29.629 -4.262,-29.629C-7.289,-29.629 -9.752,-27.167 -9.752,-24.127L-9.752,-14.57C-9.752,-7.795 -4.341,-3.468 0,0L3.596,2.784C4.318,3.324 4.392,3.718 3.596,4.321L0,7.053" style="fill:rgb(228,40,38);fill-rule:nonzero;"/>
            </g>
            <g transform="matrix(1,0,0,1,354.161,294.667)">
                <path d="M0,7.053C4.343,10.52 9.755,14.848 9.755,21.62L9.755,31.18C9.755,34.217 7.293,36.682 4.262,36.682C1.227,36.682 -1.233,34.217 -1.233,31.18L-1.233,21.62C-1.233,20.137 -4.754,17.324 -6.855,15.641C-10.778,12.504 -15.224,8.949 -15.224,3.525C-15.224,-1.899 -10.778,-5.452 -6.857,-8.591C-4.754,-10.272 -1.233,-13.085 -1.233,-14.57L-1.233,-24.127C-1.233,-27.167 1.227,-29.629 4.262,-29.629C7.293,-29.629 9.755,-27.167 9.755,-24.127L9.755,-14.57C9.755,-7.795 4.343,-3.468 0,0L-3.597,2.784C-4.319,3.324 -4.393,3.718 -3.597,4.321L0,7.053" style="fill:rgb(228,40,38);fill-rule:nonzero;"/>
            </g>
        </g>
    </g>
</svg>
