<?xml version="1.0" encoding="UTF-8" standalone="no"?>
<!DOCTYPE svg PUBLIC "-//W3C//DTD SVG 1.1//EN" "http://www.w3.org/Graphics/SVG/1.1/DTD/svg11.dtd">
<svg width="100%" height="100%" viewBox="0 0 335 239" version="1.1" xmlns="http://www.w3.org/2000/svg" xmlns:xlink="http://www.w3.org/1999/xlink" xml:space="preserve" xmlns:serif="http://www.serif.com/" style="fill-rule:evenodd;clip-rule:evenodd;stroke-linejoin:round;stroke-miterlimit:2;">
    <g id="Artboard1" transform="matrix(0.309988,0,0,0.220731,0,0)">
        <rect x="0" y="0" width="1080" height="1080" style="fill:none;"/>
        <g id="Layer-1" serif:id="Layer 1" transform="matrix(1.20359,0,0,1.69028,-109.551,-372.75)">
            <g transform="matrix(1,0,0,1,595,633.483)">
                <path d="M0,-361.844L15.239,-361.844L15.969,-362.818C18.054,-365.597 18.923,-367.955 18.55,-369.82C17.184,-377.478 -3.123,-383.294 -28.676,-383.294C-32.742,-383.294 -36.973,-383.151 -41.254,-382.871L-50.301,-382.277L-9.334,-362.039L-2.434,-362.039L0,-361.844ZM-209.849,-160.592L-209.849,-362.039L-141.144,-362.039L-140.487,-362.55C-130.877,-370.001 -117.971,-376.813 -103.162,-382.248L-100.713,-383.148L-103.317,-388.958C-91.863,-393.184 -78.988,-396.714 -64.967,-399.478C-48.765,-402.502 -33.343,-404.036 -19.152,-404.036C-10.243,-404.036 -1.967,-403.417 5.447,-402.193C28.324,-398.526 41.772,-389.632 44.353,-376.469C44.977,-372.726 44.677,-368.852 43.451,-365.019L42.435,-361.844L92.409,-361.844L92.219,-160.594L-58.816,42.192L-209.849,-160.592Z" style="fill:white;fill-rule:nonzero;"/>
            </g>
            <g transform="matrix(1,0,0,1,583.801,352.87)">
                <path d="M0,119.19L-47.52,190.275L-95.04,119.19L-95.04,-71.085L0,-71.085L0,119.19Z" style="fill:white;fill-rule:nonzero;"/>
            </g>
            <g transform="matrix(-0.893693,-0.448678,-0.448678,0.893693,547.158,260.648)">
                <path d="M-10.337,45.266L42.619,45.266L11.072,2.623L-42.318,2.623L-10.337,45.266Z" style="fill:rgb(255,212,0);fill-rule:nonzero;"/>
            </g>
            <g transform="matrix(1,0,0,1,393.721,662.919)">
                <path d="M0,-191.054L142.561,-119.774L142.755,0L0,-191.054Z" style="fill:rgb(0,79,158);fill-rule:nonzero;"/>
            </g>
            <g transform="matrix(1,0,0,1,488.761,353.064)">
                <path d="M0,118.996L47.521,190.081L-94.845,118.996L-94.845,-71.085L0,-71.085L0,118.996Z" style="fill:rgb(0,165,162);fill-rule:nonzero;"/>
            </g>
            <g transform="matrix(1,0,0,1,678.842,662.724)">
                <path d="M0,-190.859L-142.561,-119.579L-142.366,0L0,-190.859Z" style="fill:rgb(0,165,162);fill-rule:nonzero;"/>
            </g>
            <g transform="matrix(1,0,0,1,583.801,353.064)">
                <path d="M0,118.996L-47.52,190.081L94.846,118.996L94.846,-71.085L0,-71.085L0,118.996Z" style="fill:rgb(0,79,158);fill-rule:nonzero;"/>
            </g>
            <g transform="matrix(1,0,0,1,505.51,328.72)">
                <path d="M0,-71.085C-31.161,-59.594 -51.415,-43.235 -48.688,-29.603C-44.988,-10.906 -0.779,-3.7 50.441,-13.632C64.464,-16.359 77.707,-20.06 89.197,-24.539C75.564,-18.502 59.011,-13.438 40.898,-9.932C-10.711,0 -55.31,-7.206 -59.01,-25.902C-62.126,-41.093 -37.198,-59.4 0,-71.085" style="fill:rgb(0,79,158);fill-rule:nonzero;"/>
            </g>
            <g transform="matrix(1,0,0,1,583.606,234.459)">
                <path d="M0,66.801C30.382,55.31 49.857,39.341 47.131,25.903C43.43,7.206 -0.779,0 -52,9.933C-65.438,12.465 -78.097,15.97 -89.198,20.255C-80.628,17.528 -71.28,15.191 -61.542,13.243C-9.933,3.311 34.666,10.517 38.366,29.214C40.704,41.483 25.318,55.505 0,66.801" style="fill:rgb(0,165,162);fill-rule:nonzero;"/>
            </g>
            <g transform="matrix(1,0,0,1,485.45,574.695)">
                <path d="M0,-32.524L0,-15.58C0,-12.464 0.584,-10.127 1.947,-8.763C3.311,-7.4 5.258,-6.622 8.18,-6.622C9.738,-6.622 11.101,-6.816 12.075,-7.206C13.243,-7.595 14.022,-8.375 14.801,-9.153C15.385,-9.738 15.775,-10.516 15.97,-11.49C16.165,-12.464 16.359,-13.632 16.359,-15.58L16.359,-32.524L24.149,-32.524L24.149,-14.606C24.149,-9.738 22.786,-6.232 20.06,-3.7C17.333,-1.169 13.438,0 8.18,0C2.921,0 -0.974,-1.169 -3.7,-3.7C-6.427,-6.232 -7.79,-9.738 -7.79,-14.606L-7.79,-32.524L0,-32.524Z" style="fill:white;fill-rule:nonzero;"/>
            </g>
            <g transform="matrix(1,0,0,1,516.221,542.171)">
                <path d="M0,31.745L0,0L10.127,0L20.06,16.165L30.381,0L40.314,0L40.314,31.745L32.914,31.745L32.914,10.516L20.06,31.745L7.401,10.322L7.401,31.745L0,31.745Z" style="fill:white;fill-rule:nonzero;"/>
            </g>
            <g transform="matrix(1,0,0,1,571.142,558.725)">
                <path d="M0,-1.168L7.206,-1.168C9.738,-1.168 11.686,-1.558 12.659,-2.142C13.633,-2.726 14.218,-3.895 14.218,-5.647C14.218,-7.205 13.828,-8.374 12.854,-9.152C11.881,-9.737 10.128,-10.127 7.596,-10.127L0,-10.127L0,-1.168ZM-7.79,15.386L-7.79,-16.554L10.712,-16.554C14.412,-16.554 17.139,-15.58 19.086,-13.632C21.034,-11.685 22.202,-9.152 22.202,-5.647C22.202,-2.336 21.229,0.39 19.086,2.338C17.139,4.285 14.218,5.259 10.712,5.259L0,5.259L0,15.386L-7.79,15.386Z" style="fill:white;fill-rule:nonzero;"/>
            </g>
            <g transform="matrix(1,0,0,1,962.951,736.528)">
                <path d="M0,-22.883C0.613,-16.141 0.919,-11.049 0.919,-7.611C0.919,-4.886 0.426,-2.247 -0.562,0.307C-1.073,1.67 -2.18,3.832 -3.882,6.795L-4.802,6.284C-4.699,5.297 -4.606,4.156 -4.521,2.861C-4.437,1.567 -4.393,0.699 -4.393,0.257C-4.393,-3.285 -4.674,-8.232 -5.236,-14.583C-5.798,-20.934 -6.471,-27.566 -7.254,-34.479C-7.73,-38.667 -8.259,-42.941 -8.837,-47.3C-8.156,-48.798 -7.381,-50.416 -6.513,-52.153C-5.645,-53.889 -4.819,-55.524 -4.035,-57.056C-3.491,-53.174 -2.802,-47.862 -1.967,-41.119C-1.133,-34.376 -0.478,-28.298 0,-22.883M-19.551,-3.217C-20.301,-6.487 -21.203,-8.751 -22.259,-10.011C-23.178,-11.101 -24.302,-11.646 -25.63,-11.646C-26.584,-11.646 -27.409,-11.33 -28.107,-10.7C-28.806,-10.07 -29.154,-9.279 -29.154,-8.325C-29.154,-6.656 -28.405,-5.388 -26.906,-4.52C-25.409,-3.652 -22.957,-3.217 -19.551,-3.217M-16.333,2.35C-16.333,7.97 -18.41,13.555 -22.565,19.105C-27.196,25.303 -32.543,28.401 -38.604,28.401C-40.852,28.401 -43.168,28.146 -45.551,27.636C-47.288,27.261 -49.553,26.614 -52.345,25.694C-54.559,24.911 -56.772,24.144 -58.985,23.395L-58.117,21.608C-56.21,22.05 -54.209,22.518 -52.115,23.013C-50.021,23.506 -48.14,23.753 -46.471,23.753C-42.316,23.753 -38.383,22.697 -34.671,20.586C-31.777,18.918 -28.882,16.5 -25.987,13.333C-24.523,11.732 -22.446,9.128 -19.756,5.517C-24.353,5.517 -27.793,4.786 -30.074,3.321C-32.662,1.653 -33.956,-1.089 -33.956,-4.903C-33.956,-8.41 -33.139,-11.662 -31.504,-14.659C-29.598,-18.133 -27.18,-19.869 -24.251,-19.869C-21.288,-19.869 -19.16,-18.15 -17.865,-14.71C-16.844,-12.02 -16.333,-8.275 -16.333,-3.473L-16.333,2.35ZM-65.561,-41.783L-69.545,-34.376L-77.819,-38.667L-74.04,-46.125L-65.561,-41.783ZM-61.525,5.415L-90.641,5.415L-90.641,-3.473L-65.254,-3.473C-65.254,-7.49 -65.731,-10.555 -66.685,-12.667C-67.331,-14.131 -68.932,-16.242 -71.485,-19.001L-67.502,-27.327C-65.05,-24.229 -63.518,-21.811 -62.904,-20.073C-61.984,-17.451 -61.525,-13.11 -61.525,-7.048L-61.525,5.415ZM-98.064,15.529L-101.845,22.936L-110.222,18.645L-106.34,11.238L-98.064,15.529ZM-109.711,20.279L-113.542,27.584L-121.971,23.242L-117.986,15.887L-109.711,20.279ZM-87.051,5.415L-137.259,5.415L-137.259,-3.473L-90.78,-3.473C-90.78,-7.49 -91.257,-10.555 -92.21,-12.667C-92.857,-14.131 -94.458,-16.242 -97.012,-19.001L-93.027,-27.327C-90.575,-24.229 -89.043,-21.811 -88.43,-20.073C-87.511,-17.451 -87.051,-13.11 -87.051,-7.048L-87.051,5.415ZM-138.653,-3.217C-139.402,-6.487 -140.305,-8.751 -141.36,-10.011C-142.279,-11.101 -143.403,-11.646 -144.731,-11.646C-145.686,-11.646 -146.512,-11.33 -147.209,-10.7C-147.907,-10.07 -148.256,-9.279 -148.256,-8.325C-148.256,-6.656 -147.508,-5.388 -146.009,-4.52C-144.511,-3.652 -142.059,-3.217 -138.653,-3.217M-141.18,-36.624L-145.164,-29.217L-153.438,-33.508L-149.659,-40.966L-141.18,-36.624ZM-135.435,2.35C-135.435,7.97 -137.513,13.555 -141.667,19.105C-146.298,25.303 -151.645,28.401 -157.706,28.401C-159.953,28.401 -162.27,28.146 -164.653,27.636C-166.39,27.261 -168.655,26.614 -171.446,25.694C-173.661,24.911 -175.874,24.144 -178.087,23.395L-177.219,21.608C-175.312,22.05 -173.312,22.518 -171.217,23.013C-169.123,23.506 -167.241,23.753 -165.572,23.753C-161.418,23.753 -157.485,22.697 -153.772,20.586C-150.879,18.918 -147.984,16.5 -145.089,13.333C-143.625,11.732 -141.548,9.128 -138.857,5.517C-143.454,5.517 -146.895,4.786 -149.176,3.321C-151.764,1.653 -153.058,-1.089 -153.058,-4.903C-153.058,-8.41 -152.24,-11.662 -150.605,-14.659C-148.699,-18.133 -146.281,-19.869 -143.353,-19.869C-140.39,-19.869 -138.262,-18.15 -136.968,-14.71C-135.945,-12.02 -135.435,-8.275 -135.435,-3.473L-135.435,2.35ZM-175.058,5.415C-175.058,9.162 -176.658,13.044 -179.859,17.061C-182.651,20.603 -186.125,23.651 -190.279,26.205C-194.23,28.657 -197.481,29.883 -200.036,29.883C-202.386,29.883 -204.923,29.542 -207.647,28.861C-209.725,28.35 -212.211,27.55 -215.104,26.461C-217.557,25.541 -219.992,24.622 -222.409,23.702L-221.541,21.659C-219.293,22.101 -216.952,22.553 -214.518,23.013C-212.083,23.472 -209.878,23.702 -207.902,23.702C-203.544,23.702 -198.998,22.305 -194.264,19.513C-189.973,16.96 -186.312,13.733 -183.281,9.834C-180.251,5.934 -178.735,2.419 -178.735,-0.714C-178.735,-3.404 -179.52,-6.232 -181.085,-9.194C-182.346,-11.577 -184.116,-14.029 -186.397,-16.549L-183.486,-24.57C-180.694,-21.981 -178.633,-19.393 -177.305,-16.805C-175.807,-13.875 -175.058,-10.607 -175.058,-6.997L-175.058,5.415ZM-226.215,5.415L-230.148,5.415C-232.327,5.415 -234.201,5.117 -235.767,4.521C-237.334,3.926 -238.764,3.083 -240.058,1.993C-241.658,3.253 -243.055,4.087 -244.246,4.496C-245.983,5.108 -248.367,5.415 -251.397,5.415L-254.718,5.415C-256.489,5.415 -258.26,5.075 -260.03,4.393C-261.188,3.952 -262.618,3.219 -264.321,2.197C-265.955,3.424 -267.454,4.266 -268.816,4.725C-270.179,5.185 -272.392,5.415 -275.456,5.415L-285.315,5.415L-285.315,-3.473L-275.456,-3.473C-272.698,-3.473 -270.724,-3.71 -269.531,-4.188C-267.557,-4.971 -266.568,-6.537 -266.568,-8.887C-266.568,-9.874 -266.619,-10.862 -266.722,-11.85C-266.824,-12.837 -267.012,-13.945 -267.283,-15.17L-265.189,-18.235C-264.236,-15.102 -263.452,-12.82 -262.84,-11.39C-261.75,-8.904 -260.559,-7.03 -259.264,-5.772C-257.698,-4.238 -255.825,-3.473 -253.645,-3.473L-250.223,-3.473C-247.669,-3.473 -245.778,-3.863 -244.553,-4.648C-243.191,-5.532 -242.51,-6.946 -242.51,-8.887C-242.51,-9.943 -242.578,-10.964 -242.714,-11.952C-242.851,-12.94 -243.038,-14.012 -243.275,-15.17L-241.13,-18.235L-240.058,-13.434C-239.138,-9.654 -238.015,-7.03 -236.687,-5.568C-235.529,-4.273 -233.962,-3.626 -231.987,-3.626C-231.067,-3.626 -230.327,-3.907 -229.765,-4.469C-229.203,-5.03 -228.922,-5.754 -228.922,-6.64C-228.922,-8.546 -229.62,-10.555 -231.017,-12.667C-231.255,-13.007 -232.089,-14.114 -233.52,-15.987L-230.199,-21.555C-228.803,-19.444 -227.85,-17.622 -227.339,-16.089C-226.59,-13.774 -226.215,-10.692 -226.215,-6.844L-226.215,5.415ZM-294.479,15.529L-298.259,22.936L-306.637,18.645L-302.754,11.238L-294.479,15.529ZM-306.126,20.279L-309.957,27.584L-318.385,23.242L-314.4,15.887L-306.126,20.279ZM-281.725,5.415L-328.404,5.415L-328.404,-3.473L-285.454,-3.473C-285.454,-7.49 -285.932,-10.555 -286.884,-12.667C-287.531,-14.131 -289.132,-16.242 -291.686,-19.001L-287.701,-27.327C-285.249,-24.229 -283.717,-21.811 -283.104,-20.073C-282.185,-17.451 -281.725,-13.11 -281.725,-7.048L-281.725,5.415ZM-325.121,-45.052L-328.9,-37.646L-337.278,-41.937L-333.396,-49.343L-325.121,-45.052ZM-336.768,-40.302L-340.599,-32.997L-349.026,-37.339L-345.042,-44.695L-336.768,-40.302ZM-324.814,5.415L-371.494,5.415L-371.494,-3.473L-328.543,-3.473C-328.543,-7.49 -329.021,-10.555 -329.974,-12.667C-330.621,-14.131 -332.221,-16.242 -334.775,-19.001L-330.791,-27.327C-328.339,-24.229 -326.807,-21.811 -326.193,-20.073C-325.274,-17.451 -324.814,-13.11 -324.814,-7.048L-324.814,5.415ZM-371.462,38.158L-376.213,42.551L-381.934,38.924L-377.336,34.123L-371.462,38.158ZM-382.036,38.158L-386.684,42.551L-392.609,38.924L-387.858,34.123L-382.036,38.158ZM-367.878,5.415L-376.817,5.415C-382.062,5.415 -386.004,5.552 -388.643,5.824C-391.282,6.096 -392.602,6.641 -392.602,7.459C-392.602,8.582 -391.018,9.144 -387.851,9.144C-386.455,9.144 -385.348,9.179 -384.53,9.246C-383.713,9.315 -381.925,9.502 -379.167,9.808C-377.532,10.013 -376.408,10.268 -375.796,10.574C-374.809,11.086 -374.314,11.971 -374.314,13.23C-374.314,19.598 -376.408,24.229 -380.598,27.125C-385.161,30.292 -392.703,31.875 -403.226,31.875C-410.548,31.875 -416.371,30.632 -420.695,28.146C-425.292,25.49 -427.591,21.71 -427.591,16.806C-427.591,12.856 -426.502,8.668 -424.322,4.24C-423.539,2.64 -421.479,-0.782 -418.142,-6.027L-416.099,-5.005C-417.393,-2.791 -418.67,-0.595 -419.929,1.584C-421.87,5.331 -422.841,8.395 -422.841,10.779C-422.841,14.968 -420.662,18.152 -416.303,20.331C-412.148,22.407 -406.444,23.447 -399.19,23.447C-394.321,23.447 -390.03,23.071 -386.318,22.323C-381.755,21.403 -379.474,20.144 -379.474,18.543C-379.474,17.965 -379.729,17.53 -380.239,17.24C-380.75,16.951 -381.602,16.806 -382.794,16.806C-383.713,16.704 -385.152,16.594 -387.11,16.474C-389.068,16.355 -390.354,16.296 -390.967,16.296C-393.112,16.296 -394.645,16.014 -395.563,15.453C-396.483,14.89 -396.943,14.048 -396.943,12.924C-396.943,8.702 -395.7,5.245 -393.214,2.554C-391.171,0.376 -388.43,-1.242 -384.99,-2.298C-382.402,-3.081 -379.678,-3.473 -376.817,-3.473L-367.878,-3.473L-367.878,5.415ZM-464.382,-4.648C-464.825,-6.622 -465.506,-8.564 -466.425,-10.471C-467.209,-12.071 -468.247,-13.722 -469.541,-15.426C-471.176,-15.017 -472.555,-14.251 -473.679,-13.127C-474.428,-12.411 -475.313,-11.202 -476.335,-9.5C-475.109,-8.172 -473.381,-6.98 -471.15,-5.925C-468.92,-4.868 -466.817,-4.222 -464.842,-3.984L-464.382,-4.648ZM-458.508,5.415L-463.82,5.415C-466.102,5.415 -468.673,4.904 -471.533,3.883C-474.837,2.691 -477.748,1.056 -480.268,-1.021C-482.243,1.397 -484.261,3.074 -486.321,4.011C-488.382,4.948 -491.387,5.415 -495.337,5.415L-503.305,5.415L-503.305,-3.473L-495.49,-3.473C-492.392,-3.473 -489.633,-4.256 -487.215,-5.822C-485.343,-7.048 -483.639,-8.768 -482.107,-10.982C-480.03,-13.978 -477.476,-16.583 -474.445,-18.797C-471.721,-20.772 -469.218,-22.031 -466.936,-22.576C-464.586,-19.001 -462.714,-15.783 -461.317,-12.923C-459.445,-9.04 -458.508,-5.891 -458.508,-3.473L-458.508,5.415ZM-499.099,5.415L-524.333,5.415L-524.333,-3.473L-504.258,-3.473L-510.337,-46.789L-512.993,-48.067C-512.993,-50.416 -512.789,-52.62 -512.38,-54.681C-511.972,-56.741 -511.358,-58.742 -510.542,-60.683L-509.775,-60.121C-509.775,-58.146 -508.669,-56.664 -506.455,-55.677C-504.752,-54.995 -503.033,-54.315 -501.296,-53.634C-501.296,-51.931 -501.432,-50.11 -501.704,-48.168C-501.978,-46.227 -502.3,-44.779 -502.675,-43.826L-505.126,-44.644L-499.099,-4.597L-499.099,5.415ZM-531.741,15.529L-535.521,22.936L-543.898,18.645L-540.016,11.238L-531.741,15.529ZM-543.387,20.279L-547.218,27.584L-555.646,23.242L-551.662,15.887L-543.387,20.279ZM-520.743,5.415L-567.422,5.415L-567.422,-3.473L-524.472,-3.473C-524.472,-7.49 -524.949,-10.555 -525.902,-12.667C-526.549,-14.131 -528.15,-16.242 -530.704,-19.001L-526.72,-27.327C-524.268,-24.229 -522.735,-21.811 -522.122,-20.073C-521.203,-17.451 -520.743,-13.11 -520.743,-7.048L-520.743,5.415ZM-563.872,5.415L-567.806,5.415C-569.985,5.415 -571.858,5.117 -573.424,4.521C-574.991,3.926 -576.421,3.083 -577.715,1.993C-579.316,3.253 -580.712,4.087 -581.904,4.496C-583.641,5.108 -586.024,5.415 -589.055,5.415L-592.375,5.415C-594.146,5.415 -595.917,5.075 -597.687,4.393C-598.846,3.952 -600.276,3.219 -601.979,2.197C-603.613,3.424 -605.112,4.266 -606.473,4.725C-607.836,5.185 -610.049,5.415 -613.114,5.415L-622.973,5.415L-622.973,-3.473L-613.114,-3.473C-610.355,-3.473 -608.381,-3.71 -607.188,-4.188C-605.214,-4.971 -604.226,-6.537 -604.226,-8.887C-604.226,-9.874 -604.277,-10.862 -604.379,-11.85C-604.481,-12.837 -604.669,-13.945 -604.941,-15.17L-602.847,-18.235C-601.894,-15.102 -601.11,-12.82 -600.497,-11.39C-599.408,-8.904 -598.216,-7.03 -596.921,-5.772C-595.355,-4.238 -593.482,-3.473 -591.302,-3.473L-587.88,-3.473C-585.326,-3.473 -583.436,-3.863 -582.21,-4.648C-580.849,-5.532 -580.167,-6.946 -580.167,-8.887C-580.167,-9.943 -580.235,-10.964 -580.371,-11.952C-580.508,-12.94 -580.695,-14.012 -580.933,-15.17L-578.788,-18.235L-577.715,-13.434C-576.795,-9.654 -575.672,-7.03 -574.344,-5.568C-573.187,-4.273 -571.62,-3.626 -569.644,-3.626C-568.725,-3.626 -567.984,-3.907 -567.422,-4.469C-566.86,-5.03 -566.58,-5.754 -566.58,-6.64C-566.58,-8.546 -567.278,-10.555 -568.674,-12.667C-568.913,-13.007 -569.747,-14.114 -571.177,-15.987L-567.856,-21.555C-566.46,-19.444 -565.507,-17.622 -564.996,-16.089C-564.248,-13.774 -563.872,-10.692 -563.872,-6.844L-563.872,5.415ZM-632.137,15.529L-635.917,22.936L-644.293,18.645L-640.412,11.238L-632.137,15.529ZM-643.783,20.279L-647.614,27.584L-656.042,23.242L-652.058,15.887L-643.783,20.279ZM-619.382,5.415L-666.062,5.415L-666.062,-3.473L-623.111,-3.473C-623.111,-7.49 -623.588,-10.555 -624.542,-12.667C-625.189,-14.131 -626.789,-16.242 -629.343,-19.001L-625.359,-27.327C-622.907,-24.229 -621.375,-21.811 -620.762,-20.073C-619.842,-17.451 -619.382,-13.11 -619.382,-7.048L-619.382,5.415ZM-662.435,5.415L-669.586,5.415C-671.902,5.415 -673.758,4.479 -675.154,2.606C-676.38,0.971 -677.308,-1.463 -677.938,-4.698C-678.568,-7.934 -679.054,-11.918 -679.394,-16.652C-679.598,-20.499 -679.811,-24.449 -680.032,-28.502C-680.254,-32.555 -680.543,-35.628 -680.9,-37.722C-681.258,-39.817 -681.744,-41.528 -682.356,-42.856C-683.106,-44.49 -684.144,-45.921 -685.472,-47.147L-679.189,-57.056C-677.861,-52.97 -676.925,-48.083 -676.38,-42.396C-676.04,-38.854 -675.699,-30.477 -675.358,-17.265C-674.746,-11.202 -673.86,-7.32 -672.702,-5.618C-671.75,-4.188 -670.71,-3.473 -669.586,-3.473L-662.435,-3.473L-662.435,5.415ZM-720.32,-51.948L-724.305,-44.593L-732.58,-48.986L-728.749,-56.29L-720.32,-51.948ZM-723.896,-21.147C-724.374,-22.372 -725.14,-23.615 -726.195,-24.875C-727.625,-26.578 -728.987,-27.43 -730.281,-27.43C-731.201,-27.43 -731.959,-27.046 -732.554,-26.28C-733.15,-25.514 -733.448,-24.603 -733.448,-23.547C-733.448,-20.822 -731.95,-19.461 -728.953,-19.461C-728.17,-19.461 -727.336,-19.614 -726.45,-19.92C-725.565,-20.227 -724.713,-20.636 -723.896,-21.147M-730.383,-61.04L-734.316,-53.583L-742.489,-57.976L-738.709,-65.434L-730.383,-61.04ZM-732.069,-47.351L-735.951,-39.945L-744.226,-44.236L-740.446,-51.642L-732.069,-47.351ZM-715.57,5.415L-763.863,5.415L-763.863,-3.473L-719.912,-3.473C-719.912,-6.503 -720.269,-9.347 -720.984,-12.003C-722.755,-11.424 -724.118,-11.015 -725.071,-10.778C-726.638,-10.368 -728.017,-10.164 -729.208,-10.164C-731.695,-10.164 -733.721,-10.794 -735.287,-12.054C-737.092,-13.485 -737.994,-15.544 -737.994,-18.235C-737.994,-22.968 -737.144,-27.106 -735.44,-30.648C-733.534,-34.598 -731.047,-36.573 -727.982,-36.573C-723.828,-36.573 -720.627,-33.321 -718.379,-26.817C-716.507,-21.436 -715.57,-15.119 -715.57,-7.865L-715.57,5.415ZM-775.851,-7.712C-773.399,-9.21 -772.173,-10.675 -772.173,-12.106C-772.173,-15.34 -772.854,-16.958 -774.216,-16.958C-775.681,-16.958 -777.434,-15.357 -779.478,-12.156C-780.466,-10.624 -781.861,-8.07 -783.666,-4.494C-780.568,-5.345 -777.962,-6.418 -775.851,-7.712M-770.13,16.601C-770.13,13.912 -772.105,11.324 -776.055,8.838C-779.291,6.795 -782.475,5.501 -785.607,4.956C-785.607,8.702 -784.705,11.784 -782.9,14.201C-780.721,17.131 -777.468,18.595 -773.144,18.595C-772.326,18.595 -771.62,18.424 -771.023,18.084C-770.428,17.743 -770.13,17.249 -770.13,16.601M-755.265,5.415L-773.961,5.415C-771.782,6.437 -769.925,7.885 -768.393,9.757C-766.452,12.107 -765.481,14.661 -765.481,17.419C-765.481,20.075 -765.89,22.203 -766.708,23.805C-767.729,25.813 -769.33,26.818 -771.509,26.818C-775.595,26.818 -779.342,25.404 -782.747,22.578C-786.833,19.174 -788.876,14.679 -788.876,9.093L-788.774,5.415L-800.063,5.415L-800.063,-3.473L-787.14,-3.473C-785.948,-6.64 -784.637,-9.585 -783.206,-12.31C-781.402,-15.749 -779.512,-18.558 -777.536,-20.738C-775.255,-23.258 -773.11,-24.518 -771.1,-24.518C-770.045,-24.518 -769.117,-23.599 -768.316,-21.76C-767.517,-19.92 -767.116,-17.962 -767.116,-15.885C-767.116,-12.889 -767.9,-10.453 -769.466,-8.58C-770.385,-7.457 -773.144,-5.754 -777.741,-3.473L-755.265,-3.473L-755.265,5.415ZM-815.96,-41.732L-819.945,-34.376L-828.22,-38.77L-824.389,-46.073L-815.96,-41.732ZM-826.023,-50.824L-829.957,-43.366L-838.129,-47.76L-834.35,-55.217L-826.023,-50.824ZM-827.709,-37.135L-831.591,-29.729L-839.866,-34.019L-836.086,-41.426L-827.709,-37.135ZM-798.593,34.378L-808.911,42.551C-815.28,42.551 -820.286,42.261 -823.929,41.682C-830.536,40.627 -835.712,38.583 -839.458,35.553C-844.259,31.637 -846.66,26.154 -846.66,19.105C-846.66,14.44 -845.758,10.115 -843.953,6.131C-842.522,2.964 -840.377,-0.22 -837.517,-3.422C-836.155,-4.954 -833.652,-7.423 -830.008,-10.828C-830.349,-11.986 -830.833,-12.837 -831.463,-13.383C-832.094,-13.927 -832.766,-14.199 -833.481,-14.199C-834.367,-14.199 -835.235,-13.604 -836.086,-12.411L-836.955,-12.411C-836.239,-15.987 -835.491,-18.456 -834.707,-19.819C-832.8,-23.088 -829.667,-24.722 -825.308,-24.722C-822.38,-24.722 -819.86,-24.007 -817.748,-22.576C-815.398,-20.976 -814.224,-18.899 -814.224,-16.345C-814.224,-14.676 -814.871,-13.263 -816.165,-12.106C-817.357,-11.152 -818.328,-10.368 -819.076,-9.756C-817.169,-7.474 -815.339,-5.856 -813.585,-4.903C-811.832,-3.949 -809.644,-3.473 -807.021,-3.473L-784.759,-3.473L-784.759,5.415L-807.021,5.415C-812.231,5.415 -816.276,4.633 -819.153,3.065C-822.031,1.5 -824.338,-1.089 -826.075,-4.698C-828.561,-3.098 -830.808,-1.446 -832.817,0.257C-835.542,2.572 -837.67,4.837 -839.202,7.05C-841.11,9.808 -842.062,12.465 -842.062,15.018C-842.062,20.773 -839.186,25.234 -833.43,28.401C-829.003,30.819 -822.925,32.454 -815.194,33.305C-811.108,33.747 -805.642,33.97 -798.797,33.97L-798.593,34.378Z" style="fill:rgb(0,165,162);fill-rule:nonzero;"/>
            </g>
            <g transform="matrix(1,0,0,1,112.646,850.552)">
                <path d="M0,-41.278L8.321,-41.278L8.321,-16.153C8.321,-13.052 8.937,-10.791 10.17,-9.367C11.403,-7.945 13.36,-7.233 16.044,-7.233C18.763,-7.233 20.744,-7.94 21.986,-9.355C23.227,-10.767 23.849,-13.035 23.849,-16.153L23.849,-41.278L32.088,-41.278L32.088,-15.255C32.088,-10.341 30.715,-6.571 27.969,-3.943C25.222,-1.313 21.265,0 16.099,0C10.895,0 6.912,-1.309 4.147,-3.929C1.382,-6.548 0,-10.324 0,-15.255L0,-41.278Z" style="fill:rgb(0,79,158);fill-rule:nonzero;"/>
            </g>
            <g transform="matrix(1,0,0,1,152.81,809.383)">
                <path d="M0,40.055L0,0L8.621,0L24.883,27.519L24.883,0L33.013,0L33.013,40.055L24.501,40.055L8.131,12.534L8.131,40.055L0,40.055Z" style="fill:rgb(0,79,158);fill-rule:nonzero;"/>
            </g>
            <g transform="matrix(1,0,0,1,0,578.821)">
                <rect x="194.361" y="230.562" width="8.24" height="40.055" style="fill:rgb(0,79,158);"/>
            </g>
            <g transform="matrix(1,0,0,1,220.603,809.383)">
                <path d="M0,40.055L-13.814,0L-4.678,0L3.833,29.967L12.508,0L21.537,0L7.886,40.055L0,40.055Z" style="fill:rgb(0,79,158);fill-rule:nonzero;"/>
            </g>
            <g transform="matrix(1,0,0,1,246,809.383)">
                <path d="M0,40.055L0,0L29.096,0L29.096,6.962L8.131,6.962L8.131,15.499L27.299,15.499L27.299,22.353L8.131,22.353L8.131,32.659L30.077,32.659L30.077,40.055L0,40.055Z" style="fill:rgb(0,79,158);fill-rule:nonzero;"/>
            </g>
            <g transform="matrix(1,0,0,1,290.599,831.925)">
                <path d="M0,-5.029L9.68,-5.029C11.783,-5.029 13.329,-5.457 14.317,-6.307C15.305,-7.161 15.799,-8.502 15.799,-10.332C15.799,-12.074 15.318,-13.391 14.358,-14.29C13.396,-15.186 11.964,-15.635 10.061,-15.635L0,-15.635L0,-5.029ZM-8.24,17.513L-8.24,-22.542L11.176,-22.542C15.545,-22.542 18.781,-21.608 20.883,-19.741C22.986,-17.873 24.039,-15.018 24.039,-11.175C24.039,-8.728 23.526,-6.688 22.502,-5.056C21.478,-3.425 20.004,-2.31 18.083,-1.712C19.824,-1.095 21.061,-0.153 21.794,1.116C22.529,2.384 22.951,4.362 23.059,7.043L23.223,11.775L23.223,11.939C23.277,14.331 23.793,15.782 24.772,16.29L24.772,17.513L15.745,17.513C15.454,16.951 15.231,16.258 15.078,15.433C14.924,14.608 14.829,13.624 14.792,12.482L14.684,8.268C14.592,5.784 14.126,4.108 13.283,3.237C12.44,2.367 10.921,1.931 8.729,1.931L0,1.931L0,17.513L-8.24,17.513Z" style="fill:rgb(0,79,158);fill-rule:nonzero;"/>
            </g>
            <g transform="matrix(1,0,0,1,320.266,821.782)">
                <path d="M0,15.282L8.131,15.282C8.439,17.476 9.337,19.103 10.823,20.164C12.31,21.223 14.458,21.756 17.268,21.756C19.661,21.756 21.465,21.328 22.679,20.476C23.894,19.624 24.501,18.365 24.501,16.696C24.501,14.267 21.011,12.254 14.032,10.661C13.94,10.64 13.86,10.623 13.787,10.605C13.605,10.57 13.325,10.505 12.944,10.414C9.209,9.598 6.544,8.684 4.95,7.668C3.535,6.761 2.457,5.543 1.713,4.01C0.969,2.479 0.598,0.671 0.598,-1.413C0.598,-5.312 1.922,-8.298 4.568,-10.375C7.215,-12.449 11.041,-13.488 16.044,-13.488C20.721,-13.488 24.378,-12.382 27.016,-10.17C29.654,-7.957 31.046,-4.841 31.19,-0.817L23.277,-0.817C23.132,-2.755 22.389,-4.233 21.048,-5.249C19.706,-6.264 17.793,-6.772 15.31,-6.772C13.152,-6.772 11.489,-6.35 10.32,-5.507C9.15,-4.664 8.566,-3.462 8.566,-1.904C8.566,0.218 10.841,1.803 15.392,2.855C16.625,3.145 17.585,3.372 18.274,3.535C21.193,4.278 23.264,4.859 24.488,5.274C25.711,5.692 26.776,6.155 27.683,6.662C29.314,7.57 30.539,8.769 31.354,10.264C32.169,11.761 32.577,13.553 32.577,15.636C32.577,19.805 31.173,23.038 28.363,25.331C25.552,27.624 21.592,28.77 16.479,28.77C11.438,28.77 7.487,27.6 4.623,25.261C1.758,22.924 0.218,19.598 0,15.282" style="fill:rgb(0,79,158);fill-rule:nonzero;"/>
            </g>
            <g transform="matrix(1,0,0,1,0,578.821)">
                <rect x="359.532" y="230.562" width="8.241" height="40.055" style="fill:rgb(0,79,158);"/>
            </g>
            <g transform="matrix(1,0,0,1,384.659,809.383)">
                <path d="M0,40.055L0,7.151L-11.884,7.151L-11.884,0L20.042,0L20.042,7.151L8.239,7.151L8.239,40.055L0,40.055Z" style="fill:rgb(0,79,158);fill-rule:nonzero;"/>
            </g>
            <g transform="matrix(1,0,0,1,0,578.821)">
                <rect x="409.731" y="230.562" width="8.24" height="40.055" style="fill:rgb(0,79,158);"/>
            </g>
            <g transform="matrix(1,0,0,1,442.39,809.383)">
                <path d="M0,40.055L0,0L12.184,0L20.151,30.483L28.009,0L40.247,0L40.247,40.055L32.523,40.055L32.523,7.75L24.394,40.055L15.963,40.055L7.724,7.75L7.724,40.055L0,40.055Z" style="fill:rgb(0,79,158);fill-rule:nonzero;"/>
            </g>
            <g transform="matrix(1,0,0,1,505.859,841.416)">
                <path d="M0,-24.012L-5.547,-6.962L5.575,-6.962L0,-24.012ZM-4.785,-32.033L4.732,-32.033L19.172,8.021L10.525,8.021L7.805,-0.219L-7.722,-0.219L-10.36,8.021L-19.035,8.021L-4.785,-32.033Z" style="fill:rgb(0,79,158);fill-rule:nonzero;"/>
            </g>
            <g transform="matrix(1,0,0,1,529.164,809.383)">
                <path d="M0,40.055L0,0L8.241,0L8.241,32.659L27.792,32.659L27.792,40.055L0,40.055Z" style="fill:rgb(0,79,158);fill-rule:nonzero;"/>
            </g>
            <g transform="matrix(1,0,0,1,576.371,841.416)">
                <path d="M0,-24.012L-5.548,-6.962L5.575,-6.962L0,-24.012ZM-4.785,-32.033L4.731,-32.033L19.172,8.021L10.524,8.021L7.805,-0.219L-7.723,-0.219L-10.36,8.021L-19.035,8.021L-4.785,-32.033Z" style="fill:rgb(0,79,158);fill-rule:nonzero;"/>
            </g>
            <g transform="matrix(1,0,0,1,614.333,809.383)">
                <path d="M0,40.055L-8.239,40.055L-8.239,25.127L-22.787,0L-12.699,0L-4.133,17.267L3.779,0L13.188,0L0,25.127L0,40.055Z" style="fill:rgb(0,79,158);fill-rule:nonzero;"/>
            </g>
            <g transform="matrix(1,0,0,1,629.207,821.782)">
                <path d="M0,15.282L8.131,15.282C8.439,17.476 9.337,19.103 10.823,20.164C12.31,21.223 14.458,21.756 17.268,21.756C19.661,21.756 21.465,21.328 22.68,20.476C23.893,19.624 24.502,18.365 24.502,16.696C24.502,14.267 21.011,12.254 14.032,10.661C13.94,10.64 13.859,10.623 13.787,10.605C13.605,10.57 13.325,10.505 12.943,10.414C9.21,9.598 6.544,8.684 4.949,7.668C3.535,6.761 2.457,5.543 1.713,4.01C0.97,2.479 0.598,0.671 0.598,-1.413C0.598,-5.312 1.922,-8.298 4.568,-10.375C7.215,-12.449 11.041,-13.488 16.045,-13.488C20.721,-13.488 24.378,-12.382 27.016,-10.17C29.653,-7.957 31.046,-4.841 31.189,-0.817L23.276,-0.817C23.133,-2.755 22.389,-4.233 21.048,-5.249C19.706,-6.264 17.794,-6.772 15.31,-6.772C13.152,-6.772 11.489,-6.35 10.319,-5.507C9.15,-4.664 8.566,-3.462 8.566,-1.904C8.566,0.218 10.841,1.803 15.392,2.855C16.625,3.145 17.585,3.372 18.274,3.535C21.193,4.278 23.265,4.859 24.487,5.274C25.711,5.692 26.774,6.155 27.683,6.662C29.314,7.57 30.537,8.769 31.354,10.264C32.169,11.761 32.576,13.553 32.576,15.636C32.576,19.805 31.172,23.038 28.362,25.331C25.552,27.624 21.592,28.77 16.479,28.77C11.438,28.77 7.487,27.6 4.623,25.261C1.759,22.924 0.218,19.598 0,15.282" style="fill:rgb(0,79,158);fill-rule:nonzero;"/>
            </g>
            <g transform="matrix(1,0,0,1,0,578.821)">
                <rect x="668.474" y="230.562" width="8.24" height="40.055" style="fill:rgb(0,79,158);"/>
            </g>
            <g transform="matrix(1,0,0,1,700.207,841.416)">
                <path d="M0,-24.012L-5.547,-6.962L5.575,-6.962L0,-24.012ZM-4.784,-32.033L4.732,-32.033L19.172,8.021L10.526,8.021L7.806,-0.219L-7.722,-0.219L-10.359,8.021L-19.033,8.021L-4.784,-32.033Z" style="fill:rgb(0,79,158);fill-rule:nonzero;"/>
            </g>
            <g transform="matrix(1,0,0,1,747.635,830.893)">
                <path d="M0,-2.965L7.966,-2.965C10.123,-2.965 11.691,-3.422 12.67,-4.338C13.649,-5.254 14.14,-6.726 14.14,-8.757C14.14,-10.659 13.659,-12.102 12.698,-13.081C11.736,-14.06 10.305,-14.548 8.401,-14.548L0,-14.548L0,-2.965ZM-0.056,4.297L-0.056,18.545L-8.296,18.545L-8.296,-21.51L9.517,-21.51C13.723,-21.51 16.908,-20.419 19.075,-18.235C21.241,-16.049 22.325,-12.844 22.325,-8.62C22.325,-4.487 21.264,-1.3 19.144,0.937C17.022,3.178 13.994,4.297 10.061,4.297L-0.056,4.297Z" style="fill:rgb(0,79,158);fill-rule:nonzero;"/>
            </g>
            <g transform="matrix(1,0,0,1,787.823,841.416)">
                <path d="M0,-24.012L-5.547,-6.962L5.575,-6.962L0,-24.012ZM-4.785,-32.033L4.732,-32.033L19.172,8.021L10.525,8.021L7.806,-0.219L-7.722,-0.219L-10.359,8.021L-19.033,8.021L-4.785,-32.033Z" style="fill:rgb(0,79,158);fill-rule:nonzero;"/>
            </g>
            <g transform="matrix(1,0,0,1,811.128,809.383)">
                <path d="M0,40.055L0,0L8.296,0L8.296,14.928L24.827,14.928L24.827,0L33.123,0L33.123,40.055L24.827,40.055L24.827,22.298L8.296,22.298L8.296,40.055L0,40.055Z" style="fill:rgb(0,79,158);fill-rule:nonzero;"/>
            </g>
            <g transform="matrix(1,0,0,1,867.42,841.416)">
                <path d="M0,-24.012L-5.548,-6.962L5.575,-6.962L0,-24.012ZM-4.785,-32.033L4.731,-32.033L19.172,8.021L10.523,8.021L7.805,-0.219L-7.723,-0.219L-10.36,8.021L-19.036,8.021L-4.785,-32.033Z" style="fill:rgb(0,79,158);fill-rule:nonzero;"/>
            </g>
            <g transform="matrix(1,0,0,1,890.723,809.383)">
                <path d="M0,40.055L0,0L8.62,0L24.883,27.519L24.883,0L33.013,0L33.013,40.055L24.502,40.055L8.132,12.534L8.132,40.055L0,40.055Z" style="fill:rgb(0,79,158);fill-rule:nonzero;"/>
            </g>
            <g transform="matrix(1,0,0,1,960.827,814.196)">
                <path d="M0,30.51C-1.487,32.523 -3.178,34 -5.07,34.943C-6.966,35.886 -9.191,36.357 -11.747,36.357C-17.35,36.357 -21.886,34.412 -25.357,30.524C-28.828,26.635 -30.565,21.527 -30.565,15.201C-30.565,8.819 -28.834,3.716 -25.371,-0.109C-21.907,-3.935 -17.294,-5.847 -11.53,-5.847C-6.509,-5.847 -2.411,-4.646 0.763,-2.245C3.935,0.158 5.819,3.462 6.418,7.668L-1.985,7.668C-2.492,5.584 -3.53,3.996 -5.098,2.908C-6.666,1.822 -8.711,1.278 -11.23,1.278C-14.585,1.278 -17.217,2.505 -19.13,4.961C-21.043,7.418 -21.998,10.815 -21.998,15.146C-21.998,19.497 -21.002,22.906 -19.008,25.37C-17.015,27.836 -14.276,29.07 -10.795,29.07C-8.185,29.07 -6,28.298 -4.241,26.757C-2.483,25.217 -1.396,23.105 -0.979,20.422L-10.061,20.422L-10.061,13.569L6.526,13.569L6.526,35.241L1.007,35.241L0,30.51Z" style="fill:rgb(0,79,158);fill-rule:nonzero;"/>
            </g>
        </g>
    </g>
</svg>
