<?xml version="1.0" encoding="UTF-8" standalone="no"?><!DOCTYPE svg PUBLIC "-//W3C//DTD SVG 1.1//EN" "http://www.w3.org/Graphics/SVG/1.1/DTD/svg11.dtd"><svg width="100%" height="100%" viewBox="0 0 530 248" version="1.1" xmlns="http://www.w3.org/2000/svg" xmlns:xlink="http://www.w3.org/1999/xlink" xml:space="preserve" xmlns:serif="http://www.serif.com/" style="fill-rule:evenodd;clip-rule:evenodd;"><rect id="Artboard1" x="0" y="0" width="529.16" height="247.472" style="fill:none;"/><clipPath id="_clip1"><rect x="0" y="0" width="529.16" height="247.472"/></clipPath><g clip-path="url(#_clip1)"><g id="Layer-1" serif:id="Layer 1"><path d="M111.522,240.432c-0,-0 34.954,-3.206 73.529,-45.751c33.09,-36.494 31.865,-63.727 31.865,-85.243l-0,-102.397l-210.516,-0l0,117.649c0,-0 1.906,40.441 36.494,72.441c37.926,35.088 58.007,41.668 68.628,43.301" style="fill:#788b9b;fill-rule:nonzero;"/><path d="M195.638,54.019l0,75.026c0,0 1.669,22.47 -12.629,44.12c-11.614,17.587 -26.144,28.323 -43.981,33.362c-17.838,5.038 -28.051,4.084 -40.714,2.86c-12.665,-1.225 -32.818,-11.576 -43.167,-21.652c-10.348,-10.075 -21.141,-26.455 -23.284,-45.616c-2.586,-23.149 3.166,-37.053 7.763,-45.48c5.719,-10.485 16.904,-24.183 32.815,-32.543c8.034,-4.223 14.842,-8.579 32.953,-10.213l90.244,0.136Z" style="fill:#bc2127;fill-rule:nonzero;stroke:#fff;stroke-width:4.17px;"/><path d="M7.422,53.134l15.999,-0l66.246,62.567l-0,116.424l-3.54,-1.838l-0,-103.147l-78.705,-74.006Z" style="fill:#fff;fill-rule:nonzero;"/><path d="M42.417,53.134l16.34,-0l38.738,36.629l0,146.141l-3.573,-1.48l0,-133.223l-51.505,-48.067Z" style="fill:#fff;fill-rule:nonzero;"/><path d="M75.283,53.202l16.392,0l13.736,11.947l0.154,173.921l-3.627,-1.225l-0,-161.206l-26.655,-23.437Z" style="fill:#fff;fill-rule:nonzero;"/><path d="M117.513,104.401l14.024,-11.984l16.07,-0l-26.417,23.421l-0,122.21l-3.745,1.022l0.068,-134.669Z" style="fill:#fff;fill-rule:nonzero;"/><path d="M164.355,92.417l16.204,0l-51.54,48.135l-0,94.705l-3.472,1.431l-0,-107.779l38.808,-36.492Z" style="fill:#fff;fill-rule:nonzero;"/><path d="M199.622,92.349l16.136,-0l-78.842,74.074l0,65.499l-3.403,1.634l0,-78.637l66.109,-62.57Z" style="fill:#fff;fill-rule:nonzero;"/><rect x="12.254" y="15.619" width="27.778" height="29.684" style="fill:#bc2127;"/><rect x="43.165" y="15.619" width="25.736" height="29.821" style="fill:#bc2127;"/><rect x="72.168" y="15.619" width="32.001" height="29.889" style="fill:#bc2127;"/><path d="M15.608,19.554l6.587,-0l0.034,11.483c0,1.821 -0.055,2.33 0.129,2.853c0.301,0.86 0.548,1.315 1.268,1.745c0.844,0.506 1.309,0.592 2.382,0.579c1.592,-0.02 2.008,-0.414 2.516,-0.893c0.458,-0.434 0.632,-0.547 0.828,-1.508c0.148,-0.723 0.095,-0.855 0.095,-2.53l-0,-11.729l6.569,-0l0.029,11.135c-0,2.544 -0.14,4.342 -0.419,5.395c-0.279,1.051 -0.796,1.936 -1.547,2.66c-0.751,0.724 -1.757,1.301 -3.016,1.728c-1.259,0.429 -2.903,0.644 -4.93,0.644c-2.447,0 -4.304,-0.234 -5.569,-0.702c-1.265,-0.466 -2.263,-1.073 -2.998,-1.823c-0.733,-0.747 -1.218,-1.53 -1.452,-2.348c-0.338,-1.216 -0.506,-3.01 -0.506,-5.38l0,-11.309Z" style="fill:#fff;fill-rule:nonzero;"/><path d="M58.913,26.05c-0,-0.457 -0.132,-0.851 -0.395,-1.181c-0.263,-0.329 -0.58,-0.556 -0.948,-0.681c-0.467,-0.167 -0.912,-0.262 -1.339,-0.287c-0.425,-0.027 -1.003,-0.04 -1.731,-0.04l-0.697,0l-0,4.857l0.342,0c0.464,0 0.904,-0.003 1.316,-0.011c0.414,-0.007 0.773,-0.032 1.082,-0.075c0.262,-0.037 0.541,-0.109 0.835,-0.214c0.294,-0.105 0.521,-0.222 0.677,-0.354c0.335,-0.268 0.562,-0.547 0.681,-0.837c0.118,-0.291 0.177,-0.683 0.177,-1.177m7.055,0.052c-0,1.011 -0.179,1.974 -0.535,2.887c-0.356,0.916 -0.87,1.679 -1.538,2.292c-0.412,0.379 -0.861,0.73 -1.353,1.05c-0.491,0.322 -1.036,0.595 -1.629,0.818c-0.594,0.223 -1.239,0.398 -1.935,0.525c-0.696,0.125 -1.476,0.19 -2.342,0.19l-2.761,-0.039l0.003,7.181l-6.476,-0.038l0,-21.723l9.365,0c1.393,0 2.593,0.114 3.604,0.341c1.009,0.23 1.926,0.592 2.745,1.088c0.907,0.545 1.61,1.272 2.106,2.181c0.497,0.909 0.746,1.992 0.746,3.247" style="fill:#fff;fill-rule:nonzero;"/><path d="M76.041,40.979l0,-21.187l8.639,-0.036l3.319,12.663l3.318,-12.663l8.581,0.036l-0,21.187l-5.363,-0.034l-0.052,-14.449l-4.122,14.483l-4.802,0l-4.148,-14.381l0,14.399l-5.37,-0.018Z" style="fill:#fff;fill-rule:nonzero;"/><path d="M126.227,40.742c-0,0 3.491,1.367 6.863,0.506c3.372,-0.861 6.803,-2.483 9.288,-2.737c2.484,-0.253 6.567,0.051 9.645,1.217c3.075,1.168 4.2,2.027 5.323,3.193l-0.072,32.378c-0,0 -3.181,-2.353 -6.435,-3.281c-3.195,-0.914 -4.26,-1.319 -7.987,-0.964c-4.78,0.455 -6.055,2.435 -9.762,2.839c-2.959,0.32 -3.018,0.253 -6.805,-0.558l-0.058,-32.593Z" style="fill:#788b9b;fill-rule:nonzero;stroke:#030404;stroke-width:0.42px;"/><path d="M188.881,40.708c-0,-0 -3.543,1.369 -6.967,0.508c-3.423,-0.862 -6.907,-2.485 -9.43,-2.737c-2.523,-0.254 -6.668,0.05 -9.791,1.217c-3.122,1.163 -4.264,2.026 -5.405,3.191l-0.026,32.421c0,-0 3.33,-2.396 6.634,-3.326c3.242,-0.911 4.323,-1.317 8.107,-0.962c4.853,0.455 6.148,2.437 9.911,2.838c3.003,0.321 3.064,0.255 6.907,-0.556l0.06,-32.594Z" style="fill:#788b9b;fill-rule:nonzero;stroke:#030404;stroke-width:0.42px;"/><path d="M127.929,39.532c0,0 3.313,1.379 6.518,0.513c3.201,-0.869 6.459,-2.503 8.819,-2.758c2.358,-0.256 6.234,0.05 9.155,1.224c2.92,1.176 3.988,2.044 5.056,3.218l-0.07,32.616c-0,-0 -3.02,-2.37 -6.109,-3.306c-3.034,-0.918 -4.044,-1.328 -7.583,-0.971c-4.54,0.459 -5.749,2.456 -9.268,2.86c-2.811,0.324 -2.868,0.256 -6.463,-0.562l-0.055,-32.834Z" style="fill:#788b9b;fill-rule:nonzero;stroke:#030404;stroke-width:0.42px;"/><path d="M187.417,39.5c0,-0 -3.364,1.379 -6.616,0.511c-3.249,-0.868 -6.558,-2.502 -8.952,-2.758c-2.395,-0.256 -6.33,0.051 -9.296,1.226c-2.964,1.174 -4.049,2.042 -5.132,3.216l-0.024,32.66c-0,-0 3.159,-2.413 6.297,-3.35c3.078,-0.918 4.106,-1.327 7.699,-0.97c4.606,0.458 5.836,2.455 9.408,2.86c2.854,0.325 2.909,0.254 6.56,-0.562l0.056,-32.833Z" style="fill:#788b9b;fill-rule:nonzero;stroke:#030404;stroke-width:0.42px;"/><path d="M129.258,38.343c-0,-0 3.161,1.378 6.213,0.51c3.053,-0.869 6.16,-2.502 8.411,-2.758c2.25,-0.255 5.947,0.051 8.731,1.226c2.788,1.174 3.805,2.042 4.822,3.216l-0.068,32.618c0,-0 -2.879,-2.371 -5.824,-3.308c-2.894,-0.919 -3.858,-1.326 -7.234,-0.969c-4.328,0.459 -5.483,2.453 -8.838,2.859c-2.679,0.323 -2.732,0.255 -6.161,-0.561l-0.052,-32.833Z" style="fill:#788b9b;fill-rule:nonzero;stroke:#030404;stroke-width:0.42px;"/><path d="M185.988,38.308c0,0 -3.21,1.379 -6.309,0.511c-3.099,-0.868 -6.254,-2.502 -8.537,-2.758c-2.285,-0.255 -6.038,0.051 -8.867,1.226c-2.828,1.174 -3.86,2.042 -4.893,3.216l-0.023,32.66c0,-0 3.014,-2.413 6.005,-3.35c2.935,-0.918 3.915,-1.326 7.341,-0.969c4.396,0.458 5.567,2.454 8.974,2.859c2.721,0.323 2.774,0.254 6.254,-0.562l0.055,-32.833Z" style="fill:#788b9b;fill-rule:nonzero;stroke:#030404;stroke-width:0.42px;"/><path d="M130.584,36.811c0,-0 3.014,1.378 5.924,0.51c2.91,-0.868 5.871,-2.503 8.016,-2.758c2.145,-0.255 5.668,0.051 8.324,1.226c2.655,1.175 3.626,2.043 4.596,3.217l-0.065,32.617c-0,-0 -2.744,-2.37 -5.553,-3.308c-2.758,-0.918 -3.676,-1.326 -6.892,-0.969c-4.127,0.459 -5.226,2.454 -8.426,2.859c-2.553,0.323 -2.605,0.255 -5.873,-0.561l-0.051,-32.833Z" style="fill:#fff;fill-rule:nonzero;stroke:#030404;stroke-width:0.04px;"/><path d="M184.66,36.776c-0,0 -3.059,1.379 -6.013,0.511c-2.955,-0.869 -5.963,-2.502 -8.14,-2.758c-2.175,-0.255 -5.753,0.051 -8.448,1.226c-2.696,1.175 -3.681,2.043 -4.667,3.217l-0.021,32.659c-0,0 2.873,-2.413 5.723,-3.35c2.8,-0.918 3.734,-1.326 6.999,-0.971c4.188,0.461 5.305,2.456 8.554,2.861c2.592,0.323 2.644,0.255 5.961,-0.561l0.052,-32.834Z" style="fill:#fff;fill-rule:nonzero;stroke:#030404;stroke-width:0.04px;"/><path d="M132.524,44.76c0.256,0 2.452,1.224 7.915,-1.379c5.464,-2.605 8.393,-0.903 9.158,-0.749c1.545,0.308 5.753,3.352 5.753,3.352" style="fill:none;fill-rule:nonzero;stroke:#030404;stroke-width:0.83px;stroke-miterlimit:1;stroke-dasharray:16.67,4.17;"/><path d="M132.593,53.303c0.255,-0 2.451,1.226 7.915,-1.379c5.463,-2.603 8.39,-0.902 9.157,-0.748c1.545,0.309 5.753,3.353 5.753,3.353" style="fill:none;fill-rule:nonzero;stroke:#030404;stroke-width:0.83px;stroke-miterlimit:1;stroke-dasharray:16.67,4.17;"/><path d="M132.695,62.085c0.255,-0 2.453,1.225 7.915,-1.379c5.464,-2.603 8.392,-0.901 9.158,-0.748c1.544,0.31 5.753,3.352 5.753,3.352" style="fill:none;fill-rule:nonzero;stroke:#030404;stroke-width:0.83px;stroke-miterlimit:1;stroke-dasharray:16.67,4.17;"/><path d="M182.686,44.69c-0.256,-0 -2.45,1.226 -7.914,-1.379c-5.465,-2.603 -8.392,-0.901 -9.159,-0.747c-1.544,0.308 -5.751,3.352 -5.751,3.352" style="fill:none;fill-rule:nonzero;stroke:#030404;stroke-width:0.83px;stroke-miterlimit:1;stroke-dasharray:16.67,4.17;"/><path d="M182.619,53.236c-0.255,0 -2.452,1.225 -7.915,-1.379c-5.463,-2.604 -8.393,-0.902 -9.158,-0.749c-1.544,0.309 -5.752,3.353 -5.752,3.353" style="fill:none;fill-rule:nonzero;stroke:#030404;stroke-width:0.83px;stroke-miterlimit:1;stroke-dasharray:16.67,4.17;"/><path d="M182.515,62.018c-0.255,0 -2.451,1.224 -7.914,-1.378c-5.465,-2.605 -8.392,-0.904 -9.157,-0.75c-1.546,0.309 -5.753,3.352 -5.753,3.352" style="fill:none;fill-rule:nonzero;stroke:#030404;stroke-width:0.83px;stroke-miterlimit:1;stroke-dasharray:16.67,4.17;"/><path d="M190.225,39.721c-0.305,0.272 -2.826,0.75 -2.826,0.75l0,0.645l1.482,-0.408l-0.061,32.512c-0.026,0.003 -0.07,0.016 -0.158,0.066c-0.308,0.171 -2.555,0.987 -6.061,0.681c-3.507,-0.308 -5.276,-1.975 -9.431,-2.791c-4.152,-0.818 -6.126,0.033 -9.121,0.85c-2.997,0.818 -6.787,3.281 -6.787,3.281c0,0 -1.521,-0.966 -2.405,-1.511c-0.886,-0.544 -5.413,-3.301 -10.621,-2.928c-5.208,0.376 -4.563,1.227 -9.294,2.621c-4.731,1.397 -8.715,-0.154 -8.715,-0.154l-0,-32.593l1.634,0.476l0.034,-0.647l-3.063,-0.815l-0,35.062c1.974,0.783 2.281,0.886 5.958,0.816c3.676,-0.066 6.433,-3.3 13.446,-3.403c7.013,-0.103 11.914,4.46 11.914,4.46l2.195,-0c0.054,-0.047 0.096,-0.084 0.153,-0.137c2.349,-2.076 5.651,-3.268 9.941,-4.052c4.289,-0.782 7.829,0.376 12.767,2.282c4.936,1.907 9.019,-0.103 9.019,-0.103c0,0 0.308,-35.233 0,-34.96" style="fill:#030404;fill-rule:nonzero;"/><rect x="188.83" y="46.564" width="5.719" height="2.587" style="fill:#030404;stroke:#fff;stroke-width:0.42px;"/><rect x="188.762" y="63.96" width="5.516" height="2.382" style="fill:#030404;stroke:#fff;stroke-width:0.42px;"/><rect x="120.85" y="63.959" width="5.411" height="2.519" style="fill:#030404;stroke:#fff;stroke-width:0.42px;"/><rect x="120.576" y="46.528" width="5.65" height="2.485" style="fill:#030404;stroke:#fff;stroke-width:0.42px;"/><path d="M111.725,7.246l-0,233.152" style="fill:none;fill-rule:nonzero;stroke:#fff;stroke-width:5.83px;"/><rect x="239.694" y="49.253" width="86.512" height="89.756" style="fill:#bc2328;"/><rect x="332.794" y="49.253" width="78.942" height="89.756" style="fill:#bc2328;"/><rect x="418.158" y="49.253" width="98.408" height="89.756" style="fill:#bc2328;"/><path d="M293.9,61.91l19.734,-0l0,38.245c0,3.794 -0.592,7.371 -1.77,10.737c-1.178,3.372 -3.029,6.32 -5.548,8.845c-2.52,2.522 -5.161,4.295 -7.928,5.314c-3.843,1.429 -8.461,2.145 -13.846,2.145c-3.117,0 -6.514,-0.218 -10.198,-0.657c-3.681,-0.441 -6.763,-1.304 -9.239,-2.6c-2.475,-1.303 -4.738,-3.143 -6.79,-5.535c-2.053,-2.394 -3.46,-4.857 -4.216,-7.401c-1.225,-4.08 -1.834,-7.696 -1.834,-10.848l0,-38.245l19.736,-0l-0,39.132c-0,3.498 0.968,6.23 2.905,8.198c1.933,1.97 4.628,2.955 8.065,2.955c3.408,0 6.081,-0.973 8.021,-2.906c1.933,-1.944 2.908,-4.692 2.908,-8.247l0,-39.132Z" style="fill:#fff;fill-rule:nonzero;"/><path d="M364.899,89.214l4.87,0c3.83,0 6.526,-0.667 8.075,-1.993c1.55,-1.332 2.327,-3.033 2.327,-5.107c0,-2.015 -0.675,-3.724 -2.02,-5.127c-1.345,-1.402 -3.875,-2.104 -7.594,-2.104l-5.658,0l-0,14.331Zm-19.871,-27.305l32.973,0c7.18,0 12.557,1.704 16.138,5.11c3.572,3.408 5.361,8.258 5.361,14.548c0,6.465 -1.95,11.52 -5.852,15.163c-3.903,3.64 -9.864,5.461 -17.871,5.461l-10.878,0l-0,23.926l-19.871,0l-0,-64.208Z" style="fill:#fff;fill-rule:nonzero;"/><path d="M431.271,61.91l26.139,-0l9.997,39.086l10.014,-39.086l26.033,-0l-0,64.208l-16.221,-0l-0,-48.928l-12.534,48.928l-14.699,-0l-12.509,-48.928l-0,48.928l-16.22,-0l0,-64.208Z" style="fill:#fff;fill-rule:nonzero;"/><path d="M238.688,150.348l2.821,-0l-0,7.601c-0,1.207 0.035,1.988 0.105,2.344c0.122,0.575 0.409,1.035 0.862,1.386c0.455,0.346 1.079,0.52 1.866,0.52c0.799,0 1.404,-0.166 1.811,-0.495c0.406,-0.327 0.65,-0.733 0.734,-1.21c0.083,-0.479 0.124,-1.273 0.124,-2.383l-0,-7.763l2.821,-0l0,7.37c0,1.685 -0.076,2.875 -0.229,3.571c-0.153,0.697 -0.434,1.283 -0.845,1.761c-0.409,0.478 -0.957,0.859 -1.643,1.144c-0.687,0.284 -1.582,0.425 -2.687,0.425c-1.337,-0 -2.348,-0.156 -3.038,-0.463c-0.689,-0.31 -1.233,-0.713 -1.635,-1.205c-0.4,-0.496 -0.664,-1.014 -0.792,-1.557c-0.183,-0.803 -0.275,-1.991 -0.275,-3.559l-0,-7.487Z" style="fill:#231f20;fill-rule:nonzero;"/><path d="M252.6,164.363l-0,-14.015l2.732,-0l5.778,9.422l0,-9.422l2.608,-0l-0,14.015l-2.819,0l-5.691,-9.238l0,9.238l-2.608,0Z" style="fill:#231f20;fill-rule:nonzero;"/><rect x="266.415" y="150.348" width="2.821" height="14.016" style="fill:#231f20;"/><path d="M275.263,164.363l-4.968,-14.015l3.065,-0l3.529,10.369l3.435,-10.369l2.996,-0l-5.014,14.015l-3.043,0Z" style="fill:#231f20;fill-rule:nonzero;"/><path d="M284.561,164.363l0,-14.015l10.391,-0l-0,2.374l-7.571,-0l0,3.104l7.054,-0l0,2.376l-7.054,0l0,3.784l7.832,0l-0,2.377l-10.652,0Z" style="fill:#231f20;fill-rule:nonzero;"/><path d="M300.213,156.273l2.083,0c1.353,0 2.194,-0.057 2.532,-0.173c0.335,-0.113 0.6,-0.31 0.79,-0.592c0.191,-0.28 0.284,-0.626 0.284,-1.048c0,-0.471 -0.123,-0.85 -0.373,-1.141c-0.253,-0.289 -0.606,-0.472 -1.063,-0.551c-0.228,-0.028 -0.913,-0.046 -2.054,-0.046l-2.199,-0l0,3.551Zm-2.821,8.09l-0,-14.015l5.937,0c1.494,0 2.578,0.129 3.252,0.38c0.678,0.25 1.218,0.696 1.628,1.339c0.405,0.644 0.608,1.381 0.608,2.208c-0,1.052 -0.308,1.919 -0.922,2.602c-0.614,0.687 -1.532,1.119 -2.757,1.297c0.609,0.356 1.108,0.748 1.505,1.174c0.395,0.43 0.929,1.186 1.598,2.278l1.703,2.737l-3.377,-0l-2.017,-3.056c-0.726,-1.09 -1.221,-1.778 -1.49,-2.061c-0.265,-0.282 -0.55,-0.476 -0.852,-0.582c-0.299,-0.104 -0.773,-0.156 -1.421,-0.156l-0.574,-0l0,5.855l-2.821,-0Z" style="fill:#231f20;fill-rule:nonzero;"/><path d="M310.549,159.777l2.752,-0.26c0.168,0.923 0.504,1.598 1.012,2.032c0.509,0.433 1.194,0.65 2.057,0.65c0.914,-0 1.604,-0.193 2.065,-0.579c0.466,-0.384 0.697,-0.835 0.697,-1.35c-0,-0.33 -0.098,-0.611 -0.292,-0.843c-0.196,-0.233 -0.535,-0.435 -1.019,-0.606c-0.331,-0.117 -1.087,-0.322 -2.265,-0.613c-1.518,-0.373 -2.583,-0.838 -3.199,-1.386c-0.861,-0.769 -1.288,-1.711 -1.288,-2.821c-0,-0.714 0.201,-1.38 0.606,-2.004c0.405,-0.62 0.987,-1.094 1.75,-1.42c0.759,-0.324 1.681,-0.488 2.757,-0.488c1.758,0 3.082,0.391 3.971,1.167c0.89,0.778 1.357,1.815 1.399,3.113l-2.819,0.095c-0.122,-0.72 -0.383,-1.235 -0.782,-1.55c-0.399,-0.316 -0.999,-0.473 -1.794,-0.473c-0.824,-0 -1.47,0.168 -1.937,0.507c-0.299,0.218 -0.449,0.503 -0.449,0.867c-0,0.33 0.141,0.616 0.423,0.85c0.353,0.297 1.221,0.611 2.598,0.936c1.375,0.323 2.393,0.661 3.054,1.008c0.66,0.35 1.174,0.825 1.547,1.428c0.372,0.605 0.56,1.35 0.56,2.239c0,0.804 -0.225,1.559 -0.669,2.262c-0.447,0.704 -1.079,1.228 -1.895,1.569c-0.815,0.341 -1.833,0.512 -3.051,0.512c-1.772,-0 -3.135,-0.411 -4.084,-1.235c-0.952,-0.826 -1.52,-2.028 -1.705,-3.607" style="fill:#231f20;fill-rule:nonzero;"/><rect x="324.041" y="150.348" width="2.821" height="14.016" style="fill:#231f20;"/><path d="M332.505,164.363l-0,-11.641l-4.137,-0l-0,-2.374l11.094,-0l0,2.374l-4.136,-0l-0,11.641l-2.821,0Z" style="fill:#231f20;fill-rule:nonzero;"/><rect x="340.992" y="150.348" width="2.823" height="14.016" style="fill:#231f20;"/><path d="M354.347,152.722l0,3.975l1.548,0c1.112,0 1.859,-0.075 2.234,-0.221c0.375,-0.146 0.67,-0.376 0.883,-0.686c0.214,-0.312 0.318,-0.677 0.318,-1.089c0,-0.511 -0.149,-0.93 -0.448,-1.262c-0.298,-0.332 -0.676,-0.536 -1.134,-0.622c-0.34,-0.061 -1.018,-0.095 -2.035,-0.095l-1.366,-0Zm-2.821,11.641l-0,-14.015l4.534,-0c1.72,-0 2.839,0.07 3.36,0.211c0.803,0.21 1.474,0.667 2.015,1.371c0.541,0.705 0.812,1.612 0.812,2.727c-0,0.861 -0.155,1.584 -0.467,2.169c-0.313,0.586 -0.711,1.045 -1.19,1.38c-0.481,0.333 -0.97,0.556 -1.467,0.664c-0.675,0.133 -1.65,0.201 -2.933,0.201l-1.843,0l0,5.292l-2.821,0Z" style="fill:#231f20;fill-rule:nonzero;"/><path d="M364.357,150.348l2.823,-0l-0,7.601c-0,1.207 0.035,1.988 0.104,2.344c0.121,0.575 0.409,1.035 0.863,1.386c0.453,0.346 1.077,0.52 1.862,0.52c0.803,0 1.407,-0.166 1.814,-0.495c0.406,-0.327 0.65,-0.733 0.732,-1.21c0.084,-0.479 0.127,-1.273 0.127,-2.383l-0,-7.763l2.82,-0l-0,7.37c-0,1.685 -0.076,2.875 -0.229,3.571c-0.154,0.697 -0.434,1.283 -0.845,1.761c-0.41,0.478 -0.956,0.859 -1.643,1.144c-0.687,0.284 -1.581,0.425 -2.689,0.425c-1.335,-0 -2.346,-0.156 -3.036,-0.463c-0.69,-0.31 -1.233,-0.713 -1.635,-1.205c-0.4,-0.496 -0.665,-1.014 -0.79,-1.557c-0.185,-0.803 -0.278,-1.991 -0.278,-3.559l-0,-7.487Z" style="fill:#231f20;fill-rule:nonzero;"/><path d="M381.419,164.363l0,-11.641l-4.14,-0l0,-2.374l11.1,-0l-0,2.374l-4.14,-0l-0,11.641l-2.82,0Z" style="fill:#231f20;fill-rule:nonzero;"/><path d="M392.825,156.273l2.082,0c1.35,0 2.193,-0.057 2.531,-0.173c0.336,-0.113 0.598,-0.31 0.79,-0.592c0.189,-0.28 0.284,-0.626 0.284,-1.048c-0,-0.471 -0.124,-0.85 -0.373,-1.141c-0.253,-0.289 -0.606,-0.472 -1.065,-0.551c-0.226,-0.028 -0.91,-0.046 -2.054,-0.046l-2.195,-0l-0,3.551Zm-2.823,8.09l-0,-14.015l5.936,0c1.493,0 2.577,0.129 3.254,0.38c0.675,0.25 1.22,0.696 1.625,1.339c0.407,0.644 0.611,1.381 0.611,2.208c0,1.052 -0.307,1.919 -0.923,2.602c-0.614,0.687 -1.533,1.119 -2.756,1.297c0.606,0.356 1.107,0.748 1.503,1.174c0.394,0.43 0.928,1.186 1.599,2.278l1.704,2.737l-3.375,-0l-2.02,-3.056c-0.726,-1.09 -1.223,-1.778 -1.49,-2.061c-0.267,-0.282 -0.553,-0.476 -0.851,-0.582c-0.299,-0.104 -0.774,-0.156 -1.424,-0.156l-0.57,-0l-0,5.855l-2.823,-0Z" style="fill:#231f20;fill-rule:nonzero;"/><path d="M411.341,158.811l-1.938,-5.194l-1.887,5.194l3.825,-0Zm5.197,5.552l-3.075,0l-1.2,-3.175l-5.607,0l-1.152,3.175l-3.026,0l5.408,-14.015l3.057,0l5.595,14.015Z" style="fill:#231f20;fill-rule:nonzero;"/><path d="M422.293,164.363l0,-14.015l4.24,-0l2.519,9.559l2.501,-9.559l4.237,-0l-0,14.015l-2.612,0l-0.012,-11.032l-2.761,11.032l-2.733,0l-2.758,-11.032l-0.012,11.032l-2.609,0Z" style="fill:#231f20;fill-rule:nonzero;"/><path d="M445.825,158.811l-1.939,-5.194l-1.887,5.194l3.826,-0Zm5.197,5.552l-3.077,0l-1.2,-3.175l-5.607,0l-1.15,3.175l-3.026,0l5.41,-14.015l3.053,0l5.597,14.015Z" style="fill:#231f20;fill-rule:nonzero;"/><path d="M452.376,164.363l-0,-13.898l2.821,0l0,11.521l7.031,0l-0,2.377l-9.852,0Z" style="fill:#231f20;fill-rule:nonzero;"/><path d="M471.468,158.811l-1.937,-5.194l-1.886,5.194l3.823,-0Zm5.198,5.552l-3.076,0l-1.199,-3.175l-5.608,0l-1.152,3.175l-3.026,0l5.41,-14.015l3.056,0l5.595,14.015Z" style="fill:#231f20;fill-rule:nonzero;"/><path d="M479.811,164.363l0,-5.9l-5.137,-8.115l3.333,-0l3.292,5.549l3.217,-5.549l3.254,-0l-5.139,8.134l0,5.881l-2.82,0Z" style="fill:#231f20;fill-rule:nonzero;"/><path d="M488.233,159.777l2.752,-0.26c0.166,0.923 0.504,1.598 1.012,2.032c0.507,0.433 1.194,0.65 2.055,0.65c0.916,-0 1.606,-0.193 2.067,-0.579c0.464,-0.384 0.695,-0.835 0.695,-1.35c0,-0.33 -0.096,-0.611 -0.29,-0.843c-0.194,-0.233 -0.535,-0.435 -1.019,-0.606c-0.329,-0.117 -1.089,-0.322 -2.268,-0.613c-1.517,-0.373 -2.583,-0.838 -3.196,-1.386c-0.859,-0.769 -1.29,-1.711 -1.29,-2.821c0,-0.714 0.203,-1.38 0.608,-2.004c0.403,-0.62 0.987,-1.094 1.75,-1.42c0.759,-0.324 1.679,-0.488 2.757,-0.488c1.758,0 3.08,0.391 3.971,1.167c0.888,0.778 1.355,1.815 1.399,3.113l-2.82,0.095c-0.121,-0.72 -0.382,-1.235 -0.781,-1.55c-0.399,-0.316 -0.997,-0.473 -1.796,-0.473c-0.824,-0 -1.468,0.168 -1.934,0.507c-0.299,0.218 -0.45,0.503 -0.45,0.867c-0,0.33 0.14,0.616 0.423,0.85c0.353,0.297 1.221,0.611 2.598,0.936c1.375,0.323 2.394,0.661 3.054,1.008c0.66,0.35 1.174,0.825 1.549,1.428c0.37,0.605 0.557,1.35 0.557,2.239c-0,0.804 -0.223,1.559 -0.668,2.262c-0.447,0.704 -1.079,1.228 -1.893,1.569c-0.819,0.341 -1.835,0.512 -3.053,0.512c-1.774,-0 -3.133,-0.411 -4.087,-1.235c-0.949,-0.826 -1.515,-2.028 -1.702,-3.607" style="fill:#231f20;fill-rule:nonzero;"/><rect x="501.723" y="150.348" width="2.825" height="14.016" style="fill:#231f20;"/><path d="M514.465,158.811l-1.938,-5.194l-1.885,5.194l3.823,-0Zm5.199,5.552l-3.077,0l-1.2,-3.175l-5.607,0l-1.15,3.175l-3.026,0l5.408,-14.015l3.055,0l5.597,14.015Z" style="fill:#231f20;fill-rule:nonzero;"/><rect x="238.757" y="175.645" width="277.609" height="20.314" style="fill:#788b9b;"/><path d="M249.385,189.14l1.75,-0c0.59,-0 1.006,-0.1 1.25,-0.303c0.241,-0.204 0.361,-0.477 0.361,-0.822c0,-0.32 -0.12,-0.575 -0.359,-0.769c-0.239,-0.195 -0.659,-0.293 -1.261,-0.293l-1.741,0l-0,2.187Zm-0,-4.231l1.487,0c0.535,0 0.904,-0.09 1.113,-0.269c0.211,-0.177 0.316,-0.435 0.316,-0.776c-0,-0.314 -0.105,-0.559 -0.316,-0.735c-0.209,-0.178 -0.57,-0.265 -1.09,-0.265l-1.51,0l-0,2.045Zm-3.455,-4.231l6.411,-0c1.071,-0 1.89,0.255 2.463,0.772c0.572,0.513 0.857,1.153 0.857,1.912c-0,0.637 -0.203,1.184 -0.611,1.64c-0.275,0.303 -0.672,0.545 -1.199,0.721c0.801,0.184 1.388,0.506 1.763,0.956c0.378,0.452 0.566,1.023 0.566,1.705c0,0.561 -0.135,1.061 -0.401,1.506c-0.268,0.445 -0.633,0.797 -1.097,1.055c-0.289,0.161 -0.721,0.28 -1.302,0.352c-0.77,0.098 -1.283,0.147 -1.536,0.147l-5.914,-0l-0,-10.766Z" style="fill:#fff;fill-rule:nonzero;"/><path d="M264.158,180.678l9.195,-0l-0,2.303l-5.761,0l0,1.715l5.337,0l-0,2.188l-5.337,-0l0,2.115l5.926,-0l-0,2.445l-9.36,-0l0,-10.766Z" style="fill:#fff;fill-rule:nonzero;"/><path d="M285.031,185.027l1.456,-0c0.157,-0 0.463,-0.049 0.917,-0.147c0.228,-0.042 0.415,-0.152 0.561,-0.332c0.144,-0.18 0.215,-0.387 0.215,-0.619c0,-0.342 -0.113,-0.607 -0.342,-0.789c-0.232,-0.186 -0.66,-0.276 -1.29,-0.276l-1.517,0l0,2.163Zm-3.432,6.417l-0,-10.766l5.714,-0c1.058,-0 1.87,0.087 2.43,0.264c0.562,0.176 1.014,0.503 1.355,0.98c0.343,0.476 0.515,1.058 0.515,1.742c-0,0.597 -0.134,1.113 -0.397,1.544c-0.265,0.433 -0.626,0.786 -1.091,1.054c-0.296,0.173 -0.701,0.312 -1.213,0.426c0.406,0.133 0.701,0.265 0.887,0.401c0.126,0.087 0.308,0.279 0.546,0.57c0.238,0.291 0.4,0.518 0.48,0.675l1.682,3.11l-3.875,-0l-1.836,-3.292c-0.234,-0.426 -0.441,-0.703 -0.621,-0.832c-0.25,-0.165 -0.526,-0.25 -0.842,-0.25l-0.302,0l0,4.374l-3.432,-0Z" style="fill:#fff;fill-rule:nonzero;"/><rect x="299.944" y="180.678" width="3.434" height="10.766" style="fill:#fff;"/><path d="M312.035,180.678l3.433,-0l-0,8.111l5.361,0l0,2.655l-8.794,-0l0,-10.766Z" style="fill:#fff;fill-rule:nonzero;"/><path d="M328.548,180.678l4.513,-0l1.726,6.548l1.729,-6.548l4.496,-0l-0,10.766l-2.799,-0l-0,-8.213l-2.171,8.213l-2.534,-0l-2.164,-8.213l0,8.213l-2.796,-0l-0,-10.766Z" style="fill:#fff;fill-rule:nonzero;"/><path d="M356.638,180.678l3.41,-0l-0,6.417c-0,0.635 -0.101,1.237 -0.306,1.801c-0.203,0.569 -0.526,1.063 -0.96,1.484c-0.438,0.424 -0.893,0.723 -1.373,0.892c-0.665,0.239 -1.463,0.359 -2.396,0.359c-0.542,0 -1.132,-0.035 -1.769,-0.108c-0.637,-0.074 -1.171,-0.221 -1.599,-0.436c-0.429,-0.218 -0.822,-0.529 -1.176,-0.929c-0.357,-0.403 -0.598,-0.816 -0.728,-1.243c-0.214,-0.687 -0.319,-1.291 -0.319,-1.82l-0,-6.417l3.407,-0l-0,6.569c-0,0.586 0.17,1.045 0.506,1.376c0.338,0.33 0.807,0.494 1.404,0.494c0.593,0 1.058,-0.16 1.396,-0.487c0.336,-0.326 0.503,-0.787 0.503,-1.383l-0,-6.569Z" style="fill:#fff;fill-rule:nonzero;"/><path d="M383.357,189.14l1.747,-0c0.592,-0 1.007,-0.1 1.25,-0.303c0.241,-0.204 0.363,-0.477 0.363,-0.822c0,-0.32 -0.12,-0.575 -0.36,-0.769c-0.238,-0.195 -0.659,-0.293 -1.26,-0.293l-1.74,0l0,2.187Zm0,-4.231l1.485,0c0.534,0 0.905,-0.09 1.116,-0.269c0.206,-0.177 0.31,-0.435 0.31,-0.776c0,-0.314 -0.104,-0.559 -0.31,-0.735c-0.211,-0.178 -0.572,-0.265 -1.092,-0.265l-1.509,0l0,2.045Zm-3.458,-4.231l6.413,-0c1.068,-0 1.892,0.255 2.461,0.772c0.572,0.513 0.86,1.153 0.86,1.912c0,0.637 -0.205,1.184 -0.616,1.64c-0.271,0.303 -0.668,0.545 -1.195,0.721c0.798,0.184 1.386,0.506 1.764,0.956c0.373,0.452 0.565,1.023 0.565,1.705c0,0.561 -0.135,1.061 -0.401,1.506c-0.267,0.445 -0.635,0.797 -1.097,1.055c-0.289,0.161 -0.723,0.28 -1.302,0.352c-0.77,0.098 -1.285,0.147 -1.535,0.147l-5.917,-0l0,-10.766Z" style="fill:#fff;fill-rule:nonzero;"/><path d="M398.128,180.678l9.194,-0l-0,2.303l-5.76,0l-0,1.715l5.336,0l0,2.188l-5.336,-0l-0,2.115l5.923,-0l0,2.445l-9.357,-0l-0,-10.766Z" style="fill:#fff;fill-rule:nonzero;"/><path d="M419.001,185.027l1.457,-0c0.158,-0 0.463,-0.049 0.915,-0.147c0.228,-0.042 0.414,-0.152 0.56,-0.332c0.146,-0.18 0.217,-0.387 0.217,-0.619c-0,-0.342 -0.114,-0.607 -0.343,-0.789c-0.228,-0.186 -0.658,-0.276 -1.289,-0.276l-1.517,0l-0,2.163Zm-3.434,6.417l-0,-10.766l5.716,-0c1.06,-0 1.869,0.087 2.431,0.264c0.56,0.176 1.011,0.503 1.355,0.98c0.343,0.476 0.515,1.058 0.515,1.742c-0,0.597 -0.132,1.113 -0.399,1.544c-0.262,0.433 -0.627,0.786 -1.09,1.054c-0.297,0.173 -0.698,0.312 -1.215,0.426c0.409,0.133 0.703,0.265 0.891,0.401c0.124,0.087 0.306,0.279 0.547,0.57c0.236,0.291 0.395,0.518 0.476,0.675l1.683,3.11l-3.873,-0l-1.839,-3.292c-0.23,-0.426 -0.439,-0.703 -0.621,-0.832c-0.247,-0.165 -0.529,-0.25 -0.841,-0.25l-0.302,0l-0,4.374l-3.434,-0Z" style="fill:#fff;fill-rule:nonzero;"/><path d="M437.255,189.14l1.748,-0c0.591,-0 1.007,-0.1 1.249,-0.303c0.243,-0.204 0.365,-0.477 0.365,-0.822c-0,-0.32 -0.121,-0.575 -0.36,-0.769c-0.239,-0.195 -0.66,-0.293 -1.262,-0.293l-1.74,0l-0,2.187Zm-0,-4.231l1.485,0c0.537,0 0.908,-0.09 1.117,-0.269c0.211,-0.177 0.312,-0.435 0.312,-0.776c0,-0.314 -0.101,-0.559 -0.312,-0.735c-0.209,-0.178 -0.574,-0.265 -1.092,-0.265l-1.51,0l-0,2.045Zm-3.458,-4.231l6.413,-0c1.071,-0 1.891,0.255 2.464,0.772c0.572,0.513 0.859,1.153 0.859,1.912c-0,0.637 -0.206,1.184 -0.613,1.64c-0.275,0.303 -0.672,0.545 -1.197,0.721c0.798,0.184 1.383,0.506 1.761,0.956c0.378,0.452 0.565,1.023 0.565,1.705c0,0.561 -0.133,1.061 -0.402,1.506c-0.267,0.445 -0.632,0.797 -1.095,1.055c-0.288,0.161 -0.721,0.28 -1.303,0.352c-0.771,0.098 -1.282,0.147 -1.535,0.147l-5.917,-0l-0,-10.766Z" style="fill:#fff;fill-rule:nonzero;"/><path d="M457.853,187.33l-1.21,-3.864l-1.212,3.864l2.422,0Zm0.727,2.327l-3.88,0l-0.561,1.787l-3.504,-0l4.167,-10.766l3.768,-0l4.15,10.766l-3.587,-0l-0.553,-1.787Z" style="fill:#fff;fill-rule:nonzero;"/><path d="M470.042,180.678l3.43,-0l0,4.067l3.586,-4.067l4.55,-0l-4.023,4.039l4.211,6.727l-4.223,-0l-2.315,-4.39l-1.786,1.792l0,2.598l-3.43,-0l-0,-10.766Z" style="fill:#fff;fill-rule:nonzero;"/><path d="M488.351,180.678l10.44,-0l0,2.655l-3.505,-0l0,8.111l-3.432,-0l-0,-8.111l-3.503,-0l-0,-2.655Z" style="fill:#fff;fill-rule:nonzero;"/><rect x="506.66" y="180.678" width="3.434" height="10.766" style="fill:#fff;"/></g></g></svg>